<svg id="Layer_1" data-name="Layer 1" xmlns="http://www.w3.org/2000/svg" viewBox="0 0 48 48"><defs><style>.cls-1{fill:#218ed2;}</style></defs><title>Add</title><path class="cls-1" d="M24,0A24,24,0,1,0,48,24,24,24,0,0,0,24,0Zm0,43.84a20,20,0,1,1,20-20A20,20,0,0,1,24,43.84Z"/><path class="cls-1" d="M32.56,21.9H26.1V15.33A1.29,1.29,0,0,0,24.78,14H23.2c-1.18,0-1.28,1.16-1.29,1.47V21.9H15.3A1.18,1.18,0,0,0,14,23.11v1.81A1.17,1.17,0,0,0,15.3,26.1h6.6v6.6A1.19,1.19,0,0,0,23.1,34h1.81a1.18,1.18,0,0,0,1.18-1.33V26.1h6.58A1.29,1.29,0,0,0,34,24.77V23.19C34,22,32.87,21.91,32.56,21.9Z"/></svg>