<svg id="Layer_1" data-name="Layer 1" xmlns="http://www.w3.org/2000/svg" viewBox="0 0 73.2 80.5"><title>Bear</title><path d="M53.8,47.91a.85.85,0,0,1-.67-.32C51,44.91,48.67,43.25,47,43.25s-4,1.66-6.13,4.32a.86.86,0,1,1-1.34-1.06c2.51-3.16,5.23-5,7.47-5s5,1.82,7.47,5a.86.86,0,0,1-.67,1.39Z" transform="translate(-10.4 -1.22)"/><path d="M53.8,47.91a.85.85,0,0,1-.67-.32C51,44.91,48.67,43.25,47,43.25s-4,1.66-6.13,4.32a.86.86,0,1,1-1.34-1.06c2.51-3.16,5.23-5,7.47-5s5,1.82,7.47,5a.86.86,0,0,1-.67,1.39Z" transform="translate(-10.4 -1.22)"/><path d="M53.8,47.91a.85.85,0,0,1-.67-.32C51,44.91,48.67,43.25,47,43.25s-4,1.66-6.13,4.32a.86.86,0,1,1-1.34-1.06c2.51-3.16,5.23-5,7.47-5s5,1.82,7.47,5a.86.86,0,0,1-.67,1.39Z" transform="translate(-10.4 -1.22)"/><path d="M47,78.33a25.79,25.79,0,0,1-2.73-.13l-.42,0-.24,0h-.13l-.62-.1-.95-.19-.45-.11-.32-.09a3.9,3.9,0,0,1-.46-.15l-.1,0-.64-.24-.16-.06-.46-.22L39,76.75a3,3,0,0,1-.34-.2,2.55,2.55,0,0,1-.35-.22l-.09-.06a4.1,4.1,0,0,1-.45-.31l-.05,0a5.94,5.94,0,0,1-.51-.42L37,75.35c-.16-.15-.33-.34-.49-.52a7.06,7.06,0,0,1-.5-.62,6.22,6.22,0,0,1-.36-.55,3,3,0,0,1-.19-.32c-.07-.13-.15-.28-.22-.43l-.1-.2c-.11-.21-.2-.43-.3-.67-.9-2.23-1.3-5.07-1.3-9.23,0-.38,0-.76,0-1.14v-.12c0-.26,0-.52.06-.78a5.45,5.45,0,0,1,.06-.59c0-.24.06-.52.1-.79s.11-.7.18-1l0-.16c0-.23.1-.47.16-.7s.09-.38.14-.57.15-.57.24-.87.17-.55.26-.82.09-.27.14-.42.21-.6.33-.9l.1-.26.08-.19.11-.27c.1-.23.19-.46.3-.69s.29-.63.45-.94.46-.92.71-1.37l.37-.63v0l.17-.26h0c.22-.36.4-.66.6-.95s.3-.45.48-.69l.15-.22a19.83,19.83,0,0,1-4.19-2.53.86.86,0,0,1,1.06-1.34,18,18,0,0,0,4.79,2.71l1.09.41-.72.92c-.27.34-.54.7-.79,1.07s-.31.43-.43.62-.33.51-.49.76v0l-.13.21c-.16.25-.31.51-.46.77-.23.42-.46.85-.67,1.3s-.3.6-.43.9-.18.42-.27.62l-.28.68c-.12.3-.22.6-.33.89,0,.13-.08.23-.11.34-.09.27-.17.53-.25.79s-.16.54-.22.8-.09.37-.13.54-.11.46-.15.67l0,.16c-.06.3-.12.62-.16.94s-.08.52-.1.78a4.79,4.79,0,0,0-.05.49c0,.28,0,.53-.06.77v.1c0,.34,0,.68,0,1,0,3.88.37,6.61,1.17,8.59.08.19.15.37.24.55l.1.19c.08.17.14.27.19.37a2.5,2.5,0,0,0,.14.23c.12.2.21.33.3.45a5.26,5.26,0,0,0,.39.48c.15.17.28.31.42.45l.1.09a4.34,4.34,0,0,0,.37.32l.18.15.18.11.23.16.23.14.25.14.2.1.1,0,.39.19.13.05.52.2.16.05.22.07.31.09.16,0,.33.08.89.18.58.09.17,0,.14,0,.34,0a24.69,24.69,0,0,0,2.6.13l.9,0h.56l.54,0,0,0h.28l.52-.06.47-.06.25,0,.4-.07a13.65,13.65,0,0,0,1.39-.36,3.17,3.17,0,0,0,.4-.14L53,75.7a3.78,3.78,0,0,0,.41-.17l.29-.13.2-.1.49-.28.54-.36.19-.15.21-.17a2.1,2.1,0,0,0,.25-.22,8.92,8.92,0,0,0,.74-.81A3.11,3.11,0,0,0,56.5,73l.24-.36c.08-.13.15-.25.22-.37A2.39,2.39,0,0,0,57.1,72a5.29,5.29,0,0,0,.25-.53l.23-.54a23.88,23.88,0,0,0,1.1-8.13c0-.35,0-.7,0-1.05l0-.22c0-.15,0-.3,0-.45l0-.29a1,1,0,0,0,0-.11l-.05-.45c0-.25-.06-.5-.11-.75s-.09-.49-.13-.73-.1-.5-.16-.75-.09-.38-.13-.54l0-.17c-.12-.46-.25-.92-.4-1.37l-.2-.6c-.12-.38-.26-.74-.4-1.08s-.23-.58-.35-.84l-.23-.53-.27-.58-.4-.77c-.13-.25-.27-.51-.41-.75s-.33-.58-.51-.86-.35-.56-.53-.82c-.33-.5-.7-1-1.11-1.53l-.71-.91,1.08-.42a18.47,18.47,0,0,0,4.79-2.72.86.86,0,0,1,1.06,1.34,20.16,20.16,0,0,1-4.2,2.54l.51.73c.19.28.38.57.57.88s.37.6.54.91.3.52.44.8l.41.8.29.62.25.57c.13.28.26.6.37.91s.3.75.43,1.16l.2.59c.16.49.3,1,.44,1.49l0,.16c.05.2.1.41.14.62s.12.5.17.77.1.51.14.77.09.56.12.85l0,.12c0,.07,0,.14,0,.21v.11c0,.08,0,.15,0,.23s0,.13,0,.19,0,.34,0,.51l0,.22c0,.41,0,.78,0,1.17,0,4.07-.46,7-1.45,9.33l-.25.52-.06.11a2.58,2.58,0,0,1-.18.34c-.07.13-.16.28-.26.44l-.25.38a4.61,4.61,0,0,1-.35.48,9.92,9.92,0,0,1-.83.91,3.44,3.44,0,0,1-.37.34l-.24.19-.27.22-.36.25-.24.16-.61.35-.31.16-.25.12a5.57,5.57,0,0,1-.53.22l-.16.07-.13,0-.42.14a14.82,14.82,0,0,1-1.53.4l-.52.09-.2,0-.5.07-.68.07h-.12a1.17,1.17,0,0,1-.23,0l-.6,0h-.57Z" transform="translate(-10.4 -1.22)"/><path d="M47,81.71a20.82,20.82,0,0,1-7.61-1.43,21.09,21.09,0,0,1-11.92-11.7.86.86,0,0,1,1.58-.64,19.38,19.38,0,0,0,35.88,0,.85.85,0,1,1,1.58.64A21.09,21.09,0,0,1,54.27,80.42,20.87,20.87,0,0,1,47,81.71Z" transform="translate(-10.4 -1.22)"/><path d="M58.15,72.65a.86.86,0,0,1-.78-1.19,22.35,22.35,0,0,0,1.31-8.65c0-.35,0-.7,0-1.05l0-.22c0-.15,0-.3,0-.45l0-.29a1,1,0,0,0,0-.11l-.05-.45c0-.25-.06-.5-.11-.75s-.09-.49-.13-.73-.1-.5-.16-.75-.09-.38-.13-.54l0-.17c-.12-.46-.25-.92-.4-1.37l-.2-.6c-.13-.36-.26-.72-.4-1.08s-.22-.56-.34-.83l-.23-.53-.27-.58-.4-.77c-.13-.25-.27-.51-.41-.75s-.33-.58-.51-.86-.35-.56-.53-.82c-.33-.5-.7-1-1.11-1.52C51,44.92,48.67,43.26,47,43.26s-4,1.65-6.13,4.32c-.27.34-.54.69-.79,1.07s-.31.43-.44.63-.33.5-.48.76v0l-.13.21c-.16.25-.31.51-.46.77-.23.42-.46.85-.67,1.3s-.3.6-.43.9-.18.42-.27.62l-.28.68c-.12.3-.23.58-.32.87s-.09.25-.12.36c-.09.27-.17.53-.25.79s-.16.54-.22.8-.09.37-.13.54-.11.46-.15.67l0,.16c-.06.3-.12.62-.16.94s-.08.52-.1.78a4.51,4.51,0,0,0-.05.49c0,.28,0,.53-.06.77v.1c0,.34,0,.68,0,1,0,3.88.37,6.61,1.17,8.59a.86.86,0,1,1-1.59.64c-.9-2.22-1.3-5.07-1.3-9.23,0-.38,0-.76,0-1.14v-.12c0-.26,0-.52.06-.78a5.21,5.21,0,0,1,.06-.59c0-.24.06-.52.1-.79s.11-.7.18-1l0-.16c0-.23.1-.47.16-.7s.09-.38.14-.57.15-.57.24-.87.17-.55.26-.82.09-.27.14-.42.21-.6.33-.9l.1-.26.08-.19.11-.27c.1-.23.19-.46.3-.69s.29-.63.45-.94.46-.92.71-1.37l.37-.63v0l.17-.26h0c.22-.36.4-.66.6-.95s.31-.46.48-.68l.16-.23a19.83,19.83,0,0,1-4.19-2.53,3.8,3.8,0,0,1-.3-.25,19.66,19.66,0,0,1-6.43-9.56.86.86,0,1,1,1.64-.5,18,18,0,0,0,5.89,8.75l.22.19A18.27,18.27,0,0,0,39.93,46c2.39-2.85,4.95-4.47,7.07-4.47s4.68,1.62,7.07,4.48a18.46,18.46,0,0,0,4.22-2.49c.22-.17.42-.34.62-.51l.17-.15a18,18,0,0,0,5.42-8.47.86.86,0,1,1,1.64.48,19.77,19.77,0,0,1-5.94,9.28l-.18.15c-.23.19-.45.39-.68.57a20.08,20.08,0,0,1-4.19,2.53l.51.73c.19.28.38.57.57.88s.37.6.54.91.3.52.44.8l.41.8.29.62.25.57c.12.28.24.58.36.88s.29.77.43,1.16l.21.62c.16.49.3,1,.44,1.49l0,.16c.05.2.1.41.14.62s.12.5.17.77.1.51.14.77.09.56.12.85l0,.12c0,.07,0,.14,0,.21v.11c0,.08,0,.15,0,.23s0,.13,0,.19,0,.34,0,.51l0,.22c0,.41,0,.78,0,1.17,0,4.07-.46,7-1.45,9.33A.85.85,0,0,1,58.15,72.65Zm7.58-3.53a.86.86,0,0,1-.45-1.58,34.9,34.9,0,0,0,16.6-29.71,32.17,32.17,0,0,0-4-15.39A37.92,37.92,0,0,0,65.58,8.93l-.21-.13A33.91,33.91,0,0,0,47,2.93,33.45,33.45,0,0,0,28.63,8.8l-.22.14A37.91,37.91,0,0,0,16.08,22.43a32.16,32.16,0,0,0-4,15.39A34.64,34.64,0,0,0,22.2,62.36a35.07,35.07,0,0,0,6.52,5.18.86.86,0,0,1-.9,1.46A36.84,36.84,0,0,1,21,63.56,36.34,36.34,0,0,1,10.4,37.82a33.86,33.86,0,0,1,4.17-16.2A39.66,39.66,0,0,1,27.68,7.37l.23-.14A35.08,35.08,0,0,1,47,1.22a35.57,35.57,0,0,1,19.09,6h0l.22.14A39.65,39.65,0,0,1,79.43,21.62a33.86,33.86,0,0,1,4.17,16.2A36.6,36.6,0,0,1,66.18,69,.85.85,0,0,1,65.73,69.12Z" transform="translate(-10.4 -1.22)"/><path d="M47,78.33a25.79,25.79,0,0,1-2.73-.13l-.42,0-.24,0h-.13l-.62-.1-.95-.19-.45-.11-.32-.09a3.9,3.9,0,0,1-.46-.15l-.1,0-.64-.24-.16-.06-.46-.22L39,76.75a3,3,0,0,1-.34-.2l-.3-.18-.14-.1a4.06,4.06,0,0,1-.46-.32l-.05,0a5.94,5.94,0,0,1-.51-.42L37,75.35a6.12,6.12,0,0,1-.51-.54,6.57,6.57,0,0,1-.5-.62,4.32,4.32,0,0,1-.35-.53,3,3,0,0,1-.19-.32c-.07-.13-.15-.28-.22-.43l-.1-.2c-.11-.21-.2-.43-.3-.67-.9-2.23-1.3-5.07-1.3-9.23,0-.38,0-.76,0-1.14v-.12c0-.26,0-.52.06-.78a5.21,5.21,0,0,1,.06-.59c0-.24.06-.52.1-.79s.11-.7.18-1l0-.16c0-.23.1-.47.16-.7s.09-.38.14-.57.15-.57.24-.87.17-.55.26-.82.09-.27.14-.42.21-.6.33-.9l.1-.26.08-.19.11-.27c.1-.23.19-.46.3-.69s.29-.63.45-.94.46-.92.71-1.37l.37-.63v0l.17-.26h0c.22-.36.4-.66.6-.95s.31-.46.48-.68.54-.75.83-1.13a.86.86,0,1,1,1.35,1.06c-.27.34-.54.7-.79,1.07s-.31.43-.44.63-.33.5-.48.76v0l-.13.21c-.16.25-.31.51-.46.77-.23.42-.46.85-.67,1.3s-.3.6-.43.9-.18.42-.27.62l-.28.68c-.12.3-.23.58-.32.87s-.09.25-.12.36c-.09.27-.17.53-.25.79s-.16.54-.22.8-.09.37-.13.54-.11.46-.15.67l0,.16c-.06.3-.12.62-.16.94s-.08.52-.1.78a4.51,4.51,0,0,0-.05.49c0,.28,0,.53-.06.77v.1c0,.34,0,.68,0,1,0,3.88.37,6.61,1.17,8.59.08.19.15.37.24.55l.1.19c.08.17.14.27.19.37a2.5,2.5,0,0,0,.14.23,4,4,0,0,0,.28.43,5.69,5.69,0,0,0,.42.53,4.77,4.77,0,0,0,.41.43l.1.09a4.34,4.34,0,0,0,.37.32l.18.15.18.11.22.15.24.14.25.14.2.1.1,0,.39.19.13.05.52.2.16.05.22.07.31.09.16,0,.33.08.89.18.58.09.17,0,.14,0,.34,0a24.69,24.69,0,0,0,2.6.13l.9,0h.56l.54,0,0,0h.28l.52-.06.47-.06.21,0,.49-.08a13.38,13.38,0,0,0,1.35-.35l.43-.15L53,75.7a3.78,3.78,0,0,0,.41-.17l.29-.13.2-.1.49-.28.6-.41.1-.08.09-.08.15-.12a2.1,2.1,0,0,0,.25-.22,8.92,8.92,0,0,0,.74-.81c.09-.12.16-.21.23-.32l.24-.36c.08-.13.15-.25.22-.37A2.39,2.39,0,0,0,57.1,72a5.29,5.29,0,0,0,.25-.53l.23-.54a23.88,23.88,0,0,0,1.1-8.13c0-.35,0-.7,0-1.05l0-.22c0-.15,0-.3,0-.45l0-.29a1,1,0,0,0,0-.11l-.05-.45c0-.25-.06-.5-.11-.75s-.09-.49-.13-.73-.1-.5-.16-.75-.09-.38-.13-.54l0-.17c-.12-.46-.25-.92-.4-1.37l-.2-.6c-.13-.36-.26-.72-.4-1.08s-.22-.56-.34-.83l-.23-.53-.27-.58-.4-.77c-.13-.25-.27-.51-.41-.75s-.33-.58-.51-.86-.35-.56-.53-.82c-.33-.5-.7-1-1.11-1.53a.86.86,0,1,1,1.35-1.06c.44.56.83,1.09,1.18,1.63.19.28.38.57.57.88s.37.6.54.91.3.52.44.8l.41.8.29.62.25.57c.12.28.24.58.36.88s.29.77.43,1.16l.21.62c.16.49.3,1,.44,1.49l0,.16c.05.2.1.41.14.62s.12.5.17.77.1.51.14.77.09.56.12.85l0,.12c0,.07,0,.14,0,.21v.11c0,.08,0,.15,0,.23s0,.13,0,.19,0,.34,0,.51l0,.22c0,.41,0,.78,0,1.17,0,4.07-.46,7-1.45,9.33l-.25.52-.06.11a2.58,2.58,0,0,1-.18.34c-.07.13-.16.28-.26.44l-.25.38c-.1.15-.19.28-.29.41a10.14,10.14,0,0,1-.88,1,3.44,3.44,0,0,1-.37.34l-.19.16L56,76l-.45.31-.24.16-.61.35-.34.17-.22.1a5.57,5.57,0,0,1-.53.22l-.16.07-.14,0-.4.14a14.82,14.82,0,0,1-1.53.4l-.5.09-.22,0-.5.07-.68.07h-.12a1.17,1.17,0,0,1-.23,0l-.6,0h-.57Z" transform="translate(-10.4 -1.22)"/><path d="M53.52,48.07l-.39-.49C51,44.91,48.67,43.25,47,43.25s-4,1.66-6.13,4.32l-.39.49-.58-.22a19.52,19.52,0,0,1-5.24-3l-.29-.23a19.74,19.74,0,0,1-6.43-9.57.86.86,0,1,1,1.64-.5,18,18,0,0,0,5.89,8.75l.25.2A17.92,17.92,0,0,0,39.93,46c2.4-2.85,5-4.48,7.07-4.48s4.68,1.63,7.07,4.48a18.09,18.09,0,0,0,4.22-2.49c.28-.21.52-.42.77-.65a18,18,0,0,0,5.43-8.48.86.86,0,0,1,1.64.48,19.71,19.71,0,0,1-5.94,9.28c-.28.25-.56.49-.86.72a19.81,19.81,0,0,1-5.23,3Z" transform="translate(-10.4 -1.22)"/><path d="M15.33,22.88a.85.85,0,0,1-.49-.15A10.41,10.41,0,1,1,28.78,7.5a.85.85,0,0,1-.62,1.44h-.41l-.26-.31a8.7,8.7,0,1,0-11.68,12.7.86.86,0,0,1-.49,1.56Z" transform="translate(-10.4 -1.22)"/><path d="M78.67,22.88a.86.86,0,0,1-.49-1.56A8.7,8.7,0,1,0,66.5,8.63l-.26.31h-.4a.86.86,0,0,1-.6-1.47A10.41,10.41,0,1,1,79.16,22.73.86.86,0,0,1,78.67,22.88Z" transform="translate(-10.4 -1.22)"/><path d="M64.49,47.05A6.61,6.61,0,0,1,58.91,44l-.4-.62.55-.49a18,18,0,0,0,5.43-8.48l.21-.71.73.1a6.66,6.66,0,0,1-.94,13.25Zm-3.72-3.41a4.9,4.9,0,0,0,3.72,1.7,5,5,0,0,0,1.4-9.7A19.71,19.71,0,0,1,60.78,43.64Z" transform="translate(-10.4 -1.22)"/><path d="M30.38,47.05A6.67,6.67,0,0,1,28.5,34l.81-.24.25.81a18,18,0,0,0,5.89,8.75l.65.53-.52.66A6.56,6.56,0,0,1,30.38,47.05ZM28.21,35.94a5,5,0,0,0,2.17,9.4,4.86,4.86,0,0,0,3.3-1.28A19.73,19.73,0,0,1,28.21,35.94Z" transform="translate(-10.4 -1.22)"/><path d="M43,78a.85.85,0,0,1-.59-1.47,11.88,11.88,0,0,0,3.45-6.15l0-.11C42.16,70,39.32,67.76,39.32,65c0-2.4,2.12-4.45,5.27-5.12a.86.86,0,1,1,.35,1.67C42.64,62,41,63.45,41,65c0,1.94,2.47,3.56,5.52,3.62h1.34l-.13,1c-.05.4-.11.78-.2,1.17a13.58,13.58,0,0,1-3.95,7A.85.85,0,0,1,43,78Z" transform="translate(-10.4 -1.22)"/><path d="M46.91,70.33h-.44c-4-.09-7.15-2.43-7.15-5.33,0-2.4,2.12-4.45,5.27-5.12a10.15,10.15,0,0,1,4.27,0c3.17.67,5.31,2.73,5.31,5.13,0,2.93-3.18,5.28-7.24,5.34Zm-.17-9a7.85,7.85,0,0,0-1.78.19C42.64,62,41,63.45,41,65c0,1.94,2.47,3.56,5.52,3.62h.36c3.06-.05,5.55-1.68,5.55-3.63,0-1.55-1.63-3-4-3.46A8.06,8.06,0,0,0,46.74,61.35Z" transform="translate(-10.4 -1.22)"/><path d="M50.47,78.09a.85.85,0,0,1-.59-.23,13.56,13.56,0,0,1-4-7.09,9.05,9.05,0,0,1-.21-1.21l-.11-1.08,1.07.14h.27c3.05-.05,5.55-1.68,5.55-3.63,0-1.55-1.63-3-4-3.46a.86.86,0,1,1,.35-1.67c3.18.67,5.32,2.73,5.32,5.13,0,2.78-2.87,5-6.63,5.32l0,.08a11.88,11.88,0,0,0,3.51,6.22.86.86,0,0,1-.59,1.48Z" transform="translate(-10.4 -1.22)"/></svg>