<svg id="Layer_1" data-name="Layer 1" xmlns="http://www.w3.org/2000/svg" viewBox="0 0 89.7 78.91"><defs><style>.cls-1{fill:none;stroke:#000;stroke-linecap:round;stroke-miterlimit:10;stroke-width:2px;}</style></defs><title>Bull</title><path d="M46.85,50.3a15.41,15.41,0,0,1-7.17-1.75,15,15,0,0,1-1.83-1.11,15.66,15.66,0,0,1-4.39-4.71l-.1-.17v0a15.32,15.32,0,0,1-2-6.42,14.11,14.11,0,0,1-.07-1.42,15.64,15.64,0,0,1,3.51-9.86l.24-.3.38.06a74.49,74.49,0,0,0,22.94,0l.38-.06.24.3a15.65,15.65,0,0,1,3.51,9.86,14.06,14.06,0,0,1-.07,1.42h0a15.35,15.35,0,0,1-2.12,6.56l0,.08A15.64,15.64,0,0,1,46.85,50.3ZM34.71,42.2a14.3,14.3,0,0,0,3.92,4.15,13.72,13.72,0,0,0,1.67,1A14.08,14.08,0,0,0,46.85,49a14.23,14.23,0,0,0,6.41-1.52,14.48,14.48,0,0,0,1.81-1.09,14.29,14.29,0,0,0,4-4.21l.06-.1a14,14,0,0,0,2-6,12.92,12.92,0,0,0,.06-1.3,14.31,14.31,0,0,0-3-8.71,76,76,0,0,1-22.59,0,14.31,14.31,0,0,0-3,8.71A12.62,12.62,0,0,0,32.65,36v.07a14,14,0,0,0,1.87,5.82l.09.15Z" transform="translate(-2 -1)"/><path d="M22.76,43.68c-5.61,0-9.83-1.94-9.83-4.5s4.23-4.5,9.83-4.5,9.83,1.94,9.83,4.5S28.36,43.68,22.76,43.68Zm0-7.66c-5,0-8.49,1.66-8.49,3.16s3.49,3.16,8.49,3.16,8.49-1.66,8.49-3.16S27.76,36,22.76,36Z" transform="translate(-2 -1)"/><path d="M70.94,43.68c-5.61,0-9.83-1.94-9.83-4.5s4.23-4.5,9.83-4.5,9.83,1.94,9.83,4.5S76.55,43.68,70.94,43.68Zm0-7.66c-5,0-8.49,1.66-8.49,3.16s3.49,3.16,8.49,3.16,8.49-1.66,8.49-3.16S75.94,36,70.94,36Z" transform="translate(-2 -1)"/><path d="M32.16,32.68H32C14.07,29,2,18.86,2,7.54a16.35,16.35,0,0,1,.46-3.82L3.11,1l.65,2.73c2.4,10,14.81,18.21,31.61,20.88a.67.67,0,0,1-.21,1.33C19.36,23.42,7.29,16.06,3.37,6.79q0,.38,0,.75c0,10.66,11.64,20.22,29,23.81a.67.67,0,0,1-.14,1.33Z" transform="translate(-2 -1)"/><path d="M61.53,32.68a.67.67,0,0,1-.14-1.33c17.32-3.58,29-13.15,29-23.81q0-.38,0-.76c-3.93,9.27-16,16.63-31.81,19.15a.67.67,0,0,1-.21-1.33c16.8-2.67,29.21-10.87,31.62-20.88L90.59,1l.66,2.72a16.32,16.32,0,0,1,.46,3.82c0,11.31-12.07,21.41-30,25.12Z" transform="translate(-2 -1)"/><path d="M36,68,34.46,57.65a2.35,2.35,0,0,1-.65-1.32l-1.34-10,1.31,1.05A9.42,9.42,0,0,0,36,48.94l.16-.29.43,0,.28,0a3.4,3.4,0,0,0,2-.62,3.59,3.59,0,0,0,.64-.57l.35-.39.47.24A14.07,14.07,0,0,0,46.85,49a14.23,14.23,0,0,0,6.41-1.52l.5-.25.34.44a3.49,3.49,0,0,0,.76.72,3.6,3.6,0,0,0,2.28.6l.16,0,.2,0,.19.07a3.81,3.81,0,0,0,2.15-1.45l1.47-1.65L59.88,56.33a2.38,2.38,0,0,1-.69,1.36L57.61,67.92l-.79-.32a1.16,1.16,0,0,0-.43-.09H37.32a1.07,1.07,0,0,0-.47.11ZM34.25,49.49l.9,6.67a1.06,1.06,0,0,0,.38.66l.19.16,1.37,9.2H56.52L57.94,57l.2-.16a1.08,1.08,0,0,0,.41-.68l.87-6.5a3.21,3.21,0,0,1-1.7.65h0a1.5,1.5,0,0,1-.33,0h-.14l-.42,0a4.83,4.83,0,0,1-3.43-1.44,15.61,15.61,0,0,1-6.55,1.44,15.4,15.4,0,0,1-6.72-1.52,4.91,4.91,0,0,1-.51.41,4.66,4.66,0,0,1-2.82.86,1.21,1.21,0,0,1-.74.24A3.33,3.33,0,0,1,34.25,49.49Z" transform="translate(-2 -1)"/><path d="M60.33,48.62a.67.67,0,0,1-.67-.67v-.1l0-.32a.67.67,0,1,1,1.33.19L61,48A.68.68,0,0,1,60.33,48.62Z" transform="translate(-2 -1)"/><path d="M60.82,45h-.09a.67.67,0,0,1-.58-.76l1-7.49a.66.66,0,0,0-.05-.39.67.67,0,0,1,1.21-.59,2,2,0,0,1,.18,1.17l-1,7.48A.67.67,0,0,1,60.82,45Z" transform="translate(-2 -1)"/><path d="M33.36,48.62a.67.67,0,0,1-.67-.61l-.09-.64a.67.67,0,1,1,1.33-.18l.1.76A.67.67,0,0,1,33.36,48.62Z" transform="translate(-2 -1)"/><path d="M32.85,44.81a.67.67,0,0,1-.67-.58l-1-7.3a2,2,0,0,1,.18-1.16.67.67,0,1,1,1.21.59.66.66,0,0,0-.05.39l1,7.31a.67.67,0,0,1-.58.76Z" transform="translate(-2 -1)"/><path class="cls-1" d="M57.07,67a1.83,1.83,0,0,0-.68-.14H37.32a1.73,1.73,0,0,0-.78.18,1.75,1.75,0,0,0-1,1.57v8.56a1.75,1.75,0,0,0,1.75,1.75H56.39a1.75,1.75,0,0,0,1.75-1.75V68.59A1.76,1.76,0,0,0,57.07,67ZM42.44,75.14c-.83.71-2.93-.38-4.69-2.44s-2.51-4.3-1.68-5a.9.9,0,0,1,.54-.21c1-.1,2.69,1,4.15,2.65a10.16,10.16,0,0,1,.78,1C42.73,72.89,43.14,74.55,42.44,75.14ZM55.36,72.7c-1.76,2.07-3.86,3.17-4.69,2.46s-.28-2.26.9-4a12,12,0,0,1,.79-1c1.71-2,3.73-3.1,4.61-2.5l.08.05C57.88,68.38,57.12,70.63,55.36,72.7Z" transform="translate(-2 -1)"/><path d="M41.78,76c-1.25,0-3-1.14-4.54-2.89-1.8-2.11-2.93-4.83-1.61-6a1.58,1.58,0,0,1,.93-.37h.18c1.24,0,3,1.14,4.53,2.89a10.84,10.84,0,0,1,.83,1.09c1.45,2.12,1.76,4,.77,4.87A1.66,1.66,0,0,1,41.78,76Zm-5-7.88h-.07a.29.29,0,0,0-.16,0c-.3.25-.06,1.94,1.75,4.07,1.36,1.59,2.8,2.42,3.52,2.42a.39.39,0,0,0,.23-.05c.25-.21.12-1.42-1-3.09a9.57,9.57,0,0,0-.73-1C38.89,69,37.45,68.14,36.74,68.14Z" transform="translate(-2 -1)"/><path d="M51.34,76a1.66,1.66,0,0,1-1.1-.38c-1-.85-.69-2.72.78-4.89a12.78,12.78,0,0,1,.83-1.1c1.5-1.76,3.28-2.9,4.53-2.9a1.7,1.7,0,0,1,.93.25l.15.1c1.34,1.15.21,3.88-1.58,6C54.37,74.91,52.59,76,51.34,76Zm5-7.92c-.71,0-2.15.83-3.51,2.43a11.44,11.44,0,0,0-.75,1c-1.14,1.68-1.26,2.9-1,3.11a.37.37,0,0,0,.22.05c.72,0,2.16-.84,3.52-2.44,1.78-2.09,2-3.76,1.77-4.07l0,0A.4.4,0,0,0,56.38,68.13Z" transform="translate(-2 -1)"/><path d="M36.87,50.05l-.37,0a4.84,4.84,0,0,1-3.81-2.42.67.67,0,1,1,1.17-.67,3.47,3.47,0,0,0,2.71,1.74l.3,0a3.4,3.4,0,0,0,2-.62q-.5-.3-1-.64a15.59,15.59,0,0,1-4-4.06,3.46,3.46,0,0,0-.38.92A.67.67,0,0,1,32.2,44,4.83,4.83,0,0,1,33,42.35v0l.15-.2a4.67,4.67,0,0,1,.37-.41l.63-.61.42.77.08.13.1.17a14.31,14.31,0,0,0,3.92,4.15,13.72,13.72,0,0,0,1.67,1l.77.39-.57.65a4.93,4.93,0,0,1-.88.79A4.73,4.73,0,0,1,36.87,50.05Z" transform="translate(-2 -1)"/><path d="M33.28,48a.67.67,0,0,1-.58-.34,4.74,4.74,0,0,1-.63-2.1c0-.09,0-.21,0-.33A4.94,4.94,0,0,1,32.2,44a.67.67,0,1,1,1.3.33,3.55,3.55,0,0,0-.11.88,2.1,2.1,0,0,0,0,.22,3.45,3.45,0,0,0,.46,1.54.67.67,0,0,1-.58,1Z" transform="translate(-2 -1)"/><path d="M56.83,50.3A4.82,4.82,0,0,1,53,48.45l-.5-.65.73-.37a14.47,14.47,0,0,0,1.81-1.09,14.29,14.29,0,0,0,4-4.28l.42-.7.6.55a4.4,4.4,0,0,1,.51.54l.14.19a4.62,4.62,0,0,1,.72,1.5.67.67,0,1,1-1.3.35,3.27,3.27,0,0,0-.45-1,15.6,15.6,0,0,1-3.88,3.92c-.38.27-.77.52-1.18.75l.19.14a3.59,3.59,0,0,0,2.28.6l.16,0a3.46,3.46,0,0,0,2.5-1.64A.67.67,0,1,1,61,48a4.78,4.78,0,0,1-3.43,2.27l-.28,0Z" transform="translate(-2 -1)"/><path d="M60.38,48.3a.67.67,0,0,1-.57-1,3.47,3.47,0,0,0,.5-1.57,2.09,2.09,0,0,0,0-.24,3.4,3.4,0,0,0-.13-1,.67.67,0,1,1,1.29-.38,4.75,4.75,0,0,1,.19,1.33,3.33,3.33,0,0,1,0,.35A4.79,4.79,0,0,1,61,48,.67.67,0,0,1,60.38,48.3Z" transform="translate(-2 -1)"/></svg>