<svg id="Layer_1" data-name="Layer 1" xmlns="http://www.w3.org/2000/svg" viewBox="0 0 79.37 85.61"><title>MT4 Indicator</title><path d="M86.56,90.6h-16V30.89h16Zm-14-2h12V32.89h-12Z" transform="translate(-7.2 -5.1)"/><path d="M65.37,90.71H49.15V46.87H65.37Zm-14.22-2H63.37V48.87H51.15Z" transform="translate(-7.2 -5.1)"/><path d="M43.65,90.6H28.28V58.94H43.65Zm-13.36-2H41.65V60.94H30.28Z" transform="translate(-7.2 -5.1)"/><path d="M22.15,90.6H7.2V70.87h15Zm-13-2h11V72.87H9.2Z" transform="translate(-7.2 -5.1)"/><path d="M8.2,56.93a1,1,0,0,1-.16-2C30.31,51.28,71,31.33,78.36,5.82a1,1,0,1,1,1.92.55c-7.5,26-49.18,46.79-71.92,50.54Z" transform="translate(-7.2 -5.1)"/><path d="M70.2,11.94a1,1,0,0,1-.47-1.88l9.13-4.84A1,1,0,1,1,79.79,7l-9.13,4.84A1,1,0,0,1,70.2,11.94Z" transform="translate(-7.2 -5.1)"/><path d="M81.55,15.83a1,1,0,0,1-1-.75L78.35,6.35a1,1,0,1,1,1.94-.49l2.23,8.72a1,1,0,0,1-.72,1.22A1,1,0,0,1,81.55,15.83Z" transform="translate(-7.2 -5.1)"/></svg>