<svg id="Layer_1" data-name="Layer 1" xmlns="http://www.w3.org/2000/svg" viewBox="0 0 27.37 35.66"><defs><style>.cls-1{fill:none;stroke-linecap:round;stroke-linejoin:round;}.cls-1,.cls-2{stroke:#ff4830;stroke-width:1.44px;}.cls-2{stroke-miterlimit:22.93;fill-rule:evenodd;}</style></defs><title>Calculator</title><path class="cls-1" d="M3.09,1.68H26.87a1.08,1.08,0,0,1,1.07,1.07V34.83a1.08,1.08,0,0,1-1.07,1.07H3.09A1.08,1.08,0,0,1,2,34.83V2.75A1.08,1.08,0,0,1,3.09,1.68Z" transform="translate(-1.3 -0.96)"/><line class="cls-1" x1="7.19" y1="12.5" x2="7.19" y2="18.41"/><line class="cls-1" x1="4.24" y1="15.45" x2="10.14" y2="15.45"/><line class="cls-1" x1="22.01" y1="13.38" x2="17.84" y2="17.55"/><line class="cls-1" x1="5.1" y1="26.41" x2="9.27" y2="30.58"/><line class="cls-1" x1="5.1" y1="30.58" x2="9.27" y2="26.41"/><line class="cls-1" x1="0.85" y1="21.8" x2="26.52" y2="21.8"/><line class="cls-1" x1="13.68" y1="8.96" x2="13.68" y2="34.63"/><line class="cls-1" x1="17.21" y1="26.91" x2="23.11" y2="26.91"/><line class="cls-1" x1="17.21" y1="30.08" x2="23.11" y2="30.08"/><path class="cls-2" d="M18.65,13.65a.71.71,0,1,0,1,0,.71.71,0,0,0-1,0Z" transform="translate(-1.3 -0.96)"/><path class="cls-2" d="M23.06,18.06a.71.71,0,1,0,1,0,.71.71,0,0,0-1,0Z" transform="translate(-1.3 -0.96)"/><line class="cls-1" x1="0.85" y1="8.66" x2="26.52" y2="8.66"/></svg>