<svg id="Layer_1" data-name="Layer 1" xmlns="http://www.w3.org/2000/svg" viewBox="0 0 36.11 32.84"><defs><style>.cls-1,.cls-2{fill:none;stroke:#334d5e;stroke-width:1.44px;}.cls-1{stroke-linecap:round;stroke-linejoin:round;}.cls-2{stroke-miterlimit:22.93;}</style></defs><title>Handshake</title><path class="cls-1" d="M31.8,19.89,34,17.67c3.82-3.81,1.93-9-1.15-12.28A14.17,14.17,0,0,0,29.5,2.68c-1.56-.88-6.46-2.16-9.67,1l-6.65,6.62c-1.8,1.79,2.74,3.52,5,1.26l1.68-1.65c2.48-2.24,5.59,2.25,9.46-.81" transform="translate(-0.76 -0.94)"/><path class="cls-1" d="M5.91,18.84,3.69,16.63c-7.38-7.36,5.4-20,12.88-12.72l1.49,1.48" transform="translate(-0.76 -0.94)"/><path class="cls-1" d="M23.42,11.47l8.57,9c1.75,1.83-.85,5.32-3.09,3l-4-4.14" transform="translate(-0.76 -0.94)"/><path class="cls-1" d="M21.38,22.11l4.41,4.53c1.77,1.82,5.34-.87,3.1-3.18L24.58,19" transform="translate(-0.76 -0.94)"/><path class="cls-1" d="M20,27.12l2.2,2.22c1.78,1.8,5.25-.77,3-3.11" transform="translate(-0.76 -0.94)"/><path class="cls-2" d="M11.16,17l.24.24a2.06,2.06,0,0,1,0,2.9L8.35,23.2a2.06,2.06,0,0,1-2.9,0L5.21,23a2.06,2.06,0,0,1,0-2.9L8.26,17a2.06,2.06,0,0,1,2.9,0Z" transform="translate(-0.76 -0.94)"/><path class="cls-2" d="M16.29,18.41l.24.24a2.06,2.06,0,0,1,0,2.9L11.67,26.4a2.06,2.06,0,0,1-2.9,0l-.24-.24a2.06,2.06,0,0,1,0-2.9l4.86-4.86a2.05,2.05,0,0,1,2.9,0Z" transform="translate(-0.76 -0.94)"/><path class="cls-2" d="M18.28,23l.24.24a2.06,2.06,0,0,1,0,2.9l-3.33,3.33a2.06,2.06,0,0,1-2.9,0L12,29.18a2.06,2.06,0,0,1,0-2.9L15.38,23a2.05,2.05,0,0,1,2.9,0Z" transform="translate(-0.76 -0.94)"/><path class="cls-2" d="M20.42,27.29l.24.24a2.06,2.06,0,0,1,0,2.9l-2,2a2.06,2.06,0,0,1-2.9,0l-.24-.24a2.06,2.06,0,0,1,0-2.9l2-2a2.06,2.06,0,0,1,2.9,0Z" transform="translate(-0.76 -0.94)"/></svg>