<svg id="Layer_1" data-name="Layer 1" xmlns="http://www.w3.org/2000/svg" viewBox="0 0 34.84 30.76"><defs><style>.cls-1{fill:none;stroke:#fff;stroke-linecap:round;stroke-linejoin:round;stroke-width:1.44px;}</style></defs><title>Money_white</title><polygon class="cls-1" points="0.72 18.14 34.12 18.14 34.12 0.72 0.72 0.72 0.72 18.14 0.72 18.14"/><path class="cls-1" d="M21,18.46c2.35,0,4.25-2.54,4.25-5.67S23.37,7.12,21,7.12s-4.25,2.54-4.25,5.67,1.9,5.67,4.25,5.67Z" transform="translate(-3.6 -3.36)"/><path class="cls-1" d="M10.4,20.73a5.24,5.24,0,0,0-5.24-5.24" transform="translate(-3.6 -3.36)"/><path class="cls-1" d="M31.64,20.73a5.24,5.24,0,0,1,5.24-5.24" transform="translate(-3.6 -3.36)"/><path class="cls-1" d="M10.4,4.85a5.24,5.24,0,0,1-5.24,5.24" transform="translate(-3.6 -3.36)"/><path class="cls-1" d="M31.64,4.85a5.24,5.24,0,0,0,5.24,5.24" transform="translate(-3.6 -3.36)"/><path class="cls-1" d="M12.5,13.89a1.1,1.1,0,1,0-1.1-1.1,1.1,1.1,0,0,0,1.1,1.1Z" transform="translate(-3.6 -3.36)"/><path class="cls-1" d="M29.52,13.89a1.1,1.1,0,1,0-1.1-1.1,1.1,1.1,0,0,0,1.1,1.1Z" transform="translate(-3.6 -3.36)"/><line class="cls-1" x1="0.84" y1="22.2" x2="34" y2="22.2"/><line class="cls-1" x1="0.84" y1="26.12" x2="34" y2="26.12"/><line class="cls-1" x1="0.84" y1="30.04" x2="34" y2="30.04"/></svg>