<svg id="Layer_1" data-name="Layer 1" xmlns="http://www.w3.org/2000/svg" viewBox="0 0 14.4 16.85"><defs><style>.cls-1{fill:#fff;}</style></defs><title>Open demo_white</title><path id="_Path_" data-name="&lt;Path&gt;" class="cls-1" d="M9.88,3.4a.63.63,0,0,0,0,.47.52.52,0,0,0,.52.27c.73,0,1,.8,1,.83l.1.36a.24.24,0,0,0,.23.18h.07a.24.24,0,0,0,.17-.3l-.1-.36a1.57,1.57,0,0,0-1.43-1.18h-.09a1.19,1.19,0,0,1,.24-.49.24.24,0,0,0,0-.34c-.4-.31-1.15.34-1.56.75C7.57,4.94,6.78,4.7,6.76,4.69a.24.24,0,0,0-.18.45c.11,0,1.09.4,2.71-1.22a4.19,4.19,0,0,1,.59-.51" transform="translate(-1.76 -0.5)"/><path class="cls-1" d="M15.25,12.5l-4-1.36-.36-.7v-.32c.28-.12.82-.41.91-.92,0-.28.12-.68.19-1h0c.22,0,.44-.11.67-.41A1.62,1.62,0,0,0,13,6.5a.8.8,0,0,0-.32-.56.63.63,0,0,0-.2-.08c0-.08,0-.15.06-.23.05-.26.09-.67.09-.69v0C12.66,2.23,11.2.5,8.92.5S5.18,2.23,5.18,4.92a3.87,3.87,0,0,0,.1.8l0,.14a.54.54,0,0,0-.23.08.8.8,0,0,0-.32.56,1.62,1.62,0,0,0,.31,1.27c.22.29.44.42.66.41.05.29.13.61.21.93a1.64,1.64,0,0,0,.83,1v.2l0,.06-.41.81L2.65,12.5a1.39,1.39,0,0,0-.89,1.3v2.55a1,1,0,0,0,1,1H15.17a1,1,0,0,0,1-1V13.81a1.41,1.41,0,0,0-.91-1.31M9.1,14.12l.64,2.75H8l.64-2.75a.24.24,0,0,0,0-.15l-.42-1,.63-.64.7.68-.4.94a.24.24,0,0,0,0,.15m.88-1.3,0,0-.68-.66.95-.44a1.28,1.28,0,0,0,.56-.51l.28.55a.31.31,0,0,1,0,.39l-.86.89ZM6.41,9a9.84,9.84,0,0,1-.26-1.37A.24.24,0,0,0,5.9,7.4h0a.24.24,0,0,0-.23.24v0a.8.8,0,0,1-.2-.2,1.15,1.15,0,0,1-.22-.85.49.49,0,0,1,.1-.27c.07,0,.16.07.16.07a.24.24,0,0,0,.42-.22l-.18-.61a3.35,3.35,0,0,1-.08-.67C5.66,3.1,6.51,1,8.92,1s3.26,2.11,3.26,3.93c0,.07,0,.42-.08.63a5.8,5.8,0,0,1-.16.58.24.24,0,0,0,.1.28.25.25,0,0,0,.3,0,.11.11,0,0,1,.14,0,.49.49,0,0,1,.11.27,1.14,1.14,0,0,1-.22.85.86.86,0,0,1-.21.21.24.24,0,0,0-.47,0c-.1.33-.2.89-.3,1.44-.06.32-.57.55-.75.61a.24.24,0,0,0-.17.23v.71a.8.8,0,0,1-.45.59l-1.14.52L7.65,11.2a.8.8,0,0,1-.4-.41V9.95a.24.24,0,0,0-.18-.23A1.13,1.13,0,0,1,6.41,9m.48,2.13a1.28,1.28,0,0,0,.56.51l.95.44L7.52,13,6.6,12c-.08-.07-.12-.12,0-.36ZM2.24,16.35V13.8A.91.91,0,0,1,2.82,13l3.24-1.17a.62.62,0,0,0,.21.6l1.08,1.09a.24.24,0,0,0,.34,0l.13-.13.31.74-.65,2.78H2.76a.52.52,0,0,1-.51-.51m13.44,0a.52.52,0,0,1-.51.51H10.23l-.65-2.78.29-.7.13.13a.24.24,0,0,0,.17.07h0a.24.24,0,0,0,.17-.07l1-1.09,0,0a.81.81,0,0,0,.15-.65L15.09,13a.92.92,0,0,1,.59.86Z" transform="translate(-1.76 -0.5)"/></svg>