<svg id="Layer_1" data-name="Layer 1" xmlns="http://www.w3.org/2000/svg" xmlns:xlink="http://www.w3.org/1999/xlink" viewBox="0 0 43.97 62.84"><defs><style>.cls-1,.cls-2,.cls-3,.cls-5{fill:none;stroke:#fff;}.cls-1,.cls-3{stroke-miterlimit:10;}.cls-2,.cls-5{stroke-linecap:round;stroke-linejoin:round;}.cls-2,.cls-3{stroke-width:1.44px;}.cls-4{clip-path:url(#clip-path);}</style><clipPath id="clip-path" transform="translate(2.88 13.58)"><path class="cls-1" d="M16.68,19.82l5.19-15A15.94,15.94,0,1,0,32.1,16.15Z"/></clipPath></defs><title>Pie</title><path class="cls-2" d="M17.13,19.82l5.19-15a15.94,15.94,0,1,0,10.23,11.3Z" transform="translate(2.88 13.58)"/><path class="cls-3" d="M36.36,12.79A15.87,15.87,0,0,0,26.13,1.49l-5.19,15Z" transform="translate(2.88 13.58)"/><g class="cls-4"><line class="cls-5" x1="34.41" y1="0.5" x2="0.5" y2="34.41"/><line class="cls-5" x1="35.42" y1="6.84" x2="0.97" y2="41.29"/><line class="cls-5" x1="35.42" y1="14.18" x2="2.55" y2="47.05"/><line class="cls-5" x1="35.48" y1="21.48" x2="4.9" y2="52.06"/><line class="cls-5" x1="38.14" y1="26.16" x2="7.93" y2="56.38"/><line class="cls-5" x1="40.81" y1="30.84" x2="11.72" y2="59.93"/><line class="cls-5" x1="43.47" y1="35.52" x2="16.66" y2="62.34"/></g><path class="cls-1" d="M16.68,19.82l5.19-15A15.94,15.94,0,1,0,32.1,16.15Z" transform="translate(2.88 13.58)"/></svg>