<svg id="Layer_1" data-name="Layer 1" xmlns="http://www.w3.org/2000/svg" viewBox="0 0 34 34"><defs><style>.cls-1{fill:#181818;}</style></defs><title>Question_black</title><path class="cls-1" d="M17.12,9.2a5.44,5.44,0,0,0-3.6,1.32A4.2,4.2,0,0,0,11.83,14h2.94a1.87,1.87,0,0,1,.72-1.61A2.23,2.23,0,0,1,17,11.77a2,2,0,0,1,2.08,2,2.13,2.13,0,0,1-.56,1.5l-1.77,1.77A3.51,3.51,0,0,0,16,18.34c-.15.31,0,.79,0,1.44V21h2v-.83a2.36,2.36,0,0,1,.58-1.5c.11-.13.33-.29.52-.47l.72-.66.66-.62a10.34,10.34,0,0,0,.71-.83A3.69,3.69,0,0,0,22,13.66a4.12,4.12,0,0,0-1.36-3.29A5.19,5.19,0,0,0,17.12,9.2Z"/><path class="cls-1" d="M16.94,22.14a1.81,1.81,0,0,0-1.31.53A1.72,1.72,0,0,0,15.08,24a1.67,1.67,0,0,0,.56,1.26,1.87,1.87,0,0,0,1.32.52,1.81,1.81,0,0,0,1.31-.53A1.72,1.72,0,0,0,18.82,24a1.67,1.67,0,0,0-.56-1.26A1.86,1.86,0,0,0,16.94,22.14Z"/><path class="cls-1" d="M17,0A17,17,0,1,0,34,17,17,17,0,0,0,17,0Zm0,31A14,14,0,1,1,31,17,14,14,0,0,1,17,31Z"/></svg>