<svg id="Layer_1" data-name="Layer 1" xmlns="http://www.w3.org/2000/svg" viewBox="0 0 36.02 37.42"><defs><style>.cls-1,.cls-2{fill:none;stroke:#fff;stroke-linecap:round;stroke-linejoin:round;}.cls-1{stroke-width:1.44px;}.cls-2{stroke-width:1.44px;}</style></defs><title>Shturval</title><path class="cls-1" d="M18.45,6.27c.25-1.14-.34-2.57-.36-3.6,0-1.25,3-1.25,2.93,0,0,1-.61,2.46-.36,3.6m-1.11,4.58v4.43M9.75,10.79C9.12,9.81,7.69,9.21,7,8.5c-.9-.86,1.21-3,2.07-2.07.71.74,1.31,2.17,2.29,2.8m2.45,4L17,16.44M6.8,20.14c-1.14-.25-2.57.34-3.6.36-1.25,0-1.25-3,0-2.93,1,0,2.46.61,3.6.36M11.37,19h4.69m-4.75,9.81c-1,.63-1.58,2.06-2.29,2.8-.86.9-3-1.21-2.07-2.07.74-.71,2.17-1.31,2.8-2.29m4-2.45,2.3-2.3m13.29,4.75c.63,1,2.06,1.58,2.8,2.29.9.86-1.21,3-2.07,2.07-.71-.74-1.31-2.17-2.29-2.8m-2.45-4L23,22.52m9.27-4.6c1.14.25,2.57-.34,3.6-.36,1.25,0,1.25,3,0,2.93-1,0-2.46-.61-3.6-.36M27.74,19H23m4.75-9.81c1-.63,1.58-2.06,2.29-2.8.86-.9,3,1.21,2.07,2.07-.74.71-2.17,1.31-2.8,2.29m-4,2.45-3.19,3.19M16.07,27.15a8.84,8.84,0,1,1,7,0m-7,3.6a12.23,12.23,0,1,1,7,0" transform="translate(-1.55 -1.02)"/><path class="cls-2" d="M12.44,37.72H26.67m-10.6-.28V18.87a3.5,3.5,0,0,1,3.49-3.49h0A3.5,3.5,0,0,1,23,18.87V37.44" transform="translate(-1.55 -1.02)"/><path class="cls-1" d="M19.56,17.77A1.26,1.26,0,1,1,18.3,19a1.26,1.26,0,0,1,1.26-1.26Z" transform="translate(-1.55 -1.02)"/></svg>