<svg id="Layer_1" data-name="Layer 1" xmlns="http://www.w3.org/2000/svg" viewBox="0 0 34.45 34.11"><defs><style>.cls-1{fill:none;stroke:#218ed2;stroke-linecap:round;stroke-linejoin:round;stroke-width:1.44px;}</style></defs><title>Diamond_blue</title><polygon class="cls-1" points="4.06 15.94 17.26 33.39 30.43 15.94 4.06 15.94 4.06 15.94"/><polyline class="cls-1" points="13.41 15.94 12.8 15.94 16.94 31.5 17.22 32.74 17.24 32.65 17.27 32.74 17.55 31.5 21.69 15.94"/><polyline class="cls-1" points="4.06 15.72 6.99 10.27 27.91 10.27 30.43 15.72"/><path class="cls-1" d="M12.41,11.42l2.32,5.23c.43.48.26.48.69,0l2.32-5.23" transform="translate(-2.25 -1.15)"/><path class="cls-1" d="M21.23,11.42l2.32,5.23c.43.48.26.48.69,0l2.32-5.23" transform="translate(-2.25 -1.15)"/><line class="cls-1" x1="17.15" y1="0.72" x2="17.15" y2="4.83"/><line class="cls-1" x1="8.06" y1="2.3" x2="9.8" y2="6.03"/><line class="cls-1" x1="0.72" y1="7" x2="3.87" y2="9.64"/><line class="cls-1" x1="26.27" y1="2.13" x2="24.54" y2="5.85"/><line class="cls-1" x1="33.73" y1="6.69" x2="30.58" y2="9.33"/></svg>