<svg id="Layer_1" data-name="Layer 1" xmlns="http://www.w3.org/2000/svg" viewBox="0 0 36.11 32.84"><defs><style>.cls-1{fill:none;stroke:#218ed2;stroke-linecap:round;stroke-linejoin:round;stroke-width:1.44px;}</style></defs><title>Handshake_blue</title><path class="cls-1" d="M32.49,20.73l2.22-2.21c3.82-3.81,1.93-9-1.15-12.28a14.17,14.17,0,0,0-3.37-2.71c-1.56-.88-6.46-2.16-9.67,1L13.86,11.1c-1.8,1.79,2.74,3.52,5,1.26l1.68-1.65C23,8.46,26.15,13,30,9.9" transform="translate(-1.44 -1.78)"/><path class="cls-1" d="M6.59,19.68,4.38,17.47C-3,10.1,9.78-2.54,17.26,4.75l1.49,1.48" transform="translate(-1.44 -1.78)"/><path class="cls-1" d="M24.11,12.31l8.57,9c1.75,1.83-.85,5.32-3.09,3l-4-4.14" transform="translate(-1.44 -1.78)"/><path class="cls-1" d="M22.07,23l4.41,4.53c1.77,1.82,5.34-.87,3.1-3.18l-4.31-4.45" transform="translate(-1.44 -1.78)"/><path class="cls-1" d="M20.73,28l2.2,2.22c1.78,1.8,5.25-.77,3-3.11" transform="translate(-1.44 -1.78)"/><path class="cls-1" d="M11.85,17.86l.24.24a2.06,2.06,0,0,1,0,2.9L9,24a2.06,2.06,0,0,1-2.9,0l-.24-.24a2.06,2.06,0,0,1,0-2.9l3.05-3.05a2.06,2.06,0,0,1,2.9,0Z" transform="translate(-1.44 -1.78)"/><path class="cls-1" d="M17,19.25l.24.24a2.06,2.06,0,0,1,0,2.9l-4.86,4.86a2.06,2.06,0,0,1-2.9,0L9.22,27a2.06,2.06,0,0,1,0-2.9l4.86-4.86a2.05,2.05,0,0,1,2.9,0Z" transform="translate(-1.44 -1.78)"/><path class="cls-1" d="M19,23.79l.24.24a2.06,2.06,0,0,1,0,2.9l-3.33,3.33a2.06,2.06,0,0,1-2.9,0L12.74,30a2.06,2.06,0,0,1,0-2.9l3.33-3.33a2.05,2.05,0,0,1,2.9,0Z" transform="translate(-1.44 -1.78)"/><path class="cls-1" d="M21.11,28.13l.24.24a2.06,2.06,0,0,1,0,2.9l-2,2a2.06,2.06,0,0,1-2.9,0l-.24-.24a2.06,2.06,0,0,1,0-2.9l2-2a2.06,2.06,0,0,1,2.9,0Z" transform="translate(-1.44 -1.78)"/></svg>