<svg id="Layer_1" data-name="Layer 1" xmlns="http://www.w3.org/2000/svg" viewBox="0 0 29.84 36.2"><defs><style>.cls-1{fill:none;stroke:#218ed2;stroke-linecap:round;stroke-linejoin:round;stroke-width:1.44px;}</style></defs><title>TimeMoney_blue</title><line class="cls-1" x1="14.64" y1="14.88" x2="14.64" y2="16.98"/><line class="cls-1" x1="14.64" y1="26.13" x2="14.64" y2="28.23"/><path class="cls-1" d="M18.4,18.45a13.73,13.73,0,0,0-2.71-.72c-4.72-.53-5.32,4.22-.3,4.21s4.42,4.74-.31,4.2a13.76,13.76,0,0,1-2.71-.72" transform="translate(-0.71 -0.38)"/><path class="cls-1" d="M15.35,8A13.92,13.92,0,1,1,1.43,21.93,13.92,13.92,0,0,1,15.35,8Z" transform="translate(-0.71 -0.38)"/><line class="cls-1" x1="13.02" y1="7.63" x2="13.02" y2="4.48"/><line class="cls-1" x1="16.26" y1="4.48" x2="16.26" y2="7.63"/><polyline class="cls-1" points="23.58 10.58 27.08 7.08 29.12 9.12 25.61 12.62"/><path class="cls-1" d="M11.71,1.1H19a.63.63,0,0,1,.63.63V3.87A.63.63,0,0,1,19,4.5H11.71a.63.63,0,0,1-.63-.63V1.73a.63.63,0,0,1,.63-.63Z" transform="translate(-0.71 -0.38)"/><path class="cls-1" d="M15.35,10.86A11.07,11.07,0,1,1,4.28,21.93,11.07,11.07,0,0,1,15.35,10.86Z" transform="translate(-0.71 -0.38)"/></svg>