<svg id="Layer_1" data-name="Layer 1" xmlns="http://www.w3.org/2000/svg" viewBox="0 0 187.63 155.48"><defs><style>.cls-1{fill:#288ecd;}.cls-2{fill:none;stroke:#288ecd;stroke-miterlimit:10;stroke-width:3px;}</style></defs><title>Banner</title><path class="cls-1" d="M196.73,3.82H9.1V159.3H196.73ZM13.6,8.32H192.23V23.37H13.6ZM192.23,154.8H13.6V27.87H192.23Z" transform="translate(-9.1 -3.82)"/><path class="cls-1" d="M18,14.77a2.28,2.28,0,0,0-.66,1.59,2.23,2.23,0,0,0,2.25,2.25,2.25,2.25,0,0,0,2.25-2.25,2.28,2.28,0,0,0-.66-1.59,2.32,2.32,0,0,0-3.18,0" transform="translate(-9.1 -3.82)"/><path class="cls-1" d="M27.29,14.77a2.25,2.25,0,1,0,3.18,3.18,2.22,2.22,0,0,0,.66-1.59,2.28,2.28,0,0,0-.66-1.59,2.34,2.34,0,0,0-3.18,0" transform="translate(-9.1 -3.82)"/><path class="cls-1" d="M36.53,14.77a2.28,2.28,0,0,0-.66,1.59,2.22,2.22,0,0,0,.66,1.59,2.24,2.24,0,0,0,1.59.66,2.27,2.27,0,0,0,1.59-.66,2.22,2.22,0,0,0,.66-1.59,2.28,2.28,0,0,0-.66-1.59,2.34,2.34,0,0,0-3.18,0" transform="translate(-9.1 -3.82)"/><path class="cls-1" d="M182.68,14.12H51.49a2.25,2.25,0,0,0,0,4.5h131.2a2.25,2.25,0,0,0,0-4.5" transform="translate(-9.1 -3.82)"/><rect class="cls-2" x="18.54" y="37.18" width="45.03" height="100.33"/><rect class="cls-2" x="122.97" y="84.82" width="22.52" height="90.52" transform="translate(255.2 -7.97) rotate(90)"/><rect class="cls-2" x="79.87" y="37.18" width="45.03" height="62.3"/><rect class="cls-2" x="138.7" y="37.18" width="31.45" height="25.29"/><rect class="cls-2" x="138.7" y="74.19" width="31.45" height="25.29"/></svg>