<svg id="Layer_1" data-name="Layer 1" xmlns="http://www.w3.org/2000/svg" viewBox="0 0 70.33 78.71"><defs><style>.cls-1{fill:#fff;}</style></defs><title>Individual partner_white</title><path class="cls-1" d="M38,2a35.17,35.17,0,0,0-9.86,68.93l.14,0a.48.48,0,0,0,.13,0l-.32,2.23a.5.5,0,0,0,.23.49l11,7a.5.5,0,0,0,.54,0l11-7a.5.5,0,0,0,.22-.53l-.69-3h.06A35.08,35.08,0,0,0,65.9,58.4a.48.48,0,0,0,.25-.21.5.5,0,0,0,.06-.2A35.09,35.09,0,0,0,38,2ZM65.5,57.28l-7-3.78V43.29H71.55A34.36,34.36,0,0,1,65.5,57.28Zm-7-15V38.62H72l.13,0a33.77,33.77,0,0,1-.34,3.69Zm7.73-24.41L46.33,29.67l-7.6-7.3L58.5,9.83A34.45,34.45,0,0,1,66.19,17.88ZM41,35H35a2.81,2.81,0,0,1-2.79-2.37l-.54-3.32a.48.48,0,0,0-.08-.19L37.93,23l6.44,6.18a.48.48,0,0,0,0,.13l-.54,3.32A2.81,2.81,0,0,1,41,35ZM21.21,8H55.46a.49.49,0,0,0,.28-.09c.65.4,1.27.82,1.89,1.25L44.88,17.29H31.21a.49.49,0,0,0-.18,0L18.28,9.23q1.19-.84,2.45-1.59A.49.49,0,0,0,21.21,8ZM43.3,18.29,37.93,21.7l-5.37-3.41ZM54.16,7H21.8A34.11,34.11,0,0,1,54.16,7ZM17.41,9.87,37.12,22.37l-7.6,7.3L9.74,17.92A34.45,34.45,0,0,1,17.41,9.87Zm11,60.06A34.34,34.34,0,0,1,3.81,37.12,34,34,0,0,1,9.19,18.76l20.15,12a.49.49,0,0,0,.25.07.5.5,0,0,0,.35-.14l.78-.75.47,2.87a3.8,3.8,0,0,0,2.24,2.88L28.52,70A.49.49,0,0,0,28.4,69.93Zm11.18,9.64L29.11,72.92l5.3-37A3.85,3.85,0,0,0,35,36h6a3.86,3.86,0,0,0,.59-.05l8.44,37ZM50.16,69.05,42.54,35.64a3.8,3.8,0,0,0,2.22-2.87L45.22,30l.7.67a.5.5,0,0,0,.35.14.49.49,0,0,0,.25-.07l20.22-12a34,34,0,0,1,5.41,18.41c0,.18,0,.35,0,.53a.49.49,0,0,0-.16,0H58a.5.5,0,0,0-.5.5V53.79a.5.5,0,0,0,.26.44l7.17,3.85A34.07,34.07,0,0,1,50.16,69.05Z" transform="translate(-2.81 -1.96)"/><path class="cls-1" d="M18.42,39.28a3.27,3.27,0,0,1,3.26,3.26.5.5,0,1,0,1,0,4.27,4.27,0,0,0-4.26-4.26h-.57V36.46a.5.5,0,1,0-1,0v1.82h-.57A4.26,4.26,0,0,0,15,46.6l1.87.6v7.19h-.57A3.27,3.27,0,0,1,13,51.13a.5.5,0,1,0-1,0,4.27,4.27,0,0,0,4.26,4.26h.57v1.82a.5.5,0,1,0,1,0V55.39h.57a4.26,4.26,0,0,0,1.3-8.32l-1.87-.6V39.28Zm1,8.74a3.26,3.26,0,0,1-1,6.37h-.57V47.52Zm-2.57-1.87-1.56-.5a3.26,3.26,0,0,1,1-6.37h.57Z" transform="translate(-2.81 -1.96)"/><path class="cls-1" d="M39.55,69.24a.5.5,0,0,0,.7.13l5.43-3.73a.5.5,0,0,0-.57-.82l-5.43,3.73A.5.5,0,0,0,39.55,69.24Z" transform="translate(-2.81 -1.96)"/><path class="cls-1" d="M33.81,63.5a.5.5,0,0,0,.7.12l9.17-6.41a.5.5,0,0,0-.57-.82L33.93,62.8A.5.5,0,0,0,33.81,63.5Z" transform="translate(-2.81 -1.96)"/><path class="cls-1" d="M41.15,47.93,34.9,52.24a.5.5,0,1,0,.57.82l6.25-4.31a.5.5,0,0,0-.57-.82Z" transform="translate(-2.81 -1.96)"/><path class="cls-1" d="M36.54,42.32a.49.49,0,0,0,.28-.08l3-2a.5.5,0,0,0-.55-.83l-3,2a.5.5,0,0,0,.28.92Z" transform="translate(-2.81 -1.96)"/></svg>