<svg id="Layer_1" data-name="Layer 1" xmlns="http://www.w3.org/2000/svg" viewBox="0 0 74.75 79.82"><defs><style>.cls-1{fill:#fff;}</style></defs><title>Predstavitelstvo_white</title><path class="cls-1" d="M36.73,13.33a4.57,4.57,0,0,1,4.56,4.56.5.5,0,0,0,1,0,5.57,5.57,0,0,0-5.56-5.56h-.94V9.71a.5.5,0,1,0-1,0v2.62h-.94a5.56,5.56,0,0,0-1.69,10.86l2.64.84V34h-.94a4.57,4.57,0,0,1-4.56-4.56.5.5,0,1,0-1,0A5.57,5.57,0,0,0,33.85,35h.94v2.62a.5.5,0,1,0,1,0V35h.94a5.56,5.56,0,0,0,1.7-10.86l-2.64-.84v-10ZM34.79,23l-2.33-.75a4.56,4.56,0,0,1,1.39-8.91h.94Zm3.33,2.12A4.56,4.56,0,0,1,36.73,34h-.94V24.35Z" transform="translate(-0.13 -0.83)"/><path class="cls-1" d="M69.3,36.5A35,35,0,0,0,57.66,18.35a.5.5,0,0,0-.19-.1,22.83,22.83,0,0,0-44.36,0,.49.49,0,0,0-.19.1A35.17,35.17,0,1,0,70.46,45.48c0-.57,0-1.14,0-1.71h1.87a2.6,2.6,0,0,0,2-4.21A8.52,8.52,0,0,0,69.3,36.5ZM58.13,23.67a22.87,22.87,0,0,0-.33-3.86A33.91,33.91,0,0,1,68.21,36.35l-.48,0-1,0A5.74,5.74,0,0,0,61,31.06h-.66a5,5,0,0,0-2,.42,6,6,0,0,0-1.49-1.77A17.35,17.35,0,0,0,58.13,23.67ZM35.29,1.83A21.86,21.86,0,0,1,57.13,23.67,16.15,16.15,0,0,1,56,29.15a6,6,0,0,0-2.89-.75h-.24A18.16,18.16,0,1,0,35.29,41.83c.41,0,.82,0,1.23-.06a4.2,4.2,0,0,0-.29,1.51.5.5,0,0,0,.5.5h10.4A151.49,151.49,0,0,1,37,55.49a2.4,2.4,0,0,1-1.75.75h0a2.4,2.4,0,0,1-1.75-.75c-4.71-4.95-20.08-21.85-20.08-31.82A21.86,21.86,0,0,1,35.29,1.83ZM52.46,23.67a17.2,17.2,0,0,1-.67,4.75,6,6,0,0,0-5.67,6v1h-.19A5.54,5.54,0,0,0,41,38.59l-.21.45h-.31a4.22,4.22,0,0,0-3.39,1.72H37c-.57.06-1.15.09-1.73.09A17.17,17.17,0,1,1,52.46,23.67ZM1.13,45.48A34.06,34.06,0,0,1,12.8,19.79a22.87,22.87,0,0,0-.34,3.88c0,7.06,7,17.05,13.31,24.61a41.26,41.26,0,0,0-21,12.5A34,34,0,0,1,1.13,45.48ZM5.24,61.73a40.22,40.22,0,0,1,9.44-7.85l4.55,1.91a.51.51,0,0,0,.24,0l3.44-.29-.06,2.23-5.21.31a.5.5,0,0,0-.37.2l-1.83,2.5a.5.5,0,0,0,.13.72l4.17,2.67a.5.5,0,0,0,.57,0L24,61.28l3.45,2.22a.5.5,0,0,0,.59,0l4.58-3.73,4.22,3.81-1.93,1-4.75,1.42a.5.5,0,0,0-.36.44l-.3,3.88-2,.44-2.81-3.27a.52.52,0,0,0-.39-.17l-7.25.17a.5.5,0,0,0-.48.42l-.42,2.58a.5.5,0,0,0,.24.51l6.33,3.78,2.64,3.47A34.33,34.33,0,0,1,5.24,61.73ZM55.36,73.11a34.11,34.11,0,0,1-28.53,5.48.49.49,0,0,0-.09-.29L23.49,74a.51.51,0,0,0-.14-.13l-6.13-3.66.3-1.84,6.6-.15L27,71.57a.5.5,0,0,0,.49.16l2.67-.58a.5.5,0,0,0,.39-.45l.31-3.91,4.5-1.35L38,64.11a.5.5,0,0,0,.11-.82L33,58.71a.5.5,0,0,0-.65,0l-4.64,3.77-3.44-2.22a.5.5,0,0,0-.58,0L20,63.14l-3.42-2.19,1.38-1.88,5.43-.32a.5.5,0,0,0,.47-.49L23.92,55a.5.5,0,0,0-.16-.38.52.52,0,0,0-.38-.13l-3.88.32-3.74-1.57a39.92,39.92,0,0,1,9.15-3.73l.07.07,3.35,2.11a5,5,0,0,0,.7.37c1.54,1.74,2.64,2.93,3.77,4.11a3.39,3.39,0,0,0,2.48,1.06h0a3.39,3.39,0,0,0,2.48-1.06c1-1.05,2.19-2.33,3.47-3.76l.15.72-3.29,4.74a.5.5,0,0,0,.09.67l1.5,1.25a.52.52,0,0,0,.37.11l6.81-.64,5.25,6.78a.5.5,0,0,0,.36.19l3.93.31a15.93,15.93,0,0,1,.7,2.21c-.12.26-.48,1.1-1.71,4.15A.5.5,0,0,0,55.36,73.11ZM56.86,72c1-2.35,1.12-2.73,1.14-2.77.14-.21.31-.47-.78-3.29a.5.5,0,0,0-.43-.32l-4-.32-5.28-6.82a.51.51,0,0,0-.44-.19l-6.88.65-1-.82,3.15-4.54a.5.5,0,0,0,.08-.39l-.31-1.51a.48.48,0,0,0-.05-.13c.67-.76,1.35-1.54,2-2.36h0A39.7,39.7,0,0,1,65.32,61.78,34.4,34.4,0,0,1,56.86,72Zm8.94-11.13a40.68,40.68,0,0,0-21-12.54c1.19-1.43,2.4-2.94,3.6-4.51h21c0,.57,0,1.13,0,1.71A34,34,0,0,1,65.81,60.83Zm6.47-18.05h-35A3.24,3.24,0,0,1,40.47,40h2.16a.5.5,0,0,0,0-1l-.75,0a4.55,4.55,0,0,1,4-2.58,4.5,4.5,0,0,1,3,1l.73.59a.5.5,0,0,0,.63-.78l-.73-.59a5.56,5.56,0,0,0-2.41-1.11V34.42a5,5,0,0,1,5-5h.93A5,5,0,0,1,57.44,32a5.06,5.06,0,0,0-2.18,4.16.5.5,0,1,0,1,0,4.08,4.08,0,0,1,4.07-4.07H61a4.74,4.74,0,0,1,4.73,4.73.5.5,0,0,0,.49.5l1.49,0a7.54,7.54,0,0,1,5.82,2.87,1.6,1.6,0,0,1-1.25,2.59Z" transform="translate(-0.13 -0.83)"/><path class="cls-1" d="M38.25,76.56l-5.17-2.92a.5.5,0,0,0-.6.09l-2.67,2.75a.5.5,0,0,0,.17.81l5.42,2.17a.5.5,0,0,0,.5-.08l2.42-2a.5.5,0,0,0-.07-.82ZM35.5,78.42,31,76.64l1.88-1.94,4.2,2.37Z" transform="translate(-0.13 -0.83)"/><path class="cls-1" d="M6.82,44H9.44v2.63a.5.5,0,1,0,1,0V44h2.62a.5.5,0,0,0,0-1H10.44V40.4a.5.5,0,1,0-1,0V43H6.82a.5.5,0,0,0,0,1Z" transform="translate(-0.13 -0.83)"/></svg>