<svg id="Layer_1" data-name="Layer 1" xmlns="http://www.w3.org/2000/svg" viewBox="0 0 70.33 70.33"><defs><style>.cls-1{fill:#fff;}</style></defs><title>Predstavitelstvo v regionax</title><path class="cls-1" d="M37.5,4.53A35.17,35.17,0,1,0,72.67,39.7,35.21,35.21,0,0,0,37.5,4.53Zm22.89,9.83L53.6,21.15,53,20.58a.5.5,0,0,0-.71,0l-7.19,7.19a.5.5,0,0,0,0,.71L46.5,29.8l-8.08-.57a8.73,8.73,0,0,0-3.46.46l-6.22-.12,1.13-1.1a.5.5,0,0,0,0-.71l-7.19-7.19a.5.5,0,0,0-.71,0l-.36.36-6.78-6.78a34.09,34.09,0,0,1,45.55.2ZM51.45,58.75l-11-10.23-.28-.27a.5.5,0,0,0-.14-.09l0,0a.5.5,0,0,0-.51.84L51.33,60a2.78,2.78,0,0,1-.06,4,2.8,2.8,0,0,1-3.92-.07l-.76-.72c-.06-.07-.11-.15-.18-.22l-7.83-7.37a.5.5,0,0,0-.69.73l.14.13,0,0,7.85,7.43a2.75,2.75,0,0,1-.24,3.75,2.8,2.8,0,0,1-3.91-.06L40.11,66a.5.5,0,0,0-.71.7,2.78,2.78,0,0,1-.06,4,2.8,2.8,0,0,1-3.91-.06L35,70.16a3.77,3.77,0,0,0-3-6.39h0a3.77,3.77,0,0,0-2.77-6.35,3.81,3.81,0,0,0-1.09.18,3.8,3.8,0,0,0-1.06-3.71,3.71,3.71,0,0,0-4.53-.49,3.74,3.74,0,0,0-6.4-3l-.77.81L15.22,51a4.93,4.93,0,0,1-1.63-4l.18-2.68a.49.49,0,0,0,0-.21l14-13.58.1,0,5.15.1a8.84,8.84,0,0,0-1,.74l-9.4,8.5a3.79,3.79,0,0,0,5,5.72l6.54-5.91a2,2,0,0,1,2.49-.12A7.44,7.44,0,0,0,40,40.88a.48.48,0,0,0,.08.11L55.44,54.85a2.78,2.78,0,0,1-.07,4A2.8,2.8,0,0,1,51.45,58.75ZM15.2,52.87l1.7-1.79a2.75,2.75,0,0,1,4,.07,2.76,2.76,0,0,1,0,3.76l-1.69,1.88a2.84,2.84,0,0,1-3.92,0,2.78,2.78,0,0,1-.06-4ZM20,57.41l2.56-2.71a2.73,2.73,0,0,1,2-.86,2.8,2.8,0,0,1,2,4.69l-2.65,2.79a2.84,2.84,0,0,1-3.91.05,2.78,2.78,0,0,1,0-4ZM24.7,62l2.51-2.66a2.82,2.82,0,0,1,4-.1,2.76,2.76,0,0,1,.1,3.88L30,64.47a3.65,3.65,0,0,0-.55.48l-.69.83-.09.1a2.84,2.84,0,0,1-3.91.05,2.78,2.78,0,0,1,0-4Zm4.77,4.52h0l1.2-1.27a2.81,2.81,0,0,1,3.56,4.32l-.83.89a2.85,2.85,0,0,1-3.91.06,2.76,2.76,0,0,1-.86-2A2.8,2.8,0,0,1,29.47,66.48ZM22.33,21.64l6.47,6.47L11.37,45,5.11,38.86ZM41.5,40.91a7.44,7.44,0,0,0,4.66-2.19.5.5,0,1,0-.71-.7,6.44,6.44,0,0,1-8.29.75,3,3,0,0,0-3.72.19L26.9,44.86a2.79,2.79,0,0,1-3.64-4.22l9.4-8.5a7.81,7.81,0,0,1,5.68-1.91l9,.63a.45.45,0,0,0,.21,0L61.17,44,59,46.79a.49.49,0,0,0-.09.2A11.15,11.15,0,0,1,56,52.44l-.82.84Zm4.69-12.8,6.47-6.47L69.89,38.86,63.63,45ZM37.5,73.87a34.14,34.14,0,0,1-23.4-59l6.81,6.81L4,38.51a.5.5,0,0,0,0,.71l7,6.84a.5.5,0,0,0,.7,0l1-1-.12,1.83a5.93,5.93,0,0,0,2,4.83l.17.16-.24.25a3.77,3.77,0,0,0,3.8,6.26A3.74,3.74,0,0,0,23,63a3.74,3.74,0,0,0,4.75,4.55,3.77,3.77,0,0,0,6.36,3.58l.19-.2.39.4A3.78,3.78,0,0,0,41.2,68.7c0-.07,0-.14,0-.22a3.8,3.8,0,0,0,5.15-.09,3.51,3.51,0,0,0,1.13-3.13A3.76,3.76,0,0,0,52,64.73a3.76,3.76,0,0,0,.86-4.2,3.84,3.84,0,0,0,.61.06,3.79,3.79,0,0,0,2.63-1.05,3.78,3.78,0,0,0,.06-5.4l-.21-.19.79-.81a12.14,12.14,0,0,0,3.18-5.83l2-2.59,1.39,1.35a.5.5,0,0,0,.7,0l7-6.84a.5.5,0,0,0,0-.71L54.31,21.86,61.12,15A34.14,34.14,0,0,1,37.5,73.87Z" transform="translate(-2.33 -4.53)"/><path class="cls-1" d="M36.86,26.23a.5.5,0,0,0,.71,0l13.5-13.5a.5.5,0,0,0,0-.71L48.65,9.58a.51.51,0,0,0-.71,0L37.22,20.3l-7.55-7.55a.5.5,0,0,0-.71,0l-2.43,2.43a.5.5,0,0,0,0,.71ZM29.31,13.81l7.55,7.55a.5.5,0,0,0,.71,0L48.29,10.64,50,12.37l-12.8,12.8-9.63-9.63Z" transform="translate(-2.33 -4.53)"/></svg>