<svg id="Layer_1" data-name="Layer 1" xmlns="http://www.w3.org/2000/svg" viewBox="0 0 32.78 34.32"><defs><style>.cls-1{fill:none;stroke:#0a79bf;stroke-linecap:round;stroke-linejoin:round;stroke-width:1.44px;}</style></defs><title>Money bag</title><path class="cls-1" d="M19.91,8.12l1.92-4.63M18.09,8.07l-.37-2.52m1.89,9.22v2.1m0,9.16v2.1m3-10.16a13.72,13.72,0,0,0-2.71-.72c-4.72-.53-5.32,4.22-.3,4.21s4.42,4.74-.31,4.2a13.76,13.76,0,0,1-2.71-.72m5.6-17,.08,0c.56-1.07,2.34-3,2.85-4.62,1.68-5.17-7.46-.45-12.71-1.53-.51-.1,2.4,3.27,3.64,6.19m-.1.51h6.6c2.2,0,5.33,2.55,7.91,5.59,3.73,4.39,8.08,15.13,1,18.66-2.48,1.24-6.35,1-11.91,1-5.93,0-9.8.25-12.19-1.09C1,28.91,4.73,18.08,8.4,13.68,10.81,10.8,13.77,8.39,16,8.39Z" transform="translate(-3.22 -0.03)"/></svg>