<svg id="Layer_1" data-name="Layer 1" xmlns="http://www.w3.org/2000/svg" viewBox="0 0 36.02 34.67"><defs><style>.cls-1{fill:none;stroke:#0a79bf;stroke-linecap:round;stroke-linejoin:round;stroke-width:1.44px;}</style></defs><title>Winner cup</title><path class="cls-1" d="M8.53,1.41H29.47V17.56c0,5.1-4.72,9.29-10.47,9.29h0c-5.75,0-10.47-4.18-10.47-9.29V1.41Z" transform="translate(-0.99 -0.69)"/><line class="cls-1" x1="18.01" y1="26.16" x2="18.01" y2="33.46"/><line class="cls-1" x1="8.46" y1="33.95" x2="27.57" y2="33.95"/><path class="cls-1" d="M8.29,4H1.71a13.58,13.58,0,0,0,6.58,7.8" transform="translate(-0.99 -0.69)"/><path class="cls-1" d="M29.71,4h6.58a13.58,13.58,0,0,1-6.58,7.8" transform="translate(-0.99 -0.69)"/><polygon class="cls-1" points="18.01 4.88 19.96 9.51 24.8 9.82 21.01 13.11 22.21 17.81 17.91 15.21 13.81 17.81 14.95 12.92 11.22 9.82 16.22 9.39 18.01 4.88 18.01 4.88"/></svg>