<svg id="Layer_1" data-name="Layer 1" xmlns="http://www.w3.org/2000/svg" viewBox="0 0 16.57 13.93"><defs><style>.cls-1{fill:#288ecd;}</style></defs><title>Education</title><g id="_Group_" data-name="&lt;Group&gt;"><path id="_Compound_Path_" data-name="&lt;Compound Path&gt;" class="cls-1" d="M16.62.29H1.32A.63.63,0,0,0,.68.93V11.81a.63.63,0,0,0,.63.63H6.63V13a.29.29,0,0,1,0,.2.2.2,0,0,1-.16.05H5.23v.94h7.48v-.94H7a.54.54,0,0,1-.06.12A.54.54,0,0,0,7,13.29H7A.72.72,0,0,0,7,13v-.55h4V13a.72.72,0,0,0,0,.29h.52a.2.2,0,0,1-.16-.05.29.29,0,0,1,0-.2v-.6h5.31a.63.63,0,0,0,.63-.63V.93A.63.63,0,0,0,16.62.29ZM11.5,13.64h.85v.23H5.58v-.23H11.5Zm5.39-1.83a.28.28,0,0,1-.28.28h-10v.35h0v-.35H1.32A.28.28,0,0,1,1,11.81V.93A.28.28,0,0,1,1.32.65h15.3a.28.28,0,0,1,.28.28Z" transform="translate(-0.68 -0.29)"/><path id="_Compound_Path_2" data-name="&lt;Compound Path&gt;" class="cls-1" d="M1.42,10.79h15.1V1H1.42Zm.35-9.4H16.16v9.05H1.77Z" transform="translate(-0.68 -0.29)"/><path id="_Compound_Path_3" data-name="&lt;Compound Path&gt;" class="cls-1" d="M11.64,4.3,13,7.87l.73-1.26L15,7.84l.25-.25L14,6.36l1.24-.73Zm1.42,2.75L12.25,4.9l2.14.8-.84.5Zm.7-.8-.19.19h0Zm0,.36h0l.09-.16.06,0-.06,0Z" transform="translate(-0.68 -0.29)"/><path id="_Compound_Path_4" data-name="&lt;Compound Path&gt;" class="cls-1" d="M2.44,5.69h8.09V2.12H2.44ZM2.8,2.47h7.38V5.33H2.8Z" transform="translate(-0.68 -0.29)"/><polygon id="_Path_" data-name="&lt;Path&gt;" class="cls-1" points="2.66 3.44 3.16 3.44 3.16 3.09 3.01 3.09 3.01 2.84 3.58 2.84 3.58 4.37 3.33 4.37 3.33 4.72 4.14 4.72 4.14 4.37 3.93 4.37 3.93 4.55 3.93 4.55 3.93 4.37 3.93 2.84 4.5 2.84 4.5 3.09 4.32 3.09 4.32 3.44 4.86 3.44 4.86 2.49 2.66 2.49 2.66 3.44"/><rect id="_Path_2" data-name="&lt;Path&gt;" class="cls-1" x="6.05" y="3" width="2.74" height="0.35"/><rect id="_Path_3" data-name="&lt;Path&gt;" class="cls-1" x="6.05" y="3.95" width="2.74" height="0.35"/><path id="_Compound_Path_5" data-name="&lt;Compound Path&gt;" class="cls-1" d="M2.44,9.86h8.09V6.29H2.44ZM2.8,6.64h7.38V9.5H2.8Z" transform="translate(-0.68 -0.29)"/><path id="_Compound_Path_6" data-name="&lt;Compound Path&gt;" class="cls-1" d="M5.76,9,8,8.06l-2.19-1Zm.35-1.42,1,.44-1,.44Z" transform="translate(-0.68 -0.29)"/></g></svg>