<svg id="Layer_1" data-name="Layer 1" xmlns="http://www.w3.org/2000/svg" viewBox="0 0 29.96 29.86"><defs><style>.cls-1{fill:#434440;}.cls-2{fill:#08743b;}</style></defs><title>Excel</title><path class="cls-1" d="M28.7,7.51,23.24,1.17,22.16-.08H9.26A3.13,3.13,0,0,0,6.13,3.05V7H8.07V3.82A1.76,1.76,0,0,1,9.83,2.05h11V7.27a3.52,3.52,0,0,0,3.52,3.52H28.2L28,25.88a1.77,1.77,0,0,1-1.76,1.76H9.69a1.8,1.8,0,0,1-1.6-1.94V24.41H6.14v1.9c0,1.91,1.28,3.47,2.86,3.47H26.82A3.14,3.14,0,0,0,30,26.64V9L28.7,7.51" transform="translate(0 0.08)"/><path class="cls-2" d="M20.22,25.38H0V6.07H20.22V25.38M1.94,23.44H18.28V8H1.94" transform="translate(0 0.08)"/><polyline class="cls-2" points="15.73 20.9 12.32 20.9 10 17.62 7.56 20.9 4.14 20.9 8.38 15.57 4.96 10.9 8.41 10.9 10.02 13.44 11.73 10.9 15.24 10.9 11.65 15.57 15.73 20.9"/></svg>