<svg id="Layer_1" data-name="Layer 1" xmlns="http://www.w3.org/2000/svg" viewBox="0 0 61 61"><defs><style>.cls-1{fill:#ff4830;}</style></defs><title>Info</title><path class="cls-1" d="M31.5,62A30.5,30.5,0,1,0,1,31.5,30.54,30.54,0,0,0,31.5,62Zm0-59.51a29,29,0,1,1-29,29A29,29,0,0,1,31.5,2.49Z" transform="translate(-1 -1)"/><path class="cls-1" d="M31.5,25.8a.76.76,0,0,0-.74.74V43.9a.74.74,0,0,0,1.49,0V26.54A.76.76,0,0,0,31.5,25.8Z" transform="translate(-1 -1)"/><path class="cls-1" d="M31.5,23.81a3.22,3.22,0,1,0-3.22-3.22A3.22,3.22,0,0,0,31.5,23.81Zm0-5a1.74,1.74,0,1,1-1.74,1.74A1.76,1.76,0,0,1,31.5,18.85Z" transform="translate(-1 -1)"/></svg>