<svg id="Layer_1" data-name="Layer 1" xmlns="http://www.w3.org/2000/svg" xmlns:xlink="http://www.w3.org/1999/xlink" viewBox="0 0 183.56 173.31"><defs><style>.cls-1{fill:none;}.cls-2{clip-path:url(#clip-path);}.cls-3{fill:#fff;}</style><clipPath id="clip-path" transform="translate(-11.65 -10.67)"><rect class="cls-1" x="-46.57" y="-52.67" width="300" height="300"/></clipPath></defs><title>Referal link_white</title><g class="cls-2"><g class="cls-2"><path class="cls-3" d="M154,101.66a41.18,41.18,0,0,0-35.41,20.2l-13-13V92.91l.6,0,.72-.06c.85-.07,1.7-.16,2.54-.29l.22,0c.87-.13,1.74-.31,2.6-.49l.82-.19c.75-.18,1.49-.38,2.22-.6L116,91c.69-.22,1.38-.47,2.06-.73l.91-.36c.72-.29,1.42-.6,2.12-.94l.82-.41c.36-.18.71-.38,1.07-.57v.32l3.76-2.6,1-.72v0h0l.43-.32q.58-.44,1.15-.91l.49-.41a41.15,41.15,0,0,0,3.82-3.65l.2-.21c.34-.37.67-.76,1-1.14l.47-.56q.43-.54.85-1.08l.55-.74c.24-.33.48-.66.72-1q.51-.76,1-1.54l.4-.67c.3-.52.6-1,.89-1.57l.3-.58c.26-.52.52-1,.76-1.56l.24-.52c.27-.6.52-1.21.76-1.82l.12-.29a40.92,40.92,0,0,0,1.44-4.61l0-.11c.18-.71.33-1.43.47-2.15l.09-.5q.16-.9.28-1.8c0-.21.06-.43.08-.64.07-.58.12-1.17.16-1.76,0-.21,0-.42,0-.63,0-.78.07-1.57.07-2.36a41.16,41.16,0,0,0-82.33,0c0,.79,0,1.58.07,2.36,0,.21,0,.42,0,.63,0,.59.1,1.17.16,1.76,0,.22.05.43.08.64q.12.9.28,1.8l.09.5q.21,1.08.47,2.15l0,.11a41,41,0,0,0,1.44,4.61l.12.3q.36.92.76,1.82L66,69c.24.52.5,1,.76,1.55l.3.59c.28.53.58,1,.88,1.56l.41.69q.47.77,1,1.52c.23.34.47.67.71,1l.55.74q.42.55.85,1.08l.46.56c.33.39.65.77,1,1.14l.21.22A41.22,41.22,0,0,0,77,83.32l.5.42q.57.46,1.15.9L79,85h0v0l1,.72,3.76,2.6V88c.35.19.7.39,1.06.57l.83.42c.69.33,1.4.64,2.11.93l.92.36q1,.39,2,.72l.73.23c.73.22,1.47.42,2.21.6l.82.19c.86.19,1.72.36,2.59.49l.23,0c.84.12,1.68.21,2.53.29l.72.06h.15v16.53L88.55,121.68h0l0,0c-.1-.17-.21-.32-.3-.49-.23-.38-.47-.76-.71-1.14s-.37-.6-.57-.89q-.61-.9-1.26-1.75c-.19-.26-.4-.51-.6-.76-.32-.41-.65-.81-1-1.2l-.54-.63A41.18,41.18,0,0,0,80,111.33l-.09-.08a41.41,41.41,0,0,0-21.52-9.84l-.33,0c-.71-.09-1.44-.16-2.16-.22l-.57,0c-.84-.05-1.69-.09-2.54-.09a41.21,41.21,0,0,0-41.16,41.16c0,.79,0,1.58.07,2.36,0,.21,0,.42,0,.63,0,.59.09,1.17.16,1.76,0,.21.05.43.08.64q.12.91.28,1.8l.09.5q.21,1.08.47,2.15l0,.1a41.14,41.14,0,0,0,1.44,4.61l.12.29q.36.92.76,1.82l.24.52c.24.52.49,1,.76,1.55l.3.59c.28.52.57,1,.88,1.55l.44.73q.46.75,1,1.49c.23.35.48.68.73,1L20,167q.42.56.87,1.1l.44.53c.33.39.67.79,1,1.17l.15.16a41.27,41.27,0,0,0,3.9,3.73l.43.36q.6.49,1.21,1l.4.3h0v0l1,.72,3.76,2.6v-.32l1,.54,1,.48c.66.32,1.34.61,2,.89l.95.38c.66.25,1.33.49,2,.71l.78.24q1.08.33,2.18.59l.83.19c.86.19,1.72.36,2.59.49l.23,0c.84.12,1.68.22,2.53.29l.72.06c.92.06,1.85.1,2.78.1s1.86,0,2.78-.1l.72-.06c.85-.07,1.69-.16,2.53-.28l.24,0c.87-.13,1.73-.31,2.58-.49l.84-.19q1.09-.26,2.17-.59l.8-.25q1-.32,2-.7l1-.38q1-.41,2-.88l1-.49,1-.54v.32l3.76-2.6,1-.72v0h0l.41-.3q.61-.46,1.2-.94l.44-.36a41.28,41.28,0,0,0,3.9-3.73l.14-.15c.35-.38.68-.78,1-1.17l.44-.53q.44-.55.87-1.1l.53-.72c.25-.34.5-.68.73-1s.64-1,.95-1.46l.45-.76c.3-.51.59-1,.87-1.54l.3-.59c.26-.51.52-1,.76-1.55l.24-.53q.4-.9.76-1.82l.11-.29a41.11,41.11,0,0,0,1.44-4.6l0-.11c.17-.71.33-1.42.46-2.14l.09-.5q.16-.9.28-1.8c0-.21.06-.43.08-.64.07-.58.12-1.17.16-1.76,0-.21,0-.42,0-.63,0-.78.07-1.57.07-2.36s0-1.41-.05-2.1c0-.07,0-.15,0-.22a40.7,40.7,0,0,0-3.13-13.6l0,0,12.71-12.71,12.83,12.83a40.91,40.91,0,0,0-3.45,16.48c0,.79,0,1.58.07,2.36,0,.21,0,.42,0,.63,0,.59.09,1.17.16,1.75,0,.21.05.43.08.64q.12.91.28,1.8c0,.17.06.33.09.5.14.72.29,1.44.47,2.15l0,.11a41.13,41.13,0,0,0,1.44,4.61l.12.29c.24.61.49,1.22.76,1.82l.24.52c.24.52.49,1,.76,1.55l.3.59c.28.53.58,1,.88,1.55l.44.73q.47.75,1,1.49c.23.35.48.68.73,1l.53.72q.42.56.86,1.1l.45.53c.33.39.67.79,1,1.17l.15.16a41.15,41.15,0,0,0,3.9,3.73l.43.36q.59.49,1.21.95l.41.3h0v0l1,.72,3.76,2.6V179l1,.54,1,.48c.66.32,1.33.61,2,.89l.95.38q1,.38,2,.71l.78.24q1.08.33,2.18.59l.83.19c.86.19,1.72.36,2.59.49l.23,0c.84.12,1.68.22,2.53.29l.72.06c.92.06,1.85.1,2.78.1s1.86,0,2.78-.1l.72-.06c.85-.07,1.69-.16,2.53-.29l.24,0c.87-.13,1.73-.3,2.58-.49l.84-.19q1.09-.26,2.17-.59l.81-.25q1-.32,2-.7l1-.38c.67-.28,1.33-.57,2-.88l1-.49,1-.54v.32l3.76-2.6,1-.72v0h0l.41-.3q.61-.46,1.21-.95l.43-.36a41.27,41.27,0,0,0,3.9-3.73l.15-.16c.35-.38.68-.77,1-1.17l.44-.53q.44-.54.87-1.1l.53-.72c.25-.34.49-.68.73-1s.65-1,1-1.49l.44-.73c.3-.51.6-1,.88-1.55l.3-.59c.26-.51.52-1,.76-1.55l.24-.52q.4-.9.76-1.82l.12-.29a40.92,40.92,0,0,0,1.44-4.61l0-.11c.18-.71.33-1.43.47-2.15l.09-.5q.16-.9.28-1.8c0-.21.06-.43.08-.64.07-.58.12-1.17.16-1.75,0-.21,0-.42,0-.63,0-.78.07-1.57.07-2.36A41.21,41.21,0,0,0,154,101.66M75.39,75v0c-.31-.38-.61-.77-.91-1.16l-.23-.31c-.25-.33-.48-.67-.72-1l-.36-.53c-.19-.29-.38-.58-.56-.88l-.45-.73-.43-.75q-.26-.46-.51-.93L70.89,68q-.28-.56-.54-1.12l-.22-.49q-.28-.65-.54-1.31l-.14-.36q-.28-.73-.52-1.47L68.84,63c-.17-.53-.33-1.07-.48-1.61l0-.17c-.15-.56-.28-1.12-.41-1.69l0-.14c-.12-.57-.23-1.15-.32-1.73l0-.14c-.09-.56-.16-1.12-.23-1.69,0-.07,0-.14,0-.2-.06-.54-.1-1.09-.13-1.63,0-.09,0-.18,0-.27q-.05-1-.05-1.91a36.36,36.36,0,0,1,72.72,0q0,1-.05,1.91c0,.09,0,.18,0,.27,0,.55-.07,1.1-.13,1.64,0,.06,0,.13,0,.19-.06.57-.14,1.14-.23,1.7l0,.12c-.1.58-.2,1.17-.33,1.74l0,.12q-.19.86-.41,1.71l0,.15q-.23.82-.49,1.63l-.08.23q-.25.76-.53,1.5l-.13.33q-.27.68-.56,1.34l-.21.46c-.18.39-.36.77-.55,1.16l-.3.59c-.17.32-.34.64-.52,1l-.41.72-.47.76c-.18.28-.36.57-.54.85l-.39.56c-.23.33-.45.65-.69,1l-.27.35c-.29.38-.58.75-.88,1.11l-.06.07a36.22,36.22,0,0,1-3.61,3.79h0V74.16c0-.67,0-1.3-.09-1.92,0-.17,0-.34-.05-.52q-.08-.72-.2-1.39c0-.13,0-.26-.07-.39q-.17-.82-.41-1.58c0-.11-.07-.21-.11-.32q-.2-.6-.44-1.16l-.18-.39c-.2-.42-.4-.82-.63-1.2l-.05-.09a13.25,13.25,0,0,0-.8-1.16l-.24-.3q-.34-.42-.71-.81l-.23-.25c-.32-.32-.64-.62-1-.9l-.2-.16c-.28-.23-.58-.45-.88-.65l-.32-.22c-.32-.21-.66-.41-1-.6l-.15-.09c-.39-.21-.78-.41-1.18-.59l-.33-.14-1-.39-.32-.12c-.41-.15-.83-.29-1.25-.41l-.2-.05-1.1-.3L114.4,58l-1.11-.24-.17,0-1.28-.22-.09,0,.25-.19c.33-.24.65-.49,1-.75l.41-.37q.4-.37.77-.76l.37-.41c.25-.29.49-.6.72-.91l.27-.36a14.57,14.57,0,0,0,.84-1.37l.11-.22q.31-.61.57-1.24c.07-.16.12-.34.18-.5q.19-.52.34-1.06c.05-.19.1-.38.15-.57.09-.37.16-.75.21-1.13,0-.17.06-.35.08-.52a14.66,14.66,0,1,0-29.11,0c0,.17.05.35.08.52.06.38.13.76.22,1.13,0,.19.09.38.15.57.1.36.21.71.34,1.06.06.17.12.34.19.51.17.42.36.83.57,1.23l.11.23a14.61,14.61,0,0,0,.84,1.36l.28.37c.23.31.46.61.71.9l.38.42q.37.39.76.75l.41.37c.3.26.62.51.94.74l.26.2-.09,0-1.28.21-.18,0L92.45,58l-.36.09L91,58.35l-.21.06c-.42.13-.83.26-1.24.41l-.33.12-1,.39-.33.14c-.4.18-.8.38-1.18.59l-.15.09q-.5.28-1,.6l-.32.22q-.45.31-.88.65l-.21.16c-.34.28-.67.58-1,.9l-.23.25q-.36.39-.7.8l-.24.3a13.38,13.38,0,0,0-.8,1.16l-.05.09c-.23.38-.44.78-.63,1.2l-.18.39q-.24.56-.44,1.16c0,.11-.08.21-.11.32q-.24.76-.41,1.58c0,.13,0,.26-.07.39q-.12.67-.2,1.39c0,.17,0,.34-.05.52-.05.62-.09,1.25-.09,1.92v4.63A36.46,36.46,0,0,1,75.39,75m28-19.69a9.86,9.86,0,1,1,9.86-9.86,9.87,9.87,0,0,1-9.86,9.86m-3,32.79q-.9-.07-1.79-.19l-.57-.07q-1.09-.16-2.16-.39l-.7-.16q-.76-.18-1.51-.38l-.82-.23c-.66-.2-1.31-.41-2-.65l-.76-.3c-.44-.17-.87-.35-1.3-.54l-.9-.41c-.45-.21-.9-.44-1.34-.67l-1.12-.61c-.41-.23-.82-.48-1.22-.73l-.44-.26V74.16c0-8.79,5.67-12.37,19.59-12.37S123,65.37,123,74.16v8.3l-.41.24c-.44.27-.88.53-1.33.79l-1,.53q-.71.38-1.44.72l-.87.39c-.44.2-.9.38-1.35.56l-.72.28c-.65.24-1.3.45-2,.65l-.8.23q-.76.21-1.52.39l-.69.16q-1.08.23-2.17.39l-.57.07c-.59.08-1.19.14-1.79.19l-.66.05c-.77,0-1.55.08-2.33.08s-1.55,0-2.33-.08l-.66-.05M72,173.07c-.4.25-.82.49-1.23.73l-1.11.61c-.45.23-.9.46-1.36.68l-.9.41c-.43.19-.87.37-1.31.54l-.75.3c-.64.24-1.3.45-2,.65l-.81.23q-.75.21-1.51.38l-.7.16c-.71.15-1.44.28-2.16.39l-.57.07q-.89.12-1.79.19l-.66.05c-.77,0-1.54.08-2.33.08s-1.56,0-2.33-.08l-.66-.05q-.9-.07-1.79-.19l-.57-.07c-.73-.11-1.45-.24-2.17-.39l-.69-.16q-.77-.18-1.52-.39l-.8-.23c-.66-.2-1.32-.41-2-.65l-.73-.29c-.45-.18-.89-.36-1.33-.55l-.89-.4c-.46-.22-.92-.45-1.37-.68l-1.1-.6c-.42-.24-.83-.48-1.23-.73l-.44-.26v-8.31c0-8.79,5.67-12.37,19.59-12.37s19.59,3.58,19.59,12.37v8.31l-.44.26M52.81,145.61a9.86,9.86,0,1,1,9.86-9.86,9.87,9.87,0,0,1-9.86,9.86m36.31-1.52c0,.09,0,.18,0,.27,0,.55-.07,1.1-.13,1.64,0,.06,0,.13,0,.19q-.09.86-.23,1.71l0,.11q-.14.89-.33,1.76l0,.11q-.19.87-.42,1.72l0,.14q-.23.83-.49,1.64l-.08.22c-.17.51-.35,1-.54,1.51l-.13.32c-.18.46-.36.91-.56,1.35l-.2.45c-.18.39-.36.78-.56,1.16L85,159q-.25.49-.52,1l-.41.72-.47.76-.55.85-.38.56c-.23.33-.46.66-.7,1l-.26.33c-.29.38-.58.76-.89,1.13l0,0a36.55,36.55,0,0,1-3.63,3.81v-4.63c0-.67,0-1.3-.09-1.92,0-.18,0-.35-.05-.52q-.08-.72-.2-1.39c0-.13,0-.27-.07-.39q-.17-.82-.41-1.58l-.11-.32q-.2-.6-.44-1.16l-.17-.39c-.2-.42-.4-.82-.63-1.2l-.05-.09a13.21,13.21,0,0,0-.8-1.16l-.24-.3c-.22-.28-.46-.55-.7-.8L73,153q-.47-.48-1-.9l-.21-.16q-.43-.34-.88-.65l-.32-.22c-.32-.21-.65-.41-1-.6l-.15-.09c-.39-.21-.78-.41-1.18-.59l-.33-.15-1-.39-.33-.12q-.61-.22-1.24-.41l-.21-.06-1.08-.29-.36-.09-1.09-.23-.18,0-1.28-.21-.09,0,.26-.2c.32-.24.64-.48.95-.74l.41-.37q.39-.36.76-.75l.38-.42c.25-.29.48-.59.71-.9l.27-.37a14.82,14.82,0,0,0,.84-1.36l.11-.23c.21-.4.4-.81.57-1.23.07-.17.12-.34.18-.51q.19-.52.34-1.06.08-.28.15-.57c.09-.37.16-.75.21-1.13,0-.17.06-.34.08-.52a14.66,14.66,0,1,0-29.21-1.69,14.56,14.56,0,0,0,.11,1.69c0,.18.05.35.08.52.06.38.13.76.22,1.13q.07.28.15.57c.1.36.21.71.34,1.06.06.17.12.34.19.5.17.43.36.84.57,1.24l.11.22a14.57,14.57,0,0,0,.84,1.37c.08.12.18.24.27.36.23.31.47.62.72.91l.38.41q.37.39.77.76l.41.37c.31.26.63.51,1,.75l.25.19H44.4l-1.28.22-.17,0-1.11.24-.35.09-1.1.29-.2.06c-.42.13-.83.27-1.25.41l-.32.12-1,.39-.33.14c-.4.18-.8.38-1.19.59l-.15.09c-.34.19-.67.39-1,.6l-.32.22q-.45.31-.88.66l-.2.16c-.34.28-.67.59-1,.9l-.23.25q-.37.39-.7.81l-.24.3a13.38,13.38,0,0,0-.8,1.16l-.05.09c-.23.38-.44.78-.63,1.2l-.17.39q-.24.56-.44,1.16l-.11.32q-.24.76-.41,1.58c0,.13,0,.26-.07.39q-.12.67-.2,1.39c0,.17,0,.34-.05.52-.05.62-.09,1.25-.09,1.92v4.63a36.49,36.49,0,0,1-3.65-3.84h0c-.31-.38-.61-.76-.91-1.15l-.24-.31c-.24-.33-.48-.66-.71-1l-.37-.54q-.28-.43-.56-.87l-.46-.75-.42-.73q-.27-.47-.52-1l-.31-.6q-.28-.57-.55-1.15l-.21-.47q-.29-.66-.55-1.34l-.13-.34q-.28-.74-.53-1.5l-.08-.23q-.26-.81-.48-1.63l0-.15q-.23-.85-.41-1.71l0-.12q-.18-.87-.33-1.74l0-.12c-.09-.56-.16-1.13-.23-1.7,0-.06,0-.13,0-.19-.06-.54-.1-1.09-.13-1.64,0-.09,0-.18,0-.27q-.05-1-.05-1.91a36.4,36.4,0,0,1,36.36-36.36c.8,0,1.6,0,2.39.09l.5,0a36.56,36.56,0,0,1,22.5,10.25l.1.1q.83.82,1.6,1.68l.38.44c.37.42.72.86,1.07,1.3l.46.59q.62.82,1.19,1.67c.16.24.31.49.47.73q.38.6.74,1.22c.15.26.3.51.45.77.33.61.65,1.22,1,1.85l.1.2h0c.11.24.21.48.31.72s.24.53.35.8.25.62.37.94.2.54.3.81.23.66.34,1l.24.76c.11.35.21.71.3,1.06s.12.48.18.72.18.74.26,1.11.09.48.14.72.14.75.2,1.12.07.53.11.8.1.71.14,1.07.06.68.08,1,.05.57.07.86c0,.64.05,1.28.05,1.93s0,1.28-.05,1.91m84.07,29.62c-.4.25-.81.49-1.22.72l-1.12.61c-.45.23-.89.46-1.35.68l-.9.41c-.43.19-.87.37-1.31.54l-.75.3c-.64.24-1.3.45-2,.65l-.81.23q-.75.21-1.51.38l-.7.16q-1.07.23-2.16.39l-.57.07q-.89.12-1.79.19l-.66.05c-.77,0-1.54.08-2.33.08s-1.56,0-2.33-.08l-.66-.05q-.9-.07-1.79-.19l-.57-.07q-1.09-.16-2.17-.39l-.69-.16q-.77-.18-1.52-.39l-.81-.23c-.66-.2-1.32-.41-2-.65l-.74-.29c-.45-.17-.89-.36-1.33-.55l-.89-.4c-.46-.22-.92-.45-1.37-.68l-1.1-.6c-.42-.24-.83-.48-1.23-.73l-.44-.26v-8.31c0-8.79,5.67-12.37,19.59-12.37s19.59,3.58,19.59,12.37v8.31l-.44.26M154,146.26a9.86,9.86,0,1,1,9.86-9.86,9.87,9.87,0,0,1-9.86,9.86m36.31-1.52c0,.09,0,.18,0,.27,0,.55-.07,1.1-.13,1.64,0,.06,0,.13,0,.19-.06.57-.14,1.14-.23,1.7l0,.12c-.1.58-.2,1.17-.33,1.74l0,.12c-.12.58-.26,1.15-.41,1.71l0,.16q-.22.82-.49,1.63l-.08.23q-.25.76-.53,1.5l-.13.34q-.26.67-.55,1.33l-.21.47q-.26.58-.55,1.15l-.31.6q-.25.48-.52,1l-.42.73-.46.75-.56.87-.37.54c-.23.34-.47.67-.71,1l-.24.31c-.3.39-.59.78-.91,1.15h0a36.5,36.5,0,0,1-3.65,3.84v-4.63c0-.67,0-1.3-.09-1.92,0-.18,0-.34-.05-.52q-.08-.72-.2-1.38c0-.13,0-.27-.07-.4q-.17-.82-.41-1.58c0-.11-.08-.22-.11-.33q-.2-.6-.44-1.15l-.18-.4c-.19-.41-.4-.81-.62-1.19l-.06-.1a13.44,13.44,0,0,0-.79-1.16l-.24-.31q-.34-.42-.7-.8l-.24-.25c-.31-.32-.64-.62-1-.9l-.21-.16q-.43-.34-.87-.65l-.32-.22q-.48-.32-1-.6l-.15-.09c-.39-.21-.78-.41-1.19-.59l-.33-.14-1-.39-.32-.12c-.41-.15-.83-.29-1.25-.42l-.19-.05-1.1-.3L165,149l-1.1-.24-.18,0-1.27-.21-.1,0,.26-.2c.32-.24.64-.48.94-.74l.42-.38q.39-.36.75-.75l.39-.42c.25-.29.48-.58.7-.89l.28-.38a14.93,14.93,0,0,0,.84-1.36l.12-.25c.2-.4.39-.8.56-1.22.07-.17.13-.34.19-.51.12-.34.24-.7.34-1.05q.08-.28.15-.57c.09-.37.16-.75.21-1.13,0-.17.06-.35.08-.52a14.57,14.57,0,0,0-8.85-15.2,14.62,14.62,0,0,0-20.25,15.2c0,.18.05.35.08.52.06.38.13.76.21,1.13,0,.19.09.38.15.57.1.36.21.71.34,1.05.06.17.12.34.19.51.17.42.36.82.56,1.22,0,.08.08.17.12.25a14.5,14.5,0,0,0,.84,1.36c.09.13.19.25.28.38.22.3.46.6.7.89l.39.42q.36.39.75.75l.42.38c.3.26.62.5.94.74l.26.2-.1,0-1.27.21-.18,0-1.1.24-.35.09-1.1.3-.19.05c-.42.13-.84.27-1.25.42l-.32.12-1,.39-.33.14c-.4.18-.8.38-1.19.59l-.15.09q-.5.28-1,.6l-.32.22q-.45.31-.87.65l-.21.16c-.34.28-.66.58-1,.9l-.24.25q-.36.38-.7.8l-.24.31a13.68,13.68,0,0,0-.79,1.16l-.06.1c-.22.38-.43.78-.62,1.19l-.18.4q-.24.55-.44,1.15c0,.11-.08.22-.11.33q-.23.75-.41,1.58c0,.13,0,.27-.07.4q-.12.67-.2,1.38c0,.17,0,.34-.05.52-.05.62-.09,1.25-.09,1.92v4.63a36.49,36.49,0,0,1-3.65-3.84h0c-.31-.38-.61-.76-.91-1.15l-.24-.31c-.24-.33-.48-.66-.71-1l-.37-.54-.56-.87-.46-.75-.42-.73q-.26-.47-.52-1l-.31-.6q-.28-.57-.55-1.15l-.21-.47q-.29-.66-.56-1.33l-.13-.34q-.28-.74-.53-1.5l-.08-.23q-.26-.81-.48-1.63l0-.16q-.23-.85-.41-1.71l0-.12q-.18-.86-.33-1.74l0-.12c-.09-.56-.16-1.13-.23-1.7,0-.06,0-.13,0-.19-.06-.54-.1-1.09-.13-1.64,0-.09,0-.18,0-.27q0-1,0-1.91a36.36,36.36,0,1,1,72.72,0q0,1-.05,1.91" transform="translate(-11.65 -10.67)"/></g></g></svg>