<svg id="Layer_1" data-name="Layer 1" xmlns="http://www.w3.org/2000/svg" viewBox="0 0 14.68 17.24"><defs><style>.cls-1{fill:#5a616c;}</style></defs><title>Android</title><path class="cls-1" d="M9.9,2.17l.19-.28.18-.28L10.69,1A.17.17,0,1,0,10.41.8L10,1.47l-.19.28L9.59,2a5.58,5.58,0,0,0-4,0l-.19-.29-.19-.28L4.79.8A.17.17,0,1,0,4.51,1l.42.62.19.28.19.28A3.79,3.79,0,0,0,2.93,5.51h9.34A3.79,3.79,0,0,0,9.9,2.17Zm-4.3,2a.5.5,0,1,1,.5-.5A.5.5,0,0,1,5.6,4.18Zm4,0a.5.5,0,1,1,.5-.5A.5.5,0,0,1,9.6,4.18Z" transform="translate(-0.26 -0.73)"/><path class="cls-1" d="M3,6.18H2.93v7.34A1.06,1.06,0,0,0,4,14.58h.76a1,1,0,0,0,0,.28V17a1,1,0,0,0,2,0V14.86a1,1,0,0,0,0-.28H8.53a1,1,0,0,0,0,.28V17a1,1,0,1,0,2,0V14.86a1,1,0,0,0,0-.28h.76a1.06,1.06,0,0,0,1.06-1.06V6.18H3Z" transform="translate(-0.26 -0.73)"/><path class="cls-1" d="M1.26,6.18a1,1,0,0,0-1,1v4.28a1,1,0,1,0,2,0V7.18A1,1,0,0,0,1.26,6.18Z" transform="translate(-0.26 -0.73)"/><path class="cls-1" d="M13.94,6.18a1,1,0,0,0-1,1v4.28a1,1,0,1,0,2,0V7.18A1,1,0,0,0,13.94,6.18Z" transform="translate(-0.26 -0.73)"/></svg>