<?xml version="1.0" encoding="utf-8"?>
<!-- Generator: Adobe Illustrator 20.1.0, SVG Export Plug-In . SVG Version: 6.00 Build 0)  -->
<svg version="1.1" id="Layer_1" xmlns="http://www.w3.org/2000/svg" xmlns:xlink="http://www.w3.org/1999/xlink" x="0px" y="0px"
	 viewBox="0 0 15.2 18.7" style="enable-background:new 0 0 15.2 18.7;" xml:space="preserve">
<style type="text/css">
	.st0{fill:#5B616C;}
</style>
<title>Apple</title>
<path class="st0" d="M12.7,9.9c0-1.5,0.8-2.8,2-3.6c-0.8-1.1-2-1.8-3.4-1.9C9.9,4.4,8.5,5.4,7.7,5.4S5.9,4.5,4.6,4.6
	C3,4.6,1.6,5.5,0.8,6.9C-0.9,9.8,0.4,14,2,16.3c0.8,1.1,1.7,2.4,3,2.4s1.6-0.8,3.1-0.8s1.8,0.8,3.1,0.7s2.1-1.2,2.9-2.3
	c0.6-0.8,1-1.7,1.3-2.7C13.8,13.1,12.7,11.6,12.7,9.9z"/>
<path class="st0" d="M10.4,3c0.7-0.8,1.1-1.9,1-3c-1.1,0.1-2,0.6-2.8,1.4c-0.7,0.8-1.1,1.8-1,2.9C8.7,4.3,9.7,3.8,10.4,3z"/>
</svg>
