<svg id="svg6013" xmlns="http://www.w3.org/2000/svg" viewBox="0 0 243.92 285.01"><defs><style>.cls-1{fill:#fff;}.cls-2,.cls-3,.cls-5{fill:#3b434f;}.cls-3{opacity:0.06;}.cls-3,.cls-5{isolation:isolate;}.cls-4{fill:#f7fbfb;}.cls-5{opacity:0.15;}</style></defs><title>Face</title><path id="_2_copy_5" data-name="2 copy 5" class="cls-1" d="M129.21,12.43c53.08,0,95,49.6,93.61,109.2L221.38,185c-1.28,56.15-42.53,100.53-92.16,100.53S38.34,241.11,37.05,185L35.6,121.62C34.24,62,76.14,12.43,129.21,12.43Z" transform="translate(-7.12 -6.03)"/><path id="_2_line" data-name="2 line" class="cls-2" d="M227.09,119.66l-1.52,65.91C224.23,244,181,290.19,129,290.19S33.78,244,32.43,185.58l-1.52-65.91C29.49,57.64,73.38,6,129,6S228.52,57.64,227.09,119.66ZM128.79,12.85c-52.35,0-93.67,49.21-92.33,108.35L37.89,184c1.27,55.71,42,99.74,90.9,99.74s89.64-44,90.9-99.74l1.43-62.85C222.46,62.07,181.14,12.85,128.79,12.85Z" transform="translate(-7.12 -6.03)"/><path id="_1_copy_4" data-name="1 copy 4" class="cls-3" d="M224.43,130.61l-4.27,70s-19,80.77-92.16,90.33V291l-.43-.06-.43.06v-.12C53.94,281.36,35,200.59,35,200.59l-4.27-70c19,84.33,35,89.6,35,89.6-3.24-25.57,23-23,23-23a331.41,331.41,0,0,0,38.83,4.5,331.41,331.41,0,0,0,38.83-4.5s26.28-2.53,23,23C189.44,220.21,205.43,214.94,224.43,130.61ZM177,228.89c-1.24-15-10.31-13.77-10.31-13.77A264.53,264.53,0,0,1,128,223.84v-.1a263,263,0,0,1-38.4-8.65s-9-1.27-10.24,13.65c0,0-3.62,14.95,8.53,21.33l15.36,16.21s10.5,3.33,10.24-9.39c0,0-1.07-9.48,5.12-11.09H128v.28h9.45c6.23,1.63,5.16,11.19,5.16,11.19-.26,12.82,10.31,9.46,10.31,9.46l15.47-16.35C180.63,244,177,228.89,177,228.89Z" transform="translate(-7.12 -6.03)"/><path id="usta" class="cls-2" d="M175.08,223.29c-7.76,6.73-25.27,13.14-45.65,13.14S91.53,230,83.77,223.29c0,0-.79-2.18.37-3.35a3.94,3.94,0,0,1,3-.93c7.75,6.74,21.85,12.3,42.24,12.3s34.49-5.56,42.24-12.3c0,0,1.9-.7,2.82.22A3.6,3.6,0,0,1,175.08,223.29Z" transform="translate(-7.12 -6.03)"/><path id="_-" data-name="-" class="cls-2" d="M115.35,246.67h27.31v4.27H115.35Z" transform="translate(-7.12 -6.03)"/><path id="Shape_11_copy" data-name="Shape 11 copy" class="cls-1" d="M30.81,129.27a10.35,10.35,0,0,0-3-1.44,14.11,14.11,0,0,0-3.58-.62c-.35,0-.7,0-1.07,0s-.74,0-1.12.08a13.68,13.68,0,0,0-2.33.45,12.52,12.52,0,0,0-8.25,7.65,25.66,25.66,0,0,0-1.74,8.71q-.06,1.34,0,2.82t.15,3.1c.16,2.16.46,4.52.9,7.09a52.74,52.74,0,0,0,2.37,16.7c2.61,8.73,8.89,19.46,20.47,22.52-1.33-22.18-1.37-44.77-2.77-67.05Z" transform="translate(-7.12 -6.03)"/><path id="Shape_3" data-name="Shape 3" class="cls-2" d="M32.13,130.17S12,123.92,12.66,144.66c0,0,3,30.08,4.31,32.85,0,0,7.92,17.51,21,18.29h0l.16,5.64s-23-2.95-27.42-29.43L7.2,147.94S4.48,116.1,30.87,124.19h0l1.26,6" transform="translate(-7.12 -6.03)"/><path id="Shape_4" data-name="Shape 4" class="cls-2" d="M25.47,172a4.35,4.35,0,0,1-2.1.85,4.28,4.28,0,0,1-2.09-.85L19.2,151s2.87-10.33,15.06-4.87l.29,6s-10.7-3.79-10.47.93C24.29,157.58,25.47,172,25.47,172Z" transform="translate(-7.12 -6.03)"/><path id="Shape_11_copy_1" data-name="Shape 11 copy_1" class="cls-4" d="M227.81,129.32a10.42,10.42,0,0,1,3-1.44,14.24,14.24,0,0,1,3.59-.62c.35,0,.7,0,1.07,0s.74,0,1.12.08a13.8,13.8,0,0,1,2.34.45,12.55,12.55,0,0,1,8.29,7.65,25.53,25.53,0,0,1,1.75,8.7q.06,1.34,0,2.82t-.15,3.1c-.16,2.16-.46,4.52-.9,7.09a52.46,52.46,0,0,1-2.38,16.69c-2.62,8.73-8.92,19.45-20.56,22.51,1.34-22.16,1.38-44.74,2.78-67Z" transform="translate(-7.12 -6.03)"/><path id="Shape_3_1" data-name="Shape 3_1" class="cls-2" d="M225.48,130.22S245.75,124,245,144.7c0,0-3,30.06-4.33,32.83,0,0-8,17.5-21.09,18.28h0l-.16,5.64S242.54,198.5,247,172l3.52-24s2.73-31.82-23.77-23.73h0l-1.26,6" transform="translate(-7.12 -6.03)"/><path id="Shape_4_1" data-name="Shape 4_1" class="cls-2" d="M232.17,172a4.38,4.38,0,0,0,2.11.85,4.31,4.31,0,0,0,2.09-.85l2.09-21s-2.89-10.33-15.13-4.87l-.29,6s10.74-3.79,10.52.93C233.35,157.61,232.17,172,232.17,172Z" transform="translate(-7.12 -6.03)"/><path id="Shape_11" data-name="Shape 11" class="cls-1" d="M226.34,129.31a10.35,10.35,0,0,1,3-1.45,14.08,14.08,0,0,1,3.58-.63c.35,0,.7,0,1.07,0s.74,0,1.12.08a13.65,13.65,0,0,1,2.33.45,12.55,12.55,0,0,1,8.26,7.69,25.86,25.86,0,0,1,1.74,8.75q.06,1.35,0,2.83t-.15,3.11c-.16,2.17-.46,4.54-.9,7.13A53.17,53.17,0,0,1,244.06,174c-2.62,8.77-8.89,19.55-20.49,22.63,1.33-22.28,1.37-45,2.77-67.36Z" transform="translate(-7.12 -6.03)"/><path id="Shape_3_2" data-name="Shape 3_2" class="cls-2" d="M225.92,130.22s20.26-6.25,19.55,14.48c0,0-3,30.06-4.33,32.83,0,0-8,17.5-21.09,18.28h0l-.16,5.64S243,198.5,247.44,172L251,148s2.73-31.82-23.77-23.73h0l-1.26,6" transform="translate(-7.12 -6.03)"/><path id="Shape_4_2" data-name="Shape 4_2" class="cls-2" d="M232.61,172h4.2l2.09-21s-2.89-10.33-15.13-4.87l-.29,6s10.74-3.79,10.52.93C233.79,157.61,232.61,172,232.61,172Z" transform="translate(-7.12 -6.03)"/><path id="new_vector_shape_done" data-name="new vector shape done" class="cls-2" d="M136.89,170.29h1.49c3.09,4.19,4.34,10.64,6,16.21a12.34,12.34,0,0,1-.43,6c-1.62,4.48-6.7,4.4-10.88,6.4-1.12.54-2,1.47-3.41,1.71-.95-.84-2.09-1-2.56-2.35-1.15-1.59.33-2.58,1.49-3.2,2.11-1.13,8.61-2.24,9.39-4.27,1-1.1.32-4.39,0-5.55a65,65,0,0,0-2.35-8.11c-.75-1.77-2.06-3.65-1.28-5.76A11.21,11.21,0,0,0,136.89,170.29Z" transform="translate(-7.12 -6.03)"/><path id="Rounded_Rectangle_8" data-name="Rounded Rectangle 8" class="cls-2" d="M77.8,137.44h6a6,6,0,1,1,0,11.95h-6a6,6,0,1,1,0-11.95Z" transform="translate(-7.12 -6.03)"/><path id="Rounded_Rectangle_8_copy" data-name="Rounded Rectangle 8 copy" class="cls-2" d="M175.08,137.44h6a6,6,0,1,1,0,11.95h-6a6,6,0,1,1,0-11.95Z" transform="translate(-7.12 -6.03)"/><path id="Rounded_Rectangle_10" data-name="Rounded Rectangle 10" class="cls-5" d="M53.91,122.08h57.17a6,6,0,0,1,6,6v36.69a6,6,0,0,1-6,6H53.91a6,6,0,0,1-6-6V128.05A6,6,0,0,1,53.91,122.08Z" transform="translate(-7.12 -6.03)"/><path id="Rounded_Rectangle_10_copy" data-name="Rounded Rectangle 10 copy" class="cls-5" d="M146.07,122.08h57.17a6,6,0,0,1,6,6v36.69a6,6,0,0,1-6,6H146.07a6,6,0,0,1-6-6V128.05A6,6,0,0,1,146.07,122.08Z" transform="translate(-7.12 -6.03)"/><path id="Shape_1_copy_5" data-name="Shape 1 copy 5" class="cls-2" d="M214.33,126.35v31.57c0,7.72-7.53,19.76-19.79,20.44-1.8-.09-38.24,0-38.24,0-16.38,0-19.63-19.63-19.63-19.63V137.44H121.32v21.33s-3.25,19.63-19.63,19.63c0,0-36.43-.12-38.24,0-12.26-.69-19.79-12.73-19.79-20.44V126.35H30v-8.53h79.36s11.95,1.93,11.95,10.24h15.36c0-8.31,11.95-10.24,11.95-10.24H228v8.53Zm-101.55,4.27c0-3-3.41-3.41-3.41-3.41H52.2v29.87c0,9.31,12.8,12.8,12.8,12.8h35c12,0,12.8-12.8,12.8-12.8Zm93-3.41H148.63s-3.41.37-3.41,3.41v26.45s.76,12.8,12.8,12.8h35s12.8-3.49,12.8-12.8Zm-11.95,51.2.69,0C194.74,178.37,194.54,178.39,193.85,178.4Zm-130.4,0,.69,0C63.46,178.39,63.26,178.37,63.46,178.36Z" transform="translate(-7.12 -6.03)"/></svg>