<svg id="Layer_1" data-name="Layer 1" xmlns="http://www.w3.org/2000/svg" viewBox="0 0 34.58 34.49"><defs><style>.cls-1{fill:none;stroke:#fff;stroke-linecap:round;stroke-linejoin:round;stroke-width:1.44px;}</style></defs><title>Money take_white</title><polyline class="cls-1" points="8.8 7.02 8.8 33.77 25.77 33.77 25.77 7.02"/><path class="cls-1" d="M23.57,18.51c0-2.29-2.47-4.14-5.52-4.14s-5.52,1.86-5.52,4.14S15,22.65,18,22.65s5.52-1.86,5.52-4.14Z" transform="translate(-0.75 -1.01)"/><path class="cls-1" d="M25.78,28.85A5.11,5.11,0,0,0,20.67,34" transform="translate(-0.75 -1.01)"/><path class="cls-1" d="M10.3,28.85A5.11,5.11,0,0,1,15.41,34" transform="translate(-0.75 -1.01)"/><path class="cls-1" d="M19.11,26.8A1.07,1.07,0,1,0,18,27.87a1.07,1.07,0,0,0,1.07-1.07Z" transform="translate(-0.75 -1.01)"/><path class="cls-1" d="M19.11,10.22A1.07,1.07,0,1,0,18,11.3a1.07,1.07,0,0,0,1.07-1.07Z" transform="translate(-0.75 -1.01)"/><path class="cls-1" d="M26.66,12.29H29.3a1.06,1.06,0,0,0,1.06-1.06V9A1.06,1.06,0,0,0,29.3,7.93H6.79A1.07,1.07,0,0,0,5.73,9v2.25a1.06,1.06,0,0,0,1.06,1.06H9.42" transform="translate(-0.75 -1.01)"/><path class="cls-1" d="M9.42,17.81H2.84a1.38,1.38,0,0,1-1.37-1.37V3.09A1.37,1.37,0,0,1,2.84,1.73h30.4a1.38,1.38,0,0,1,1.37,1.37V16.45a1.39,1.39,0,0,1-1.37,1.37H26.66" transform="translate(-0.75 -1.01)"/></svg>