<svg id="Layer_1" data-name="Layer 1" xmlns="http://www.w3.org/2000/svg" viewBox="0 0 33.59 35.87"><defs><style>.cls-1{fill:none;stroke:#fff;stroke-linecap:round;stroke-linejoin:round;stroke-width:1.44px;}</style></defs><title>Money Exchange_white</title><path class="cls-1" d="M20.49,3.24a15.3,15.3,0,0,1,7.45,3.61,15.39,15.39,0,0,1,4.46,6.83,15.26,15.26,0,0,1,.6,2.75" transform="translate(-0.53 -0.4)"/><path class="cls-1" d="M14.18,33.42A15.35,15.35,0,0,1,1.67,20.22" transform="translate(-0.53 -0.4)"/><polyline class="cls-1" points="11.94 29.53 14.23 32.86 10.91 35.15"/><polyline class="cls-1" points="21.67 6.34 19.38 3.01 22.7 0.72"/><path class="cls-1" d="M9.92,2.18a8.67,8.67,0,1,1-8.67,8.67A8.67,8.67,0,0,1,9.92,2.18Z" transform="translate(-0.53 -0.4)"/><line class="cls-1" x1="4.65" y1="8.99" x2="11.34" y2="8.99"/><line class="cls-1" x1="4.18" y1="11.94" x2="10.86" y2="11.94"/><path class="cls-1" d="M13.4,14.14a3.86,3.86,0,0,1-1.21,1,3.17,3.17,0,0,1-3,0,3.86,3.86,0,0,1-1.21-1,4.84,4.84,0,0,1-.81-1.48A5.65,5.65,0,0,1,7.22,9,4.83,4.83,0,0,1,8,7.56a3.87,3.87,0,0,1,1.21-1,3.17,3.17,0,0,1,3,0,3.87,3.87,0,0,1,1.21,1" transform="translate(-0.53 -0.4)"/><line class="cls-1" x1="24.21" y1="19.51" x2="24.21" y2="21.37"/><line class="cls-1" x1="24.21" y1="29.47" x2="24.21" y2="31.33"/><path class="cls-1" d="M24.75,17.16a8.66,8.66,0,1,1-8.66,8.66,8.66,8.66,0,0,1,8.66-8.66Z" transform="translate(-0.53 -0.4)"/><path class="cls-1" d="M27.44,22.73a12.14,12.14,0,0,0-2.4-.64c-4.18-.47-4.71,3.74-.27,3.72s3.91,4.2-.27,3.72a12.17,12.17,0,0,1-2.4-.64" transform="translate(-0.53 -0.4)"/></svg>