<?xml version="1.0" encoding="utf-8"?>
<!-- Generator: Adobe Illustrator 20.1.0, SVG Export Plug-In . SVG Version: 6.00 Build 0)  -->
<svg version="1.1" id="Layer_1" xmlns="http://www.w3.org/2000/svg" xmlns:xlink="http://www.w3.org/1999/xlink" x="0px" y="0px"
	 viewBox="0 0 52 52" style="enable-background:new 0 0 52 52;" xml:space="preserve">
<style type="text/css">
	.st0{fill:#218ED2;}
</style>
<title>Profile</title>
<path class="st0" d="M26,52c14.4,0,26-11.6,26-26S40.4,0,26,0S0,11.6,0,26S11.6,52,26,52z M26,48C13.8,48,4,38.2,4,26S13.8,4,26,4
	s22,9.8,22,22S38.2,48,26,48L26,48z"/>
<path class="st0" d="M42.7,42c-6.1-9.2-18.5-11.8-27.7-5.7c-2.2,1.5-4.1,3.4-5.6,5.6c-0.6,0.9-0.4,2.2,0.6,2.8s2.2,0.4,2.8-0.6l0,0
	c4.9-7.4,14.8-9.3,22.2-4.4c1.8,1.2,3.3,2.7,4.5,4.5c0.5,1,1.7,1.4,2.7,0.9c1-0.5,1.4-1.7,0.9-2.7C42.8,42.2,42.8,42.1,42.7,42z"/>
<path class="st0" d="M26,29c5,0,9-4,9-9s-4-9-9-9s-9,4-9,9S21,29,26,29z M26,25c-2.8,0-5-2.2-5-5s2.2-5,5-5s5,2.2,5,5S28.8,25,26,25
	z"/>
</svg>
