<svg id="Layer_1" data-name="Layer 1" xmlns="http://www.w3.org/2000/svg" viewBox="0 0 48 48"><defs><style>.cls-1{fill:none;}.cls-2{fill:#fff;}</style></defs><title>Rating traderov_white</title><path class="cls-1" d="M0,0H48V48H0Z" transform="translate(0 0)"/><path class="cls-2" d="M33,24a5,5,0,1,0-5-5A5,5,0,0,0,33,24ZM18,22a6,6,0,1,0-6-6A6,6,0,0,0,18,22Zm15,6c-3.67,0-11,1.84-11,5.5V38H44V33.5C44,29.84,36.67,28,33,28ZM18,26c-4.67,0-14,2.34-14,7v5H18V33.5c0-1.7.67-4.67,4.74-6.94A23.88,23.88,0,0,0,18,26Z" transform="translate(0 0)"/></svg>