<svg id="Layer_1" data-name="Layer 1" xmlns="http://www.w3.org/2000/svg" viewBox="0 0 15.11 10.79"><defs><style>.cls-1{fill:#ff4830;}</style></defs><title>Right arrow</title><path class="cls-1" d="M.44,5.9A1.08,1.08,0,0,0,1.52,7H11.89L9.39,9.47a1,1,0,0,0-.31.74,1.09,1.09,0,0,0,1.08,1.08A1,1,0,0,0,10.9,11l4.3-4.3a1,1,0,0,0,.35-.78,1,1,0,0,0-.36-.79L10.9.81A1,1,0,0,0,10.16.5,1.09,1.09,0,0,0,9.08,1.58a1,1,0,0,0,.31.74l2.49,2.49H1.52A1.08,1.08,0,0,0,.44,5.9Z" transform="translate(-0.44 -0.5)"/></svg>