<?xml version="1.0" encoding="utf-8"?>
<!-- Generator: Adobe Illustrator 20.1.0, SVG Export Plug-In . SVG Version: 6.00 Build 0)  -->
<svg version="1.1" id="Layer_1" xmlns="http://www.w3.org/2000/svg" xmlns:xlink="http://www.w3.org/1999/xlink" x="0px" y="0px"
	 viewBox="0 0 24 22.1" style="enable-background:new 0 0 24 22.1;" xml:space="preserve">
<style type="text/css">
	.st0{fill:#218ED2;}
</style>
<g id="jEDspe.tif">
	<rect x="0.9" y="0.7" class="st0" width="22.3" height="3.1"/>
	<rect x="0.9" y="3.1" class="st0" width="1.5" height="18.3"/>
	<rect x="8.8" y="3.1" class="st0" width="1.5" height="12.5"/>
	<rect x="21.6" y="3.1" class="st0" width="1.5" height="18.3"/>
	
		<rect x="11" y="10.8" transform="matrix(-1.836970e-16 1 -1 -1.836970e-16 32.3638 8.8109)" class="st0" width="1.5" height="19.6"/>
	<rect x="11" y="6" transform="matrix(-1.836970e-16 1 -1 -1.836970e-16 27.5938 4.0409)" class="st0" width="1.5" height="19.6"/>
</g>
<rect x="4.1" y="5.5" class="st0" width="3.2" height="1.6"/>
<rect x="4.2" y="8.8" class="st0" width="2.8" height="1.4"/>
<rect x="12" y="5.5" class="st0" width="3.2" height="1.6"/>
<rect x="18.3" y="5.5" class="st0" width="1.6" height="1.6"/>
<rect x="18.3" y="8.7" class="st0" width="1.6" height="1.6"/>
<rect x="12" y="11.8" class="st0" width="1.6" height="1.6"/>
<rect x="4.1" y="11.9" class="st0" width="3.2" height="1.4"/>
<rect x="13.5" y="10.2" class="st0" width="4.8" height="1.6"/>
</svg>
