<svg id="Layer_1" data-name="Layer 1" xmlns="http://www.w3.org/2000/svg" viewBox="0 0 30.16 36.59"><defs><style>.cls-1{fill:none;stroke:#fff;stroke-linecap:round;stroke-linejoin:round;stroke-width:1.44px;}</style></defs><title>Timer_white</title><path class="cls-1" d="M15.44,7.93A14.08,14.08,0,1,1,1.36,22,14.08,14.08,0,0,1,15.44,7.93Z" transform="translate(-0.64 -0.22)"/><line class="cls-1" x1="13.16" y1="7.71" x2="13.16" y2="4.52"/><line class="cls-1" x1="16.44" y1="4.52" x2="16.44" y2="7.71"/><polyline class="cls-1" points="23.84 10.69 27.38 7.15 29.44 9.21 25.9 12.75"/><line class="cls-1" x1="3.2" y1="21.79" x2="6.26" y2="21.79"/><line class="cls-1" x1="14.8" y1="33.39" x2="14.8" y2="30.33"/><line class="cls-1" x1="26.4" y1="21.79" x2="23.34" y2="21.79"/><line class="cls-1" x1="14.8" y1="10.19" x2="14.8" y2="13.25"/><path class="cls-1" d="M15.44,19.95A2.07,2.07,0,1,1,13.37,22a2.07,2.07,0,0,1,2.07-2.07Z" transform="translate(-0.64 -0.22)"/><line class="cls-1" x1="7.63" y1="14.67" x2="13.26" y2="20.29"/><path class="cls-1" d="M11.76.94h7.36a.64.64,0,0,1,.64.64V3.75a.64.64,0,0,1-.64.64H11.76a.64.64,0,0,1-.64-.64V1.58a.64.64,0,0,1,.64-.64Z" transform="translate(-0.64 -0.22)"/></svg>