<svg id="Layer_1" data-name="Layer 1" xmlns="http://www.w3.org/2000/svg" viewBox="0 0 14.95 14.95"><defs><style>.cls-1{fill:#5c616d;}</style></defs><title>Web</title><path class="cls-1" d="M7.73.17A7.47,7.47,0,1,0,15.2,7.64,7.47,7.47,0,0,0,7.73.17ZM8,13.76a.34.34,0,0,1-.23.09.35.35,0,0,1-.24-.09,8.1,8.1,0,0,1-2.27-3.5,10.27,10.27,0,0,1,5,0A8.1,8.1,0,0,1,8,13.76Zm-3-4.61a8.27,8.27,0,0,1,0-3,11.42,11.42,0,0,0,2.82.35,11.42,11.42,0,0,0,2.75-.34,8.27,8.27,0,0,1,0,3A11.43,11.43,0,0,0,4.94,9.15ZM7.49,1.52a.34.34,0,0,1,.23-.09A.35.35,0,0,1,8,1.52,8.1,8.1,0,0,1,10.23,5a10.27,10.27,0,0,1-5,0A8.1,8.1,0,0,1,7.49,1.52Zm4.13,4.29A11.33,11.33,0,0,0,13.45,5a6.31,6.31,0,0,1,0,5.35,11.32,11.32,0,0,0-1.83-.85,9.42,9.42,0,0,0,0-3.65ZM12.87,4a10.16,10.16,0,0,1-1.54.72,9.33,9.33,0,0,0-1.7-3.09A6.35,6.35,0,0,1,12.87,4ZM5.82,1.61A9.32,9.32,0,0,0,4.13,4.67,10.16,10.16,0,0,1,2.6,3.94,6.35,6.35,0,0,1,5.82,1.61ZM2,4.93a11.32,11.32,0,0,0,1.82.86,9.44,9.44,0,0,0,0,3.7A11.33,11.33,0,0,0,2,10.36,6.32,6.32,0,0,1,2,4.93Zm.59,6.41a10.16,10.16,0,0,1,1.53-.73,9.32,9.32,0,0,0,1.69,3.06A6.35,6.35,0,0,1,2.6,11.34Zm7,2.33a9.33,9.33,0,0,0,1.7-3.09,10.18,10.18,0,0,1,1.54.72A6.35,6.35,0,0,1,9.63,13.67Z" transform="translate(-0.25 -0.17)"/></svg>