<?xml version="1.0" encoding="utf-8"?>
<!-- Generator: Adobe Illustrator 20.1.0, SVG Export Plug-In . SVG Version: 6.00 Build 0)  -->
<svg version="1.1" id="Layer_1" xmlns="http://www.w3.org/2000/svg" xmlns:xlink="http://www.w3.org/1999/xlink" x="0px" y="0px"
	 viewBox="0 0 15.7 18.3" style="enable-background:new 0 0 15.7 18.3;" xml:space="preserve">
<style type="text/css">
	.st0{fill:#218ED2;}
</style>
<title>Android_blue</title>
<path class="st0" d="M10.1,1.9l0.2-0.3l0.2-0.3l0.4-0.6c0.1-0.1,0-0.2,0-0.2s-0.2,0-0.2,0l0,0l-0.4,0.7l-0.2,0.3L9.8,1.8
	c-1.3-0.5-2.7-0.5-4,0L5.6,1.5L5.5,1.2L5,0.6C5,0.5,4.9,0.5,4.8,0.5c-0.1,0.1-0.1,0.2,0,0.2l0,0l0.4,0.6l0.2,0.3l0.2,0.3
	C4.2,2.5,3.2,3.8,3.2,5.3h9.3C12.4,3.8,11.5,2.5,10.1,1.9z M5.8,3.9c-0.3,0-0.5-0.2-0.5-0.5s0.2-0.5,0.5-0.5s0.5,0.2,0.5,0.5
	S6.1,3.9,5.8,3.9L5.8,3.9z M9.8,3.9c-0.3,0-0.5-0.2-0.5-0.5s0.2-0.5,0.5-0.5s0.5,0.2,0.5,0.5S10.1,3.9,9.8,3.9L9.8,3.9z"/>
<path class="st0" d="M3.2,5.9L3.2,5.9l-0.1,7.3c0,0.6,0.5,1.1,1.1,1.1c0,0,0,0,0,0H5c0,0.1,0,0.2,0,0.3v2.1c0,0.6,0.4,1,1,1
	s1-0.4,1-1v-2.1c0-0.1,0-0.2,0-0.3h1.8c0,0.1,0,0.2,0,0.3v2.1c0,0.6,0.4,1,1,1s1-0.4,1-1v-2.1c0-0.1,0-0.2,0-0.3h0.7
	c0.6,0,1.1-0.5,1.1-1.1V5.9H3.2z"/>
<path class="st0" d="M1.5,5.9c-0.6,0-1,0.4-1,1v4.3c0,0.6,0.4,1,1,1s1-0.4,1-1V6.9C2.5,6.4,2.1,5.9,1.5,5.9z"/>
<path class="st0" d="M14.2,5.9c-0.6,0-1,0.4-1,1v4.3c0,0.6,0.4,1,1,1s1-0.4,1-1V6.9C15.2,6.4,14.7,5.9,14.2,5.9z"/>
</svg>
