<svg id="Layer_1" data-name="Layer 1" xmlns="http://www.w3.org/2000/svg" viewBox="0 0 14.94 14.94"><defs><style>.cls-1{fill:#218ed2;}</style></defs><title>Web_blue</title><path class="cls-1" d="M7.48,0a7.47,7.47,0,1,0,7.47,7.47A7.47,7.47,0,0,0,7.48,0Zm.27,13.59a.34.34,0,0,1-.23.09.35.35,0,0,1-.24-.09A8.1,8.1,0,0,1,5,10.09a10.27,10.27,0,0,1,5,0A8.1,8.1,0,0,1,7.75,13.59ZM4.75,9a8.27,8.27,0,0,1,0-3,11.42,11.42,0,0,0,2.82.35A11.42,11.42,0,0,0,10.32,6a8.27,8.27,0,0,1,0,3A11.43,11.43,0,0,0,4.69,9ZM7.24,1.35a.34.34,0,0,1,.23-.09.35.35,0,0,1,.28.09A8.1,8.1,0,0,1,10,4.83a10.27,10.27,0,0,1-5,0A8.1,8.1,0,0,1,7.24,1.35Zm4.13,4.29a11.33,11.33,0,0,0,1.83-.81,6.31,6.31,0,0,1,0,5.35,11.32,11.32,0,0,0-1.83-.85,9.42,9.42,0,0,0,0-3.65Zm1.25-1.81a10.16,10.16,0,0,1-1.54.72,9.33,9.33,0,0,0-1.7-3.09A6.35,6.35,0,0,1,12.62,3.83Zm-7-2.39A9.32,9.32,0,0,0,3.88,4.5a10.16,10.16,0,0,1-1.53-.73A6.35,6.35,0,0,1,5.57,1.44ZM1.75,4.76a11.32,11.32,0,0,0,1.82.86,9.44,9.44,0,0,0,0,3.7,11.33,11.33,0,0,0-1.82.87A6.32,6.32,0,0,1,1.75,4.76Zm.59,6.41a10.16,10.16,0,0,1,1.53-.73A9.32,9.32,0,0,0,5.56,13.5a6.35,6.35,0,0,1-3.21-2.33Zm7,2.33A9.33,9.33,0,0,0,11,10.41a10.18,10.18,0,0,1,1.54.72,6.35,6.35,0,0,1-3.2,2.37Z" transform="translate(-0.01 0)"/></svg>