<?xml version="1.0" encoding="utf-8"?>
<!-- Generator: Adobe Illustrator 20.1.0, SVG Export Plug-In . SVG Version: 6.00 Build 0)  -->
<svg version="1.1" id="Layer_1" xmlns="http://www.w3.org/2000/svg" xmlns:xlink="http://www.w3.org/1999/xlink" x="0px" y="0px"
	 viewBox="0 0 62.8 63" style="enable-background:new 0 0 62.8 63;" xml:space="preserve">
<style type="text/css">
	.st0{fill:#FF4830;}
</style>
<g>
	<path class="st0" d="M31.5,62C48.3,62,62,48.3,62,31.5S48.3,1,31.5,1S1,14.7,1,31.5S14.7,62,31.5,62z M31.5,2.5c16,0,29,13,29,29
		s-13,29-29,29s-29-13-29-29S15.5,2.5,31.5,2.5z"/>
	<path class="st0" d="M31.5,25.8c-0.4,0-0.7,0.3-0.7,0.7v17.4c0,0.4,0.3,0.7,0.7,0.7c0.4,0,0.7-0.3,0.7-0.7V26.5
		C32.2,26.1,31.9,25.8,31.5,25.8z"/>
	<path class="st0" d="M31.5,23.8c1.8,0,3.2-1.4,3.2-3.2c0-1.8-1.4-3.2-3.2-3.2c-1.8,0-3.2,1.4-3.2,3.2
		C28.3,22.4,29.7,23.8,31.5,23.8z M31.5,18.9c0.9,0,1.7,0.8,1.7,1.7c0,0.9-0.8,1.7-1.7,1.7c-0.9,0-1.7-0.8-1.7-1.7
		C29.8,19.6,30.6,18.9,31.5,18.9z"/>
</g>
</svg>
