<svg id="Layer_1" data-name="Layer 1" xmlns="http://www.w3.org/2000/svg" viewBox="0 0 25 27"><defs><style>.cls-1{fill:#2e95d5;}</style></defs><title>Envelope</title><g id="Page-1"><rect class="cls-1" x="6" y="9.18" width="13" height="1"/><rect class="cls-1" x="6" y="12.18" width="13" height="1"/><rect class="cls-1" x="6" y="6.18" width="13" height="1"/><path class="cls-1" d="M26,11.36V8a2,2,0,0,0-2-2H19.91L16.5,3,13.09,6H9A2,2,0,0,0,7,8v3.36L4,14V28a2,2,0,0,0,2,2H27a2,2,0,0,0,2-2V14Zm0,1.32L27.5,14,26,15.33ZM16.5,4.3,18.43,6H14.57ZM8,8A1,1,0,0,1,9,7H24a1,1,0,0,1,1,1V16.1L21.76,19H11.17L8,16.2ZM18.52,22l0,0H14.55l-2.24-2h8.33l-2.22,2ZM7,12.68v2.66L5.5,14Zm-1.69,16A1,1,0,0,1,5,28V15l8,7ZM6.5,29l7-6h6l7,6ZM28,21.5V28a1,1,0,0,1-.31.73L20,22l8-7Z" transform="translate(-4 -3)"/></g></svg>