<svg id="Layer_1" data-name="Layer 1" xmlns="http://www.w3.org/2000/svg" viewBox="0 0 112 128"><defs><style>.cls-1{fill:#ff5c32;}</style></defs><title>Document</title><path class="cls-1" d="M104,0H24A16,16,0,0,0,8,16v96a16,16,0,0,0,16,16h80a16,16,0,0,0,16-16V16A16,16,0,0,0,104,0Zm8,112a8,8,0,0,1-8,8H24a8,8,0,0,1-8-8V16a8,8,0,0,1,8-8h80a8,8,0,0,1,8,8Z" transform="translate(-8 0)"/><rect class="cls-1" x="24" y="24" width="64" height="8"/><rect class="cls-1" x="24" y="40" width="64" height="8"/><rect class="cls-1" x="24" y="56" width="64" height="8"/><rect class="cls-1" x="24" y="72" width="32" height="8"/></svg>