<svg id="Layer_1" data-name="Layer 1" xmlns="http://www.w3.org/2000/svg" viewBox="0 0 28 18"><title>Eye</title><path d="M16,25A15.49,15.49,0,0,1,4.63,19.91,1,1,0,0,1,6.1,18.55,13.5,13.5,0,0,0,16,23a13.94,13.94,0,0,0,11.84-7A13.93,13.93,0,0,0,16,9,14,14,0,0,0,3.87,16.49a1,1,0,1,1-1.74-1A16,16,0,0,1,16,7a16,16,0,0,1,13.87,8.51,1,1,0,0,1,0,1A16,16,0,0,1,16,25Z" transform="translate(-2 -7)"/><path d="M16,21a5,5,0,1,1,5-5A5,5,0,0,1,16,21Zm0-8a3,3,0,1,0,3,3A3,3,0,0,0,16,13Z" transform="translate(-2 -7)"/></svg>