<?xml version="1.0" encoding="utf-8"?>
<!-- Generator: Adobe Illustrator 20.1.0, SVG Export Plug-In . SVG Version: 6.00 Build 0)  -->
<svg version="1.1" id="Layer_1" xmlns="http://www.w3.org/2000/svg" xmlns:xlink="http://www.w3.org/1999/xlink" x="0px" y="0px"
	 viewBox="0 0 28 18" style="enable-background:new 0 0 28 18;" xml:space="preserve">
<style type="text/css">
	.st0{fill:#FF4830;}
</style>
<title>Eye</title>
<path class="st0" d="M14,18c-4.3,0-8.5-1.9-11.4-5.1c-0.4-0.4-0.4-1,0.1-1.4c0.4-0.4,1-0.4,1.4,0.1C6.6,14.4,10.2,16,14,16
	c4.9-0.1,9.4-2.7,11.8-7C23.4,4.7,18.9,2.1,14,2C8.9,2.1,4.2,5,1.9,9.5C1.6,10,1,10.1,0.5,9.9C0,9.6-0.1,9,0.1,8.5
	C2.9,3.3,8.2,0.1,14,0c5.8,0.1,11.1,3.4,13.9,8.5c0.2,0.3,0.2,0.7,0,1C25.1,14.7,19.8,17.9,14,18z"/>
<path class="st0" d="M14,14c-2.8,0-5-2.2-5-5s2.2-5,5-5s5,2.2,5,5S16.8,14,14,14z M14,6c-1.7,0-3,1.3-3,3s1.3,3,3,3s3-1.3,3-3
	S15.7,6,14,6z"/>
</svg>
