<svg id="Layer_1" data-name="Layer 1" xmlns="http://www.w3.org/2000/svg" xmlns:xlink="http://www.w3.org/1999/xlink" viewBox="0 0 36.11 28.24"><defs><style>.cls-1{fill:url(#linear-gradient);}.cls-2{fill:url(#linear-gradient-2);}.cls-3{fill:#00708e;}.cls-4{fill:url(#linear-gradient-3);}.cls-5{fill:#0093c6;}.cls-6{fill:url(#linear-gradient-4);}.cls-7{fill:url(#linear-gradient-5);}.cls-8{fill:url(#linear-gradient-6);}.cls-9{fill:url(#linear-gradient-7);}.cls-10{fill:url(#linear-gradient-8);}.cls-11{fill:url(#linear-gradient-9);}.cls-12{fill:url(#linear-gradient-10);}</style><linearGradient id="linear-gradient" x1="7.65" y1="25.16" x2="35.21" y2="2.6" gradientUnits="userSpaceOnUse"><stop offset="0" stop-color="#0046a8"/><stop offset="0" stop-color="#0046a9"/><stop offset="0.14" stop-color="#1c5ad2"/><stop offset="0.22" stop-color="#2662e2"/><stop offset="0.57" stop-color="#2662e2"/><stop offset="0.62" stop-color="#2662e2"/><stop offset="0.73" stop-color="#2565e2"/><stop offset="0.81" stop-color="#226ee2"/><stop offset="0.89" stop-color="#1c7ee2"/><stop offset="0.96" stop-color="#1494e2"/><stop offset="1" stop-color="#0da8e2"/></linearGradient><linearGradient id="linear-gradient-2" x1="4.63" y1="29.12" x2="4.63" y2="4.45" gradientUnits="userSpaceOnUse"><stop offset="0" stop-color="#0b8d06"/><stop offset="0.14" stop-color="#28cc23"/><stop offset="0.59" stop-color="#28cc23"/><stop offset="0.69" stop-color="#27c922"/><stop offset="0.77" stop-color="#25c020"/><stop offset="0.83" stop-color="#21b01c"/><stop offset="0.9" stop-color="#1b9916"/><stop offset="0.95" stop-color="#137d0e"/><stop offset="1" stop-color="#0b5e06"/></linearGradient><linearGradient id="linear-gradient-3" x1="1.25" y1="14.83" x2="32.82" y2="14.83" gradientUnits="userSpaceOnUse"><stop offset="0" stop-color="#51ff3b"/><stop offset="0.07" stop-color="#47f235"/><stop offset="0.19" stop-color="#2bd025"/><stop offset="0.2" stop-color="#28cc23"/><stop offset="0.74" stop-color="#28cc23"/><stop offset="0.8" stop-color="#23bc1e"/><stop offset="0.91" stop-color="#169311"/><stop offset="1" stop-color="#0b6e06"/></linearGradient><linearGradient id="linear-gradient-4" x1="34.19" y1="29.12" x2="34.19" y2="4.71" gradientUnits="userSpaceOnUse"><stop offset="0" stop-color="#0031a8"/><stop offset="0.07" stop-color="#073ec7"/><stop offset="0.14" stop-color="#0d4ae2"/><stop offset="0.59" stop-color="#2662e2"/><stop offset="0.72" stop-color="#2460df"/><stop offset="0.82" stop-color="#1e58d6"/><stop offset="0.9" stop-color="#144ac6"/><stop offset="0.98" stop-color="#0537b0"/><stop offset="1" stop-color="#0031a8"/></linearGradient><linearGradient id="linear-gradient-5" x1="20.49" y1="12.57" x2="23.51" y2="9.59" gradientUnits="userSpaceOnUse"><stop offset="0" stop-color="#0046a8" stop-opacity="0.75"/><stop offset="0.01" stop-color="#0046a9" stop-opacity="0.74"/><stop offset="0.48" stop-color="#1555c7" stop-opacity="0.34"/><stop offset="0.82" stop-color="#215edb" stop-opacity="0.09"/><stop offset="0.99" stop-color="#2662e2" stop-opacity="0"/></linearGradient><linearGradient id="linear-gradient-6" x1="11.6" y1="33.53" x2="14.62" y2="30.55" gradientTransform="translate(27.19 49.67) rotate(180)" xlink:href="#linear-gradient-5"/><linearGradient id="linear-gradient-7" x1="33.64" y1="29.11" x2="33.64" y2="6.22" gradientUnits="userSpaceOnUse"><stop offset="0" stop-color="#157a10"/><stop offset="0.04" stop-color="#1a8f15"/><stop offset="0.11" stop-color="#1fa51a"/><stop offset="0.18" stop-color="#23b71e"/><stop offset="0.27" stop-color="#26c321"/><stop offset="0.39" stop-color="#28ca23"/><stop offset="0.69" stop-color="#28cc23"/><stop offset="0.75" stop-color="#26c221"/><stop offset="0.85" stop-color="#20a91b"/><stop offset="0.99" stop-color="#167f11"/><stop offset="1" stop-color="#157a10"/></linearGradient><linearGradient id="linear-gradient-8" x1="21.41" y1="7.96" x2="36.76" y2="7.96" gradientUnits="userSpaceOnUse"><stop offset="0" stop-color="#157a10"/><stop offset="0.01" stop-color="#167f11"/><stop offset="0.15" stop-color="#20a91b"/><stop offset="0.25" stop-color="#26c221"/><stop offset="0.31" stop-color="#28cc23"/></linearGradient><linearGradient id="linear-gradient-9" x1="4.96" y1="29.14" x2="4.96" y2="6.25" gradientUnits="userSpaceOnUse"><stop offset="0" stop-color="#0d4ae2"/><stop offset="0.33" stop-color="#0940c7"/><stop offset="1" stop-color="#002887"/></linearGradient><linearGradient id="linear-gradient-10" x1="1.84" y1="8.95" x2="21.64" y2="8.95" gradientUnits="userSpaceOnUse"><stop offset="0" stop-color="#267be2"/><stop offset="0.05" stop-color="#2171e2"/><stop offset="0.17" stop-color="#1860e2"/><stop offset="0.32" stop-color="#1253e2"/><stop offset="0.53" stop-color="#0e4ce2"/><stop offset="1" stop-color="#0d4ae2"/></linearGradient></defs><title>Metatrader logo</title><path class="cls-1" d="M36.35,2.77C35,1.08,33,.28,31.61,1.45L23,8.52h0L6.56,22.08a13.64,13.64,0,0,1-.21,5.39c1.08,1.35.68,1.48,1.8.6L26.6,12.88h0L35.5,5.56c1.71-1.4,1.86-.62,1.86-.62S37.51,4.18,36.35,2.77Z" transform="translate(-1.25 -0.9)"/><path class="cls-2" d="M7.08,6.89C4.9,6.89,1.25,3.11,1.25,5V26.3c0,1.85,1.84,2.82,4,2.82,1.82,0,2.31-.6,2.31-.6s-.7.3-.7-1.83V7.9c0-1.65.7-.41.7-.41S8.82,6.86,7.08,6.89Z" transform="translate(-1.25 -0.9)"/><path class="cls-3" d="M2.54,6.19" transform="translate(-1.25 -0.9)"/><path class="cls-4" d="M32,22.06,15.59,8.56h0L7,1.48C5.57.31,3.65,1.11,2.26,2.8,1.1,4.2,1.26,5,1.26,5s.16-.81,1.86.63L12,12.89h0L30.44,28.07c1.12.88,1.46,1.1,1.8-.6C32.66,25.37,33.42,23.23,32,22.06Z" transform="translate(-1.25 -0.9)"/><path class="cls-5" d="M1.25,6" transform="translate(-1.25 -0.9)"/><path class="cls-6" d="M35.5,5.56,31.72,8.67v18c0,2.21-.7,1.83-.7,1.83s.48.6,2.31.6c2.19,0,4-1,4-2.82V4.93C37.07,4.2,35.5,5.56,35.5,5.56Z" transform="translate(-1.25 -0.9)"/><polygon class="cls-7" points="18.04 10.71 22.47 14.36 25.73 11.67 21.59 7.78 18.04 10.71"/><polygon class="cls-8" points="18.04 18 13.61 14.36 10.35 17.04 14.48 20.93 18.04 18"/><path class="cls-9" d="M34.69,6.22V27.33a1.67,1.67,0,0,1-1.6,1.78c-.15,0-.49,0-.49,0a1.61,1.61,0,0,0,1.79-1.75V6.47" transform="translate(-1.25 -0.9)"/><path class="cls-10" d="M21.41,13.35,34.08,2.84a1.67,1.67,0,0,1,2.41.11l.27.38a1.61,1.61,0,0,0-2.49-.26L21.65,13.55Z" transform="translate(-1.25 -0.9)"/><path class="cls-11" d="M3.91,6.25V27.35a1.67,1.67,0,0,0,1.6,1.78c.16,0,.5,0,.5,0a1.61,1.61,0,0,1-1.79-1.75V6.49" transform="translate(-1.25 -0.9)"/><path d="M34.22,6.3" transform="translate(-1.25 -0.9)"/><path class="cls-12" d="M21.64,13.55l-.23-.2-2.12,1.77L12,9.1h0L4.5,2.84a1.65,1.65,0,0,0-2.24,0,6.82,6.82,0,0,0-.42.57A1.59,1.59,0,0,1,4.3,3.07L16.92,13.55h0l2.38,2Z" transform="translate(-1.25 -0.9)"/></svg>