<svg id="Layer_1" data-name="Layer 1" xmlns="http://www.w3.org/2000/svg" viewBox="0 0 16.63 16.63"><defs><style>.cls-1{fill:#181818;}</style></defs><title>Check</title><g id="Check_Circle" data-name="Check Circle"><path class="cls-1" d="M8.78.53a8.31,8.31,0,1,0,8.31,8.31A8.31,8.31,0,0,0,8.78.53Zm0,15.59a7.27,7.27,0,1,1,7.27-7.27A7.27,7.27,0,0,1,8.78,16.12Z" transform="translate(-0.47 -0.53)"/><path class="cls-1" d="M12.57,5.93l-5.34,5.3L5,9a.53.53,0,0,0-.74,0,.52.52,0,0,0,0,.73l2.6,2.55a.54.54,0,0,0,.74,0l5.71-5.66a.52.52,0,0,0,0-.73A.53.53,0,0,0,12.57,5.93Z" transform="translate(-0.47 -0.53)"/></g></svg>