<svg id="Layer_1" data-name="Layer 1" xmlns="http://www.w3.org/2000/svg" viewBox="0 0 47.4 47.16"><defs><style>.cls-1,.cls-3{fill:none;stroke:#218ed2;stroke-linejoin:round;stroke-width:1.3px;}.cls-2{fill:#218ed2;}.cls-3{stroke-linecap:round;}</style></defs><title>Open order</title><path class="cls-1" d="M7.6,28.1V11.9A2.67,2.67,0,0,1,10,9.1H44.7a2.61,2.61,0,0,1,2.4,2.8V37.6a2.67,2.67,0,0,1-2.4,2.8H20.2" transform="translate(-0.35 -0.39)"/><path class="cls-1" d="M8.5,9.7a2.56,2.56,0,0,1,1.3-1L37.4,1.1a2.38,2.38,0,0,1,2.8,2.1l1.2,6.1" transform="translate(-0.35 -0.39)"/><rect class="cls-1" x="34.75" y="19.11" width="11.9" height="10.8"/><ellipse class="cls-2" cx="40.65" cy="24.51" rx="1.5" ry="1.7"/><path class="cls-1" d="M21.2,37.2a9.34,9.34,0,0,1-.6,3.4,10,10,0,0,1-9.4,6.3A9.83,9.83,0,0,1,1,37.2a10,10,0,0,1,10.1-9.8A10,10,0,0,1,21.2,37.2Z" transform="translate(-0.35 -0.39)"/><line class="cls-3" x1="10.75" y1="32.51" x2="10.75" y2="41.21"/><line class="cls-3" x1="15.15" y1="36.81" x2="6.35" y2="36.81"/></svg>