<svg id="Layer_1" data-name="Layer 1" xmlns="http://www.w3.org/2000/svg" viewBox="0 0 36 46"><defs><style>.cls-1{fill:#ff4830;}</style></defs><title>Bullit_office</title><path class="cls-1" d="M6,47V20a4,4,0,0,1,4-4h0V12a2,2,0,0,1,2-2h2V2a1,1,0,0,1,2,0v8h2a2,2,0,0,1,2,2v4h0a4,4,0,0,1,4,4v8h7V22h4V19h6v3h1V47ZM18,13a1,1,0,0,0-1-1H13a1,1,0,0,0-1,1v3h6Zm4,7a2,2,0,0,0-2-2H10a2,2,0,0,0-2,2V45H22Zm9,10H24V45h7Zm9-6H33V45h7Zm-4,3h1a1,1,0,0,1,1,1v1a1,1,0,0,1-1,1H36a1,1,0,0,1-1-1V28A1,1,0,0,1,36,27Zm0,6h1a1,1,0,0,1,1,1v1a1,1,0,0,1-1,1H36a1,1,0,0,1-1-1V34A1,1,0,0,1,36,33Zm0,6h1a1,1,0,0,1,1,1v1a1,1,0,0,1-1,1H36a1,1,0,0,1-1-1V40A1,1,0,0,1,36,39Zm-9-6h1a1,1,0,0,1,1,1v1a1,1,0,0,1-1,1H27a1,1,0,0,1-1-1V34A1,1,0,0,1,27,33Zm0,6h1a1,1,0,0,1,1,1v1a1,1,0,0,1-1,1H27a1,1,0,0,1-1-1V40A1,1,0,0,1,27,39Zm-9,3H17a1,1,0,0,1-1-1V40a1,1,0,0,1,1-1h1a1,1,0,0,1,1,1v1A1,1,0,0,1,18,42Zm0-6H17a1,1,0,0,1-1-1V34a1,1,0,0,1,1-1h1a1,1,0,0,1,1,1v1A1,1,0,0,1,18,36Zm0-6H17a1,1,0,0,1-1-1V28a1,1,0,0,1,1-1h1a1,1,0,0,1,1,1v1A1,1,0,0,1,18,30Zm0-6H17a1,1,0,0,1-1-1V22a1,1,0,0,1,1-1h1a1,1,0,0,1,1,1v1A1,1,0,0,1,18,24ZM13,42H12a1,1,0,0,1-1-1V40a1,1,0,0,1,1-1h1a1,1,0,0,1,1,1v1A1,1,0,0,1,13,42Zm0-6H12a1,1,0,0,1-1-1V34a1,1,0,0,1,1-1h1a1,1,0,0,1,1,1v1A1,1,0,0,1,13,36Zm0-6H12a1,1,0,0,1-1-1V28a1,1,0,0,1,1-1h1a1,1,0,0,1,1,1v1A1,1,0,0,1,13,30Zm0-6H12a1,1,0,0,1-1-1V22a1,1,0,0,1,1-1h1a1,1,0,0,1,1,1v1A1,1,0,0,1,13,24Z" transform="translate(-6 -1)"/></svg>