<svg id="Layer_1" data-name="Layer 1" xmlns="http://www.w3.org/2000/svg" viewBox="0 0 958.22 832.02"><defs><style>.cls-1{fill:#ff4830;}</style></defs><title>Bullit_law</title><path class="cls-1" d="M514,192a64,64,0,1,0-66-66A63.66,63.66,0,0,0,514,192ZM978,576H960L833,330c18-2,36-9,52-16,24-11,29-43,11-62l-1-1c-11-11-28-15-43-8-14,6-34,13-53,13-56,0-81-64-287-64s-231,64-287,64c-20,0-39-6-53-13-15-6-32-3-43,8l-1,1a39,39,0,0,0,11,62c16,8,34,14,52,16L64,576H46a13.16,13.16,0,0,0-13,15c11,64,92,113,191,113s180-49,191-113a13.16,13.16,0,0,0-13-15H384L257,331c83-7,127-49,191-49V768c-35,0-64,29-64,64H313c-28,0-57,29-57,64H768c0-35-29-64-71-64H640c0-35-29-64-64-64V282c64,0,108,42,191,49L640,576H622a13.16,13.16,0,0,0-13,15c11,64,92,113,191,113s180-49,191-113A13.16,13.16,0,0,0,978,576Zm-658,0H128l96-180Zm384,0,96-180,96,180Z" transform="translate(-32.89 -63.98)"/></svg>