<svg id="Layer_1" data-name="Layer 1" xmlns="http://www.w3.org/2000/svg" viewBox="0 0 23.75 23.83"><defs><style>.cls-1{fill:#ff4830;}</style></defs><title>Bullit_link</title><path class="cls-1" d="M16.9,7.1a1,1,0,0,0-1.4,0L7.1,15.5a1,1,0,1,0,1.4,1.4l8.4-8.4A1,1,0,0,0,16.9,7.1Z" transform="translate(-0.08 -0.17)"/><path class="cls-1" d="M8.5,22.5,12,19a5,5,0,0,0,1.1-5.3l-1.7,1.7a3.08,3.08,0,0,1-.9,2.3L7,21.2a2.9,2.9,0,0,1-4.2,0,2.9,2.9,0,0,1,0-4.2l3.5-3.5a3.34,3.34,0,0,1,2.3-.9l1.7-1.7A4.79,4.79,0,0,0,5,12L1.5,15.5a5,5,0,0,0,0,7A4.83,4.83,0,0,0,8.5,22.5Z" transform="translate(-0.08 -0.17)"/><path class="cls-1" d="M13.4,6.4l3.5-3.5a2.9,2.9,0,0,1,4.2,0,3,3,0,0,1,0,4.2l-3.5,3.5a3.34,3.34,0,0,1-2.3.9l-1.7,1.7a5,5,0,0,0,5.3-1.1l3.5-3.5a5,5,0,0,0,0-7,5,5,0,0,0-7,0L12,5a5,5,0,0,0-1.1,5.3l1.7-1.7A2.65,2.65,0,0,1,13.4,6.4Z" transform="translate(-0.08 -0.17)"/></svg>