<svg id="Layer_1" data-name="Layer 1" xmlns="http://www.w3.org/2000/svg" viewBox="0 0 78 78"><defs><style>.cls-1{fill:#ff4830;}</style></defs><title>bullit_web</title><path class="cls-1" d="M39,0A39,39,0,1,0,78,39,39,39,0,0,0,39,0Zm1.22,70.93a1.8,1.8,0,0,1-1.22.48,1.82,1.82,0,0,1-1.23-.49A42.25,42.25,0,0,1,25.94,52.69a53.59,53.59,0,0,1,26.15-.09A42.26,42.26,0,0,1,40.22,70.93ZM24.47,46.87a43.17,43.17,0,0,1,0-15.74A59.6,59.6,0,0,0,39.2,33a59.61,59.61,0,0,0,14.35-1.75,43.16,43.16,0,0,1,0,15.55A59.63,59.63,0,0,0,24.47,46.87ZM37.78,7.07A1.8,1.8,0,0,1,39,6.58a1.82,1.82,0,0,1,1.23.49A42.26,42.26,0,0,1,52.09,25.4a53.61,53.61,0,0,1-26.15-.09A42.25,42.25,0,0,1,37.78,7.07ZM59.32,29.47A59.12,59.12,0,0,0,68.89,25a32.9,32.9,0,0,1,0,27.94,59,59,0,0,0-9.57-4.44,49.14,49.14,0,0,0,0-19.06Zm6.54-9.62a53,53,0,0,1-8,3.78A48.66,48.66,0,0,0,49,7.54,33.13,33.13,0,0,1,65.85,19.85ZM29,7.54a48.64,48.64,0,0,0-8.82,16,53,53,0,0,1-8-3.81A33.12,33.12,0,0,1,29,7.54ZM9.19,24.85a59,59,0,0,0,9.51,4.49,49.27,49.27,0,0,0,0,19.32,59.13,59.13,0,0,0-9.51,4.49,32.95,32.95,0,0,1,0-28.3Zm3.07,33.46a53,53,0,0,1,8-3.81,48.64,48.64,0,0,0,8.82,16A33.12,33.12,0,0,1,12.26,58.31ZM49,70.46a48.67,48.67,0,0,0,8.86-16.1,53.13,53.13,0,0,1,8,3.78A33.13,33.13,0,0,1,49,70.46Z"/></svg>