<svg id="Livello_1" data-name="Livello 1" xmlns="http://www.w3.org/2000/svg" viewBox="0 0 141.82 82.57"><defs><style>.cls-1{fill:#ff4830;}</style></defs><title>Bullit_computer</title><g id="Livello_11" data-name="Livello 11"><path class="cls-1" d="M92,63.9H3.68V4.12H92Zm3.68,1.87h0V2.26A1.85,1.85,0,0,0,93.86.39h-92A1.85,1.85,0,0,0,0,2.26v63.5a1.85,1.85,0,0,0,1.84,1.87h35V78.83H22.08a1.87,1.87,0,0,0,0,3.74H73.61a1.87,1.87,0,0,0,0-3.74H58.89V67.63h35a1.85,1.85,0,0,0,1.84-1.87m43.22-36.27H109.86v-5.9h29.06v5.9Zm0-11.79H109.86V11.8h29.06v5.9ZM122.1,53.28a2.29,2.29,0,1,1,2.29,2.33,2.31,2.31,0,0,1-2.29-2.33m.57,6.76a1.72,1.72,0,1,1,1.72,1.75A1.74,1.74,0,0,1,122.67,60m19.16,19.59V2.95A2.93,2.93,0,0,0,138.92,0H109.86A2.93,2.93,0,0,0,107,2.95V79.62a2.93,2.93,0,0,0,2.9,2.95h29.05a2.93,2.93,0,0,0,2.91-2.95" transform="translate(0 0)"/></g></svg>