<svg id="Layer_1" data-name="Layer 1" xmlns="http://www.w3.org/2000/svg" viewBox="0 0 32 32"><defs><style>.cls-1{fill:#ff4830;}</style></defs><title>Bullit_chart</title><path class="cls-1" d="M2,30H32v2H0V0H2V6H4V8H2v4H4v2H2v4H4v2H2v4H4v2H2Zm4-9a3,3,0,0,1,3-3,3.09,3.09,0,0,1,.89.15l2.61-3.49a3,3,0,1,1,5.35-.77l3.49,2.61A3,3,0,0,1,23,16a2.69,2.69,0,0,1,.36,0l3.48-7A3,3,0,1,1,29,10a2.71,2.71,0,0,1-.36,0l-3.48,7A3,3,0,1,1,20,19a3.1,3.1,0,0,1,.15-.89L16.66,15.5A3,3,0,0,1,15,16a3,3,0,0,1-.89-.15l-2.62,3.49A3,3,0,1,1,6,21ZM28,7a1,1,0,1,0,1-1A1,1,0,0,0,28,7ZM22,19a1,1,0,1,0,1-1A1,1,0,0,0,22,19Zm-8-6a1,1,0,1,0,1-1A1,1,0,0,0,14,13ZM8,21a1,1,0,1,0,1-1A1,1,0,0,0,8,21Z"/></svg>