<svg id="Layer_1" data-name="Layer 1" xmlns="http://www.w3.org/2000/svg" viewBox="0 0 24 32"><defs><style>.cls-1{fill:#ff4830;}</style></defs><title>Bullit_map</title><g id="location"><path class="cls-1" d="M16,17.75a6,6,0,1,0-6-6A6,6,0,0,0,16,17.75Zm0-11a5,5,0,1,1-5,5A5,5,0,0,1,16,6.75Z" transform="translate(-4)"/><path class="cls-1" d="M16,0A12,12,0,0,0,4,12c0,7,6,14.16,10.38,19.19A2.44,2.44,0,0,0,16,32H16a2.45,2.45,0,0,0,1.59-.81C22,26.16,28,19,28,12A12,12,0,0,0,16,0Zm.12,29.88L16,30a1,1,0,0,0-.13-.13C12.19,25.63,6,18.51,6,12a10,10,0,1,1,20,0C26,18.51,19.81,25.63,16.12,29.88Z" transform="translate(-4)"/></g></svg>