<svg id="Layer_1" data-name="Layer 1" xmlns="http://www.w3.org/2000/svg" viewBox="0 0 730.99 730.99"><defs><style>.cls-1{fill:#ff4830;}</style></defs><title>Bullit_help</title><path class="cls-1" d="M400,34.5C198.46,34.5,34.5,198.46,34.5,400S198.46,765.49,400,765.49s365.5-164,365.5-365.49S601.53,34.5,400,34.5ZM583.45,371.08H732.18c.83,9.54,1.34,19.17,1.34,28.92s-.51,19.37-1.34,28.91H583.45a169.77,169.77,0,0,0,0-57.82Zm144.4-32H578a16.56,16.56,0,0,0-2.41.24A186.58,186.58,0,0,0,460.13,224.24a15.52,15.52,0,0,0,.77-4.62V72.15C596,97.2,702.8,204,727.85,339.11ZM400,554c-84.89,0-154-69.06-154-154s69.07-154,154-154,154,69.06,154,154S484.89,554,400,554ZM428.92,67.81V216.55a169.67,169.67,0,0,0-57.82,0V67.81c9.53-.82,19.15-1.33,28.89-1.33S419.38,67,428.92,67.81Zm-89.8,4.33V219.62a15.78,15.78,0,0,0,.76,4.61A186.59,186.59,0,0,0,224.42,339.35a16.32,16.32,0,0,0-2.41-.24H72.14C97.19,203.94,204,97.19,339.13,72.14ZM66.48,400c0-9.75.51-19.38,1.33-28.92H216.54a169.84,169.84,0,0,0,0,57.82H67.81C67,419.37,66.48,409.74,66.48,400Zm5.67,60.88H222a16.45,16.45,0,0,0,2.41-.24A186.56,186.56,0,0,0,339.14,575.49s0,.06,0,.1V727.86C204,702.81,97.19,596,72.14,460.88Zm299,271.32V583.45a169.63,169.63,0,0,0,57.82,0V732.19c-9.54.83-19.18,1.33-28.93,1.33S380.63,733,371.1,732.2Zm89.8-4.35V575.59s0-.07,0-.11A186.55,186.55,0,0,0,575.57,460.64a16.56,16.56,0,0,0,2.41.24H727.85C702.81,596,596.06,702.8,460.9,727.85Z" transform="translate(-34.5 -34.5)"/></svg>