<svg id="Layer_1" data-name="Layer 1" xmlns="http://www.w3.org/2000/svg" viewBox="0 0 21.17 60.24"><defs><style>.cls-1{fill:none;stroke:#fff;stroke-miterlimit:10;stroke-width:2px;}</style></defs><title>Phone_active</title><path class="cls-1" d="M11.27,42.44s4.5,1.22,5.65,1.58a3,3,0,0,1,2.2,1.78c.28,1.15,2.28,11.1,2.43,12s-.61,2.11-2.29,2.4-8.76,1-10.07-.37S2.39,52.67,2.4,31.5,7.89,4.59,9.19,3.2s8.39-.67,10.07-.37,2.43,1.57,2.29,2.4-2.18,10.84-2.43,12A3,3,0,0,1,16.92,19c-1.14.36-5.64,1.58-5.64,1.58s-.82,3.13-.81,10.94S11.27,42.44,11.27,42.44Z" transform="translate(-1.4 -1.37)"/></svg>