<svg id="Layer_1" data-name="Layer 1" xmlns="http://www.w3.org/2000/svg" xmlns:xlink="http://www.w3.org/1999/xlink" viewBox="0 0 142.88 142.89"><defs><style>.cls-1{fill:none;}.cls-2{clip-path:url(#clip-path);}.cls-3{fill:#fff;}</style><clipPath id="clip-path" transform="translate(-7.26 -5.69)"><rect class="cls-1" x="-72.1" y="-73.67" width="301.6" height="301.6"/></clipPath></defs><title>Deposit_white</title><g class="cls-2"><path class="cls-3" d="M148.28,60.77V7.68H95.2L113,25.47l-102,102,18.2,18.2,102-102ZM17.39,127.44l102-102-13.3-13.3h37.72V49.9L131.2,37.31l-102,102Z" transform="translate(-7.26 -5.69)"/><g class="cls-2"><path class="cls-3" d="M32.7,56.57A25.44,25.44,0,1,0,7.26,31.13,25.47,25.47,0,0,0,32.7,56.57m0-46.39A20.94,20.94,0,1,1,11.76,31.13,21,21,0,0,1,32.7,10.19" transform="translate(-7.26 -5.69)"/><path class="cls-3" d="M28.15,33.17h2v5.57H28a1.16,1.16,0,0,1-1.11-1.17h-4.5A5.65,5.65,0,0,0,28,43.25h2.07V47h4.5V43.22h2a6.11,6.11,0,0,0,6.1-6.1V34.78a6.11,6.11,0,0,0-6.1-6.1h-2V23.14H37.2a.47.47,0,0,1,.47.46h4.5a5,5,0,0,0-5-5H34.61V15.16h-4.5v3.49h-2a6.11,6.11,0,0,0-6.1,6.1v2.32a6.11,6.11,0,0,0,6.1,6.1m8.42,0a1.61,1.61,0,0,1,1.6,1.6V37.1a1.61,1.61,0,0,1-1.62,1.6H34.61V33.17Zm-10-8.43a1.6,1.6,0,0,1,1.6-1.6h2v5.53h-2a1.6,1.6,0,0,1-1.6-1.6Z" transform="translate(-7.26 -5.69)"/><path class="cls-3" d="M124.7,97.68a25.44,25.44,0,1,0,25.44,25.44A25.47,25.47,0,0,0,124.7,97.68m0,46.39a20.94,20.94,0,1,1,20.94-20.94,21,21,0,0,1-20.94,20.94" transform="translate(-7.26 -5.69)"/><path class="cls-3" d="M128.57,120.67h-2v-5.53h2.59a.46.46,0,0,1,.47.47h4.5a5,5,0,0,0-5-5H126.6v-3.49h-4.5v3.49h-2a6.11,6.11,0,0,0-6.1,6.1v2.32a6.11,6.11,0,0,0,6.1,6.1h2v5.57H120a1.16,1.16,0,0,1-1.12-1.17h-4.5a5.65,5.65,0,0,0,5.63,5.67h2.07V139h4.5v-3.81h2a6.11,6.11,0,0,0,6.1-6.1v-2.32a6.11,6.11,0,0,0-6.1-6.1m-8.42,0a1.61,1.61,0,0,1-1.6-1.6v-2.32a1.61,1.61,0,0,1,1.6-1.6h2v5.53Zm10,8.43a1.61,1.61,0,0,1-1.62,1.6H126.6v-5.54h2a1.6,1.6,0,0,1,1.6,1.6Z" transform="translate(-7.26 -5.69)"/></g></g></svg>