<svg id="Layer_1" data-name="Layer 1" xmlns="http://www.w3.org/2000/svg" xmlns:xlink="http://www.w3.org/1999/xlink" viewBox="0 0 129.54 127.67"><defs><style>.cls-1{fill:none;}.cls-2{clip-path:url(#clip-path);}.cls-3{clip-path:url(#clip-path-2);}.cls-4{fill:#fff;}</style><clipPath id="clip-path" transform="translate(-15.24 -12.48)"><rect class="cls-1" x="-26" y="-21.5" width="201.5" height="201.5"/></clipPath><clipPath id="clip-path-2" transform="translate(-15.24 -12.48)"><rect class="cls-1" x="-18.77" y="-21.02" width="193.53" height="193.53"/></clipPath></defs><title>Handshake2_white</title><g class="cls-3"><rect class="cls-4" x="20.72" y="75.53" width="4.33" height="4.03" transform="translate(-63.37 26.41) rotate(-45)"/><path class="cls-4" d="M137.58,88.09,98.81,49.33l34-34L130,12.48,93.11,49.33l5.42,5.42-3.41,3.41H68L63.38,53.5l4.18-4.18-36.8-36.8L27.9,15.37l34,34L23.09,88.09l-5-5-2.85,2.85,7.85,7.85,6.62-6.62,8,8A8.79,8.79,0,0,0,44.2,110h0a8.7,8.7,0,0,0,1.23-.13,8.71,8.71,0,0,0-.12,1.23,8.82,8.82,0,0,0,8.81,8.79h0a8.89,8.89,0,0,0,1.23-.12,8.66,8.66,0,0,0-.12,1.22,8.82,8.82,0,0,0,8.81,8.79h0a8.85,8.85,0,0,0,1.22-.12,8.9,8.9,0,0,0-.12,1.22A8.81,8.81,0,0,0,74,139.64h0a8.73,8.73,0,0,0,4.1-1.06,9,9,0,0,0,14-8.32l.2,0a8.94,8.94,0,0,0,9.62-9.87c.34,0,.71,0,1,0a7.62,7.62,0,0,0,2.95-.49,9.08,9.08,0,0,0,5.84-9.41c.3,0,.62,0,.92,0a8.91,8.91,0,0,0,7.95-13l.56.56,10.38-10.38,6.06,6.06,7.21-7.21-2.85-2.85ZM74,135.61a4.78,4.78,0,0,1-4.78-4.77,4.83,4.83,0,0,1,.08-.81,4.83,4.83,0,0,1,4.69-4,4.43,4.43,0,0,1,3.38,1.39,4.76,4.76,0,0,1-2.55,8.08,4.81,4.81,0,0,1-.81.08Zm-14.7-14.66a4.84,4.84,0,0,1,4.77-4.78,4.56,4.56,0,0,1,3.38,1.39,4.78,4.78,0,1,1-8.15,3.39Zm-5.15-5.13a4.76,4.76,0,0,1-2.33-8.92,4.72,4.72,0,0,1,2.33-.64A4.83,4.83,0,0,1,58.91,111a4.75,4.75,0,0,1-4,4.7,4.79,4.79,0,0,1-.81.08Zm-13.3-11.29a4.8,4.8,0,0,1,3.36-8.16A4.81,4.81,0,0,1,49,101.14a4.84,4.84,0,0,1-4,4.7,4.64,4.64,0,0,1-4.19-1.31Zm75.3.57a4.94,4.94,0,0,1-7,0l0,0-6.87-6.85-2.85,2.86,7.14,7.12,0,0a4.92,4.92,0,0,1-3.72,8.14,4.81,4.81,0,0,1-3.5-1.44h0l-6.87-6.85L89.6,111l6.71,6.69a5.08,5.08,0,0,1,1,6.07,4.92,4.92,0,0,1-7.51,1.33l0,0-7.14-7.12-2.85,2.86,6.87,6.85-.06.06a4.94,4.94,0,0,1-5.36,8.07A8.81,8.81,0,0,0,74,122a8.86,8.86,0,0,0-1.22.12,8.86,8.86,0,0,0,.12-1.22,8.75,8.75,0,0,0-2.59-6.22A9,9,0,0,0,64,112.13a8.71,8.71,0,0,0-1.22.13,8.34,8.34,0,0,0-2.47-7.45,9,9,0,0,0-6.23-2.57h0a8.7,8.7,0,0,0-1.23.13,8.71,8.71,0,0,0,.12-1.23,8.82,8.82,0,0,0-8.81-8.79h0a8.77,8.77,0,0,0-3,.57l-8.59-8.59,28-28,5.84,5.84h9.2L55,82.88l4.06,4a12,12,0,0,0,17,0l6.91-6.94a5.75,5.75,0,0,1,4.28-1.57l9.13,0,19.76,19.7a4.94,4.94,0,0,1,0,7Zm2.5-10.18L98,74.39l-10.8,0a9.71,9.71,0,0,0-7.14,2.76L73.18,84a8,8,0,0,1-11.32,0l-1.2-1.2,20.6-20.68H96.8l4.59-4.59,27.28,27.28Z" transform="translate(-15.24 -12.48)"/><rect class="cls-4" x="135.56" y="75.38" width="4.03" height="4.33" transform="translate(-29.78 107.51) rotate(-45)"/></g></svg>