<svg id="Layer_1" data-name="Layer 1" xmlns="http://www.w3.org/2000/svg" xmlns:xlink="http://www.w3.org/1999/xlink" viewBox="0 0 127.88 128.66"><defs><style>.cls-1{fill:none;}.cls-2{clip-path:url(#clip-path);}.cls-3{fill:#fff;}</style><clipPath id="clip-path" transform="translate(-14.05 -14.63)"><rect class="cls-1" x="-17.75" y="-16.79" width="191.5" height="191.5"/></clipPath></defs><title>Liquidnost_white</title><g class="cls-2"><g class="cls-2"><path class="cls-3" d="M126.06,143.29h15.87V99.41H54.07v43.89h72Zm4.19-4a9.92,9.92,0,0,1,7.69-7.69v7.69Zm7.69-35.91v7.69a9.92,9.92,0,0,1-7.69-7.69Zm0,11.73v12.46a13.89,13.89,0,0,0-11.73,11.73H69.78a13.89,13.89,0,0,0-11.73-11.73V115.12A13.89,13.89,0,0,0,69.78,103.4h56.44a13.89,13.89,0,0,0,11.73,11.73M58.05,131.61a9.92,9.92,0,0,1,7.69,7.69H58.05Zm0-20.52V103.4h7.69a9.92,9.92,0,0,1-7.69,7.69" transform="translate(-14.05 -14.63)"/><path class="cls-3" d="M97.93,131.37a10,10,0,1,0-10-10,10,10,0,0,0,10,10m0-16.08a6,6,0,1,1-6,6,6.05,6.05,0,0,1,6-6" transform="translate(-14.05 -14.63)"/><rect class="cls-3" x="60" y="96.5" width="7.98" height="3.99"/><rect class="cls-3" x="60" y="104.48" width="7.98" height="3.99"/><rect class="cls-3" x="60" y="112.46" width="7.98" height="3.99"/><rect class="cls-3" x="99.9" y="96.5" width="7.98" height="3.99"/><rect class="cls-3" x="99.9" y="104.48" width="7.98" height="3.99"/><rect class="cls-3" x="99.9" y="112.46" width="7.98" height="3.99"/><path class="cls-3" d="M52.24,41.93l5.37,1.92a6,6,0,0,0-1.33,3.73V87.46l2.53,1.82-2.53,1.9V95.5h4V93.17l1.93-1.45,2.05,1.48v2.3h4V91.15l-8-5.74V47.58a2,2,0,0,1,1.33-1.88l10.62-3.77v4.61h3.93v36h4v-36h4l.06-4.62,10.53,3.76A2,2,0,0,1,96,47.57V85.32l-7.81,5.86V95.5h4V93.17l2-1.5,2,1.5V95.5h4V91.18l-2.66-2L100,87.31V47.57a6,6,0,0,0-1.29-3.68l5.49-2,.06,4.61h4v36h4v-36h3.93V41.93l10.62,3.77a2,2,0,0,1,1.33,1.88V85.42l-8,5.74V95.5h4V93.2l8-5.74V47.58a6,6,0,0,0-4-5.64l-11.83-4.2,3.93-4.35V23.1a8.47,8.47,0,0,0-8.47-8.47h-3a8.54,8.54,0,0,0-5.29,1.85,8.42,8.42,0,0,0-3.22,6.64V33.38l3.88,4.36-9.78,3.49,0,.08-10-3.58,3.88-4.36V23.13a8.53,8.53,0,0,0-8.51-8.5h-3a8.47,8.47,0,0,0-8.47,8.47V33.39l3.93,4.35-9.94,3.53v0l-9.78-3.49,3.88-4.36V23.13a8.53,8.53,0,0,0-8.51-8.5h-3a8.47,8.47,0,0,0-8.47,8.47V33.39l3.93,4.35-11.83,4.2a6,6,0,0,0-4,5.64V87.46l8,5.74v2.3h4V91.15l-8-5.74V47.58a2,2,0,0,1,1.33-1.88L40.3,41.93v4.61h3.93v36h4v-36h4Zm51.93-18.8a4.53,4.53,0,0,1,4.52-4.51h3a4.48,4.48,0,0,1,4.48,4.48v8.76l-4.05,4.49v6.21h-4l0-2.54V36.35l-4-4.49Zm-32,0a4.48,4.48,0,0,1,4.48-4.48h3a4.54,4.54,0,0,1,2.81,1,4.46,4.46,0,0,1,1.7,3.51v8.74l-4,4.49V40l0,2.56h-4V36.35l-4.05-4.49ZM44.29,42.56V36.35l-4.05-4.49V23.1a4.48,4.48,0,0,1,4.48-4.48h3a4.54,4.54,0,0,1,2.81,1,4.46,4.46,0,0,1,1.7,3.51v8.74l-4,4.49V40l0,2.53Z" transform="translate(-14.05 -14.63)"/><rect class="cls-3" x="31.92" y="84.78" width="3.99" height="43.89"/><rect class="cls-3" x="23.94" y="84.78" width="3.99" height="43.89"/><rect class="cls-3" x="15.96" y="84.78" width="3.99" height="43.89"/><rect class="cls-3" x="7.98" y="84.78" width="3.99" height="43.89"/><rect class="cls-3" y="84.78" width="3.99" height="43.89"/></g></g></svg>