<svg id="Layer_1" data-name="Layer 1" xmlns="http://www.w3.org/2000/svg" xmlns:xlink="http://www.w3.org/1999/xlink" viewBox="0 0 132.87 134.47"><defs><style>.cls-1{fill:none;}.cls-2{clip-path:url(#clip-path);}.cls-3{fill:#fff;}</style><clipPath id="clip-path" transform="translate(-8.31 -12.01)"><rect class="cls-1" x="-26" y="-21.5" width="201.5" height="201.5"/></clipPath></defs><title>Minimal spread_white</title><g class="cls-2"><g class="cls-2"><path class="cls-3" d="M122.25,93.8l-20.83,10.7H89.75A14.94,14.94,0,0,0,94.14,94v-2.1H52.88A15.23,15.23,0,0,0,42,96.37l-12.8,12.8v-.47H8.31v4.2H25v29.39H8.31v4.2H29.23V133.89H43.69L105.29,122l34.34-21a3.25,3.25,0,0,0,1.54-2.53A3.3,3.3,0,0,0,140,95.66c-5.39-4.5-12.06-5.18-17.75-1.86M103.75,118,43.29,129.69H29.23V115.11L45,99.34a11.06,11.06,0,0,1,7.87-3.26H89.74a10.34,10.34,0,0,1-9.83,8.43H67v4.2h35.45l21.83-11.22a10.72,10.72,0,0,1,12,.6Z" transform="translate(-8.31 -12.01)"/><path class="cls-3" d="M100.14,72.87A10.76,10.76,0,1,0,110.91,62.1a10.77,10.77,0,0,0-10.76,10.76m10.76-6.57a6.57,6.57,0,1,1-6.57,6.57,6.57,6.57,0,0,1,6.57-6.57" transform="translate(-8.31 -12.01)"/><path class="cls-3" d="M90.09,12a10.76,10.76,0,1,0,10.76,10.76A10.77,10.77,0,0,0,90.09,12m0,17.33a6.57,6.57,0,1,1,6.57-6.57,6.57,6.57,0,0,1-6.57,6.57" transform="translate(-8.31 -12.01)"/><polygon class="cls-3" points="12.59 117.5 10.49 117.5 8.39 117.5 8.39 126.05 10.49 126.05 12.59 126.05 12.59 117.5"/><path class="cls-3" d="M29.25,75.1H83.93V41.51H29.25Zm4.2-29.39H79.73V70.9H33.45Z" transform="translate(-8.31 -12.01)"/><path class="cls-3" d="M56.67,49.89a8.4,8.4,0,1,0,8.4,8.4,8.4,8.4,0,0,0-8.4-8.4m0,12.59a4.2,4.2,0,1,1,4.2-4.2,4.2,4.2,0,0,1-4.2,4.2" transform="translate(-8.31 -12.01)"/><rect class="cls-3" x="60.88" y="44.06" width="6.22" height="4.2"/><rect class="cls-3" x="29.32" y="44.19" width="6.37" height="4.2"/><polygon class="cls-3" points="50.37 8.27 50.37 4.07 48.27 4.07 46.18 4.07 46.18 8.27 48.27 8.27 50.37 8.27"/><polygon class="cls-3" points="46.18 25.06 48.27 25.06 50.37 25.06 50.37 20.86 48.27 20.86 46.18 20.86 46.18 25.06"/><polygon class="cls-3" points="46.18 16.67 48.27 16.67 50.37 16.67 50.37 12.47 48.27 12.47 46.18 12.47 46.18 16.67"/><polygon class="cls-3" points="100.49 37.77 102.59 37.77 104.69 37.77 104.69 33.57 102.59 33.57 100.49 33.57 100.49 37.77"/><polygon class="cls-3" points="104.69 29.37 104.69 25.17 102.59 25.17 100.49 25.17 100.49 29.37 102.59 29.37 104.69 29.37"/><polygon class="cls-3" points="100.49 46.16 104.69 46.16 104.69 41.96 102.59 41.96 100.49 41.96 100.49 46.16"/></g></g></svg>