<svg id="Layer_1" data-name="Layer 1" xmlns="http://www.w3.org/2000/svg" xmlns:xlink="http://www.w3.org/1999/xlink" viewBox="0 0 91.99 141"><defs><style>.cls-1{fill:none;}.cls-2{clip-path:url(#clip-path);}.cls-3{fill:#fff;}</style><clipPath id="clip-path" transform="translate(-36.84 -5.25)"><rect class="cls-1" x="-26.77" y="-33.86" width="219.21" height="219.21"/></clipPath></defs><title>Sand clock</title><g class="cls-2"><g class="cls-2"><path class="cls-3" d="M77.71,112.32H81v2.32a1.64,1.64,0,1,0,3.27,0v-2.33h2.38a4.11,4.11,0,0,0,1.77-.41,4.15,4.15,0,0,0,2.39-3.75V106.6a4.16,4.16,0,0,0-4.16-4.16H84.25v-3.3h2.52a1.64,1.64,0,0,0,0-3.27H84.25V93.75a1.64,1.64,0,1,0-3.27,0v2.12H78.37A4.16,4.16,0,0,0,74.21,100v1.52a4.16,4.16,0,0,0,4.16,4.16H81V109H77.7a1.64,1.64,0,0,0,0,3.27Zm-.23-10.76V100a.89.89,0,0,1,.89-.89H81v3.3H78.37a.89.89,0,0,1-.89-.89m10,5v1.52a.89.89,0,0,1-.89.89H84.25v-3.31h2.38a.89.89,0,0,1,.89.89" transform="translate(-36.84 -5.25)"/><path class="cls-3" d="M127.19,5.25H38.48a1.64,1.64,0,0,0-1.64,1.64v9a1.64,1.64,0,0,0,1.64,1.64h5.78V54.44a1.62,1.62,0,0,0,0,.38l0,.1a1.65,1.65,0,0,0,.1.25l.06.1a1.65,1.65,0,0,0,.18.24l.05.06a1.62,1.62,0,0,0,.29.24l0,0,32.1,19.92L45,95.67a1.63,1.63,0,0,0-.77,1.39V134H38.48a1.64,1.64,0,0,0-1.64,1.64v9a1.64,1.64,0,0,0,1.64,1.64h88.72a1.64,1.64,0,0,0,1.64-1.64v-9a1.64,1.64,0,0,0-1.64-1.64h-5.78V97.06a1.63,1.63,0,0,0-.77-1.39L88.55,75.75l32.1-19.92,0,0a1.65,1.65,0,0,0,.29-.24l.05-.06a1.65,1.65,0,0,0,.18-.24l.06-.1a1.57,1.57,0,0,0,.1-.25l0-.1a1.62,1.62,0,0,0,0-.38V17.5h5.78a1.64,1.64,0,0,0,1.64-1.64v-9a1.64,1.64,0,0,0-1.64-1.64m-1.64,9H40.11V8.52h85.45Zm0,128.75H40.11v-5.71h85.45ZM85,77.38,118.15,98V132.9L94.58,116.24a16.83,16.83,0,1,0-23.1.35L47.52,133V98L80.69,77.38Zm-15.7,26.83a13.54,13.54,0,1,1,5,10.48,13.57,13.57,0,0,1-5-10.48M82.84,121a16.71,16.71,0,0,0,9.07-2.68L114,134H51.81l22.44-15.34A16.7,16.7,0,0,0,82.84,121M85,74.11H80.69l-29.07-18H114ZM91.09,52.8a7.12,7.12,0,0,1,13.87,0Zm27.06,0h-9.86a10.39,10.39,0,0,0-20.52,0H47.52V17.5h70.62Z" transform="translate(-36.84 -5.25)"/></g></g></svg>