<svg id="Layer_1" data-name="Layer 1" xmlns="http://www.w3.org/2000/svg" xmlns:xlink="http://www.w3.org/1999/xlink" viewBox="0 0 137.74 137.89"><defs><style>.cls-1{fill:none;}.cls-2{clip-path:url(#clip-path);}.cls-3{fill:#fff;}</style><clipPath id="clip-path" transform="translate(-8.11 -10.74)"><rect class="cls-1" x="-26.27" y="-23.57" width="206.5" height="206.5"/></clipPath></defs><title>Save money_white</title><g class="cls-2"><g class="cls-2"><path class="cls-3" d="M125,103.09h6v-4.3h-6.81A3.89,3.89,0,0,1,125,97.6l4.82-4.95a2.15,2.15,0,0,0,.61-1.5v-5a2.15,2.15,0,0,0-2.77-2.06l-6.49,2-6.78-2a2.14,2.14,0,0,0-1.18,0l-7.08,2-6.94-2a2.15,2.15,0,0,0-2.74,2.07v5.22A2.15,2.15,0,0,0,97.23,93l5.62,4.61a3.78,3.78,0,0,1,.79,1.17H96.58v4.3h6.22l-8.42,8.42A35,35,0,0,0,84.07,136.4h4.3a30.7,30.7,0,0,1,9-21.85l8.48-8.48a8,8,0,0,0,1.87-3h2.47l-3.76,8.19,2,.9,2,.9.41-.9,3.09-6.74,3,6.74.4.88,2-.88,2-.88-3.7-8.21h2.51a8,8,0,0,0,1.87,3l8.47,8.47a30.69,30.69,0,0,1,9,21.85,7.93,7.93,0,0,1-7.92,7.92H96.29v4.3h35.25a12.23,12.23,0,0,0,12.22-12.22,35,35,0,0,0-10.31-24.89Zm-16.91-4.3a8.32,8.32,0,0,0-2.39-4.35l-5-4.1V89l4.79,1.37a2.16,2.16,0,0,0,1.17,0l7.07-2,6.8,2a2.14,2.14,0,0,0,1.22,0L126.13,89v1.25l-4.19,4.3a8.07,8.07,0,0,0-2.23,4.21Z" transform="translate(-8.11 -10.74)"/><path class="cls-3" d="M79.09,19.35V10.74h-4.3v8.61c-37.56.94-66.68,26.1-66.68,58.07l.16,3.91,3.34-2.23a20.54,20.54,0,0,1,23,.1l1.19.81,1.61-1.07a20.59,20.59,0,0,1,22.76,0l1.56,1,4.79-2.73a20.53,20.53,0,0,1,8.25-2.57v63A10.71,10.71,0,0,0,94,144.19a10.66,10.66,0,0,0,2.28-6.55H92a6.45,6.45,0,0,1-12.91,0v-63a20.56,20.56,0,0,1,8.12,2.69l4.38,2.58,1.92-1.23a20.6,20.6,0,0,1,22.62.2L117.76,80l1.67-1.1a20.58,20.58,0,0,1,22.81.13l3.61,2.42v-4c0-32-29.16-57.16-66.75-58.07M12.56,73.64C14.32,51.4,31.63,33.26,55.75,26.48c-12.53,9.26-21.08,26.68-22,47.32a24.75,24.75,0,0,0-21.22-.15m25.53,0C39.26,49,51.94,29.32,69,24.66,63,34,60,54,59.72,73.75a24.38,24.38,0,0,0-21.64-.07m26.32-.21-.37.21c.52-32.21,7.63-50,12.62-50.07h.05c5,.05,12.1,17.84,12.62,50a25,25,0,0,0-24.93-.15m29.25.27c-.33-19.76-3.3-39.88-9.29-49.16,17.17,4.52,30,24.24,31.16,49.07a24.84,24.84,0,0,0-21.87.08m26.18,0c-.91-20.73-9.53-38.2-22.16-47.43C122.06,33,139.6,51.22,141.39,73.61a24.82,24.82,0,0,0-21.56.16" transform="translate(-8.11 -10.74)"/><path class="cls-3" d="M10.4,131.19h56V96.78h-56Zm4.3-30.11H62.13v25.81H14.7Z" transform="translate(-8.11 -10.74)"/><path class="cls-3" d="M38.5,105.36a8.6,8.6,0,1,0,8.6,8.6,8.61,8.61,0,0,0-8.6-8.6m0,12.91a4.3,4.3,0,1,1,4.3-4.3,4.31,4.31,0,0,1-4.3,4.3" transform="translate(-8.11 -10.74)"/><rect class="cls-3" x="43.23" y="100.96" width="6.37" height="4.3"/><rect class="cls-3" x="10.88" y="101.1" width="6.53" height="4.3"/><polygon class="cls-3" points="2.29 126.91 2.29 129.06 58.33 129.06 58.33 126.91 58.33 124.76 2.29 124.76 2.29 126.91"/><polygon class="cls-3" points="2.29 135.51 2.29 137.67 58.33 137.67 58.33 135.51 58.33 133.36 2.29 133.36 2.29 135.51"/></g></g></svg>